0
SECTION
2
HEADER
9
$ACADVER
1
AC1009
0
ENDSEC
0
SECTION
2
TABLES
0
TABLE
2
LAYER
70
2
0
LAYER
2
CUT
70
0
62
1
6
CONTINUOUS
0
LAYER
2
ENGRAVE
70
0
62
5
6
CONTINUOUS
0
ENDTAB
0
ENDSEC
0
SECTION
2
ENTITIES
0
LINE
8
CUT
62
1
10
0.1500
20
300.4500
30
0.0
11
0.1500
21
0.1500
31
0.0
0
LINE
8
CUT
62
1
10
0.1500
20
0.1500
30
0.0
11
235.3020
21
0.1500
31
0.0
0
LINE
8
CUT
62
1
10
235.3020
20
0.1500
30
0.0
11
239.4947
21
0.2598
31
0.0
0
LINE
8
CUT
62
1
10
239.4947
20
0.2598
30
0.0
11
243.6780
21
0.5890
31
0.0
0
LINE
8
CUT
62
1
10
243.6780
20
0.5890
30
0.0
11
247.8382
21
1.1367
31
0.0
0
LINE
8
CUT
62
1
10
247.8382
20
1.1367
30
0.0
11
251.9641
21
1.9014
31
0.0
0
LINE
8
CUT
62
1
10
251.9641
20
1.9014
30
0.0
11
256.0444
21
2.8810
31
0.0
0
LINE
8
CUT
62
1
10
256.0444
20
2.8810
30
0.0
11
260.0677
21
4.0728
31
0.0
0
LINE
8
CUT
62
1
10
260.0677
20
4.0728
30
0.0
11
264.0232
21
5.4735
31
0.0
0
LINE
8
CUT
62
1
10
264.0232
20
5.4735
30
0.0
11
267.9000
21
7.0793
31
0.0
0
LINE
8
CUT
62
1
10
267.9000
20
7.0793
30
0.0
11
271.6874
21
8.8858
31
0.0
0
LINE
8
CUT
62
1
10
271.6874
20
8.8858
30
0.0
11
275.3750
21
10.8880
31
0.0
0
LINE
8
CUT
62
1
10
275.3750
20
10.8880
30
0.0
11
278.9528
21
13.0805
31
0.0
0
LINE
8
CUT
62
1
10
278.9528
20
13.0805
30
0.0
11
282.4110
21
15.4572
31
0.0
0
LINE
8
CUT
62
1
10
282.4110
20
15.4572
30
0.0
11
285.7401
21
18.0117
31
0.0
0
LINE
8
CUT
62
1
10
285.7401
20
18.0117
30
0.0
11
288.9309
21
20.7369
31
0.0
0
LINE
8
CUT
62
1
10
288.9309
20
20.7369
30
0.0
11
291.9746
21
23.6254
31
0.0
0
LINE
8
CUT
62
1
10
291.9746
20
23.6254
30
0.0
11
294.8631
21
26.6691
31
0.0
0
LINE
8
CUT
62
1
10
294.8631
20
26.6691
30
0.0
11
297.5883
21
29.8599
31
0.0
0
LINE
8
CUT
62
1
10
297.5883
20
29.8599
30
0.0
11
300.1428
21
33.1890
31
0.0
0
LINE
8
CUT
62
1
10
300.1428
20
33.1890
30
0.0
11
302.5195
21
36.6472
31
0.0
0
LINE
8
CUT
62
1
10
302.5195
20
36.6472
30
0.0
11
304.7120
21
40.2250
31
0.0
0
LINE
8
CUT
62
1
10
304.7120
20
40.2250
30
0.0
11
306.7142
21
43.9126
31
0.0
0
LINE
8
CUT
62
1
10
306.7142
20
43.9126
30
0.0
11
308.5207
21
47.7000
31
0.0
0
LINE
8
CUT
62
1
10
308.5207
20
47.7000
30
0.0
11
310.1265
21
51.5768
31
0.0
0
LINE
8
CUT
62
1
10
310.1265
20
51.5768
30
0.0
11
311.5272
21
55.5323
31
0.0
0
LINE
8
CUT
62
1
10
311.5272
20
55.5323
30
0.0
11
312.7190
21
59.5556
31
0.0
0
LINE
8
CUT
62
1
10
312.7190
20
59.5556
30
0.0
11
313.6986
21
63.6359
31
0.0
0
LINE
8
CUT
62
1
10
313.6986
20
63.6359
30
0.0
11
314.4633
21
67.7618
31
0.0
0
LINE
8
CUT
62
1
10
314.4633
20
67.7618
30
0.0
11
315.0110
21
71.9220
31
0.0
0
LINE
8
CUT
62
1
10
315.0110
20
71.9220
30
0.0
11
315.3402
21
76.1053
31
0.0
0
LINE
8
CUT
62
1
10
315.3402
20
76.1053
30
0.0
11
315.4500
21
80.2980
31
0.0
0
LINE
8
CUT
62
1
10
315.4500
20
80.2980
30
0.0
11
315.4500
21
300.4500
31
0.0
0
LINE
8
CUT
62
1
10
315.4500
20
300.4500
30
0.0
11
207.1500
21
300.4500
31
0.0
0
LINE
8
CUT
62
1
10
207.1500
20
300.4500
30
0.0
11
207.1500
21
208.4500
31
0.0
0
LINE
8
CUT
62
1
10
207.1500
20
208.4500
30
0.0
11
23.4500
21
208.4500
31
0.0
0
LINE
8
CUT
62
1
10
23.4500
20
208.4500
30
0.0
11
23.4500
21
300.4500
31
0.0
0
LINE
8
CUT
62
1
10
23.4500
20
300.4500
30
0.0
11
0.1500
21
300.4500
31
0.0
0
CIRCLE
8
CUT
62
1
10
295.3000
20
150.3000
30
0.0
40
3.1500
0
CIRCLE
8
CUT
62
1
10
25.3000
20
20.3000
30
0.0
40
3.1500
0
CIRCLE
8
CUT
62
1
10
195.3000
20
20.3000
30
0.0
40
3.1500
0
TEXT
8
ENGRAVE
62
5
10
30.3000
20
110.3000
30
0.0
40
6.0000
50
90.0000
1
RIGHT - FRONT ->
0
TEXT
8
ENGRAVE
62
5
10
135.3000
20
42.5000
30
0.0
40
40.0000
50
90.0000
1
HSLU
0
ENDSEC
0
EOF
