0
SECTION
2
HEADER
9
$ACADVER
1
AC1009
0
ENDSEC
0
SECTION
2
TABLES
0
TABLE
2
LAYER
70
2
0
LAYER
2
CUT
70
0
62
1
6
CONTINUOUS
0
LAYER
2
ENGRAVE
70
0
62
5
6
CONTINUOUS
0
LAYER
2
REFERENCE
70
0
62
3
6
CONTINUOUS
0
ENDTAB
0
ENDSEC
0
SECTION
2
ENTITIES
0
LINE
8
REFERENCE
62
3
10
0.0000
20
0.0000
30
0.0
11
600.0000
21
0.0000
31
0.0
0
LINE
8
REFERENCE
62
3
10
600.0000
20
0.0000
30
0.0
11
600.0000
21
-440.0000
31
0.0
0
LINE
8
REFERENCE
62
3
10
600.0000
20
-440.0000
30
0.0
11
0.0000
21
-440.0000
31
0.0
0
LINE
8
REFERENCE
62
3
10
0.0000
20
-440.0000
30
0.0
11
0.0000
21
0.0000
31
0.0
0
LINE
8
CUT
62
1
10
40.1500
20
0.0000
30
0.0
11
40.1500
21
-19.8500
31
0.0
0
LINE
8
CUT
62
1
10
40.1500
20
-19.8500
30
0.0
11
559.8500
21
-19.8500
31
0.0
0
LINE
8
CUT
62
1
10
559.8500
20
-19.8500
30
0.0
11
559.8500
21
0.0000
31
0.0
0
TEXT
8
REFERENCE
62
3
10
10.0000
20
-430.0000
30
0.0
40
6.0000
1
magazine plate 600 x 440 - recut front notch: green NOT cut
0
ENDSEC
0
EOF
