0
SECTION
2
HEADER
9
$ACADVER
1
AC1009
0
ENDSEC
0
SECTION
2
TABLES
0
TABLE
2
LAYER
70
2
0
LAYER
2
CUT
70
0
62
1
6
CONTINUOUS
0
LAYER
2
ENGRAVE
70
0
62
5
6
CONTINUOUS
0
ENDTAB
0
ENDSEC
0
SECTION
2
ENTITIES
0
LINE
8
CUT
62
1
10
590.4500
20
0.1500
30
0.0
11
590.4500
21
580.4500
31
0.0
0
LINE
8
CUT
62
1
10
590.4500
20
580.4500
30
0.0
11
70.2980
21
580.4500
31
0.0
0
LINE
8
CUT
62
1
10
70.2980
20
580.4500
30
0.0
11
66.6286
21
580.3539
31
0.0
0
LINE
8
CUT
62
1
10
66.6286
20
580.3539
30
0.0
11
62.9673
21
580.0658
31
0.0
0
LINE
8
CUT
62
1
10
62.9673
20
580.0658
30
0.0
11
59.3261
21
579.5864
31
0.0
0
LINE
8
CUT
62
1
10
59.3261
20
579.5864
30
0.0
11
55.7150
21
578.9171
31
0.0
0
LINE
8
CUT
62
1
10
55.7150
20
578.9171
30
0.0
11
52.1438
21
578.0597
31
0.0
0
LINE
8
CUT
62
1
10
52.1438
20
578.0597
30
0.0
11
48.6224
21
577.0167
31
0.0
0
LINE
8
CUT
62
1
10
48.6224
20
577.0167
30
0.0
11
45.1605
21
575.7907
31
0.0
0
LINE
8
CUT
62
1
10
45.1605
20
575.7907
30
0.0
11
41.7674
21
574.3853
31
0.0
0
LINE
8
CUT
62
1
10
41.7674
20
574.3853
30
0.0
11
38.4525
21
572.8042
31
0.0
0
LINE
8
CUT
62
1
10
38.4525
20
572.8042
30
0.0
11
35.2250
21
571.0517
31
0.0
0
LINE
8
CUT
62
1
10
35.2250
20
571.0517
30
0.0
11
32.0935
21
569.1328
31
0.0
0
LINE
8
CUT
62
1
10
32.0935
20
569.1328
30
0.0
11
29.0668
21
567.0526
31
0.0
0
LINE
8
CUT
62
1
10
29.0668
20
567.0526
30
0.0
11
26.1531
21
564.8168
31
0.0
0
LINE
8
CUT
62
1
10
26.1531
20
564.8168
30
0.0
11
23.3605
21
562.4316
31
0.0
0
LINE
8
CUT
62
1
10
23.3605
20
562.4316
30
0.0
11
20.6964
21
559.9036
31
0.0
0
LINE
8
CUT
62
1
10
20.6964
20
559.9036
30
0.0
11
18.1684
21
557.2395
31
0.0
0
LINE
8
CUT
62
1
10
18.1684
20
557.2395
30
0.0
11
15.7832
21
554.4469
31
0.0
0
LINE
8
CUT
62
1
10
15.7832
20
554.4469
30
0.0
11
13.5474
21
551.5332
31
0.0
0
LINE
8
CUT
62
1
10
13.5474
20
551.5332
30
0.0
11
11.4672
21
548.5065
31
0.0
0
LINE
8
CUT
62
1
10
11.4672
20
548.5065
30
0.0
11
9.5483
21
545.3750
31
0.0
0
LINE
8
CUT
62
1
10
9.5483
20
545.3750
30
0.0
11
7.7958
21
542.1475
31
0.0
0
LINE
8
CUT
62
1
10
7.7958
20
542.1475
30
0.0
11
6.2147
21
538.8326
31
0.0
0
LINE
8
CUT
62
1
10
6.2147
20
538.8326
30
0.0
11
4.8093
21
535.4395
31
0.0
0
LINE
8
CUT
62
1
10
4.8093
20
535.4395
30
0.0
11
3.5833
21
531.9776
31
0.0
0
LINE
8
CUT
62
1
10
3.5833
20
531.9776
30
0.0
11
2.5403
21
528.4562
31
0.0
0
LINE
8
CUT
62
1
10
2.5403
20
528.4562
30
0.0
11
1.6829
21
524.8850
31
0.0
0
LINE
8
CUT
62
1
10
1.6829
20
524.8850
30
0.0
11
1.0136
21
521.2739
31
0.0
0
LINE
8
CUT
62
1
10
1.0136
20
521.2739
30
0.0
11
0.5342
21
517.6327
31
0.0
0
LINE
8
CUT
62
1
10
0.5342
20
517.6327
30
0.0
11
0.2461
21
513.9714
31
0.0
0
LINE
8
CUT
62
1
10
0.2461
20
513.9714
30
0.0
11
0.1500
21
510.3020
31
0.0
0
LINE
8
CUT
62
1
10
0.1500
20
510.3020
30
0.0
11
0.1500
21
70.2980
31
0.0
0
LINE
8
CUT
62
1
10
0.1500
20
70.2980
30
0.0
11
0.2461
21
66.6286
31
0.0
0
LINE
8
CUT
62
1
10
0.2461
20
66.6286
30
0.0
11
0.5342
21
62.9673
31
0.0
0
LINE
8
CUT
62
1
10
0.5342
20
62.9673
30
0.0
11
1.0136
21
59.3261
31
0.0
0
LINE
8
CUT
62
1
10
1.0136
20
59.3261
30
0.0
11
1.6829
21
55.7150
31
0.0
0
LINE
8
CUT
62
1
10
1.6829
20
55.7150
30
0.0
11
2.5403
21
52.1438
31
0.0
0
LINE
8
CUT
62
1
10
2.5403
20
52.1438
30
0.0
11
3.5833
21
48.6224
31
0.0
0
LINE
8
CUT
62
1
10
3.5833
20
48.6224
30
0.0
11
4.8093
21
45.1605
31
0.0
0
LINE
8
CUT
62
1
10
4.8093
20
45.1605
30
0.0
11
6.2147
21
41.7674
31
0.0
0
LINE
8
CUT
62
1
10
6.2147
20
41.7674
30
0.0
11
7.7958
21
38.4525
31
0.0
0
LINE
8
CUT
62
1
10
7.7958
20
38.4525
30
0.0
11
9.5483
21
35.2250
31
0.0
0
LINE
8
CUT
62
1
10
9.5483
20
35.2250
30
0.0
11
11.4672
21
32.0935
31
0.0
0
LINE
8
CUT
62
1
10
11.4672
20
32.0935
30
0.0
11
13.5474
21
29.0668
31
0.0
0
LINE
8
CUT
62
1
10
13.5474
20
29.0668
30
0.0
11
15.7832
21
26.1531
31
0.0
0
LINE
8
CUT
62
1
10
15.7832
20
26.1531
30
0.0
11
18.1684
21
23.3605
31
0.0
0
LINE
8
CUT
62
1
10
18.1684
20
23.3605
30
0.0
11
20.6964
21
20.6964
31
0.0
0
LINE
8
CUT
62
1
10
20.6964
20
20.6964
30
0.0
11
23.3605
21
18.1684
31
0.0
0
LINE
8
CUT
62
1
10
23.3605
20
18.1684
30
0.0
11
26.1531
21
15.7832
31
0.0
0
LINE
8
CUT
62
1
10
26.1531
20
15.7832
30
0.0
11
29.0668
21
13.5474
31
0.0
0
LINE
8
CUT
62
1
10
29.0668
20
13.5474
30
0.0
11
32.0935
21
11.4672
31
0.0
0
LINE
8
CUT
62
1
10
32.0935
20
11.4672
30
0.0
11
35.2250
21
9.5483
31
0.0
0
LINE
8
CUT
62
1
10
35.2250
20
9.5483
30
0.0
11
38.4525
21
7.7958
31
0.0
0
LINE
8
CUT
62
1
10
38.4525
20
7.7958
30
0.0
11
41.7674
21
6.2147
31
0.0
0
LINE
8
CUT
62
1
10
41.7674
20
6.2147
30
0.0
11
45.1605
21
4.8093
31
0.0
0
LINE
8
CUT
62
1
10
45.1605
20
4.8093
30
0.0
11
48.6224
21
3.5833
31
0.0
0
LINE
8
CUT
62
1
10
48.6224
20
3.5833
30
0.0
11
52.1438
21
2.5403
31
0.0
0
LINE
8
CUT
62
1
10
52.1438
20
2.5403
30
0.0
11
55.7150
21
1.6829
31
0.0
0
LINE
8
CUT
62
1
10
55.7150
20
1.6829
30
0.0
11
59.3261
21
1.0136
31
0.0
0
LINE
8
CUT
62
1
10
59.3261
20
1.0136
30
0.0
11
62.9673
21
0.5342
31
0.0
0
LINE
8
CUT
62
1
10
62.9673
20
0.5342
30
0.0
11
66.6286
21
0.2461
31
0.0
0
LINE
8
CUT
62
1
10
66.6286
20
0.2461
30
0.0
11
70.2980
21
0.1500
31
0.0
0
LINE
8
CUT
62
1
10
70.2980
20
0.1500
30
0.0
11
590.4500
21
0.1500
31
0.0
0
CIRCLE
8
CUT
62
1
10
230.9860
20
35.0500
30
0.0
40
3.8500
0
CIRCLE
8
CUT
62
1
10
282.4140
20
35.0500
30
0.0
40
3.8500
0
CIRCLE
8
CUT
62
1
10
230.9860
20
135.5500
30
0.0
40
3.8500
0
CIRCLE
8
CUT
62
1
10
282.4140
20
135.5500
30
0.0
40
3.8500
0
CIRCLE
8
CUT
62
1
10
230.9860
20
240.0500
30
0.0
40
3.8500
0
CIRCLE
8
CUT
62
1
10
282.4140
20
240.0500
30
0.0
40
3.8500
0
CIRCLE
8
CUT
62
1
10
230.9860
20
340.5500
30
0.0
40
3.8500
0
CIRCLE
8
CUT
62
1
10
282.4140
20
340.5500
30
0.0
40
3.8500
0
CIRCLE
8
CUT
62
1
10
230.9860
20
445.0500
30
0.0
40
3.8500
0
CIRCLE
8
CUT
62
1
10
282.4140
20
445.0500
30
0.0
40
3.8500
0
CIRCLE
8
CUT
62
1
10
230.9860
20
545.5500
30
0.0
40
3.8500
0
CIRCLE
8
CUT
62
1
10
282.4140
20
545.5500
30
0.0
40
3.8500
0
CIRCLE
8
CUT
62
1
10
450.9860
20
35.0500
30
0.0
40
3.8500
0
CIRCLE
8
CUT
62
1
10
502.4140
20
35.0500
30
0.0
40
3.8500
0
CIRCLE
8
CUT
62
1
10
450.9860
20
135.5500
30
0.0
40
3.8500
0
CIRCLE
8
CUT
62
1
10
502.4140
20
135.5500
30
0.0
40
3.8500
0
CIRCLE
8
CUT
62
1
10
450.9860
20
240.0500
30
0.0
40
3.8500
0
CIRCLE
8
CUT
62
1
10
502.4140
20
240.0500
30
0.0
40
3.8500
0
CIRCLE
8
CUT
62
1
10
450.9860
20
340.5500
30
0.0
40
3.8500
0
CIRCLE
8
CUT
62
1
10
502.4140
20
340.5500
30
0.0
40
3.8500
0
CIRCLE
8
CUT
62
1
10
450.9860
20
445.0500
30
0.0
40
3.8500
0
CIRCLE
8
CUT
62
1
10
502.4140
20
445.0500
30
0.0
40
3.8500
0
CIRCLE
8
CUT
62
1
10
450.9860
20
545.5500
30
0.0
40
3.8500
0
CIRCLE
8
CUT
62
1
10
502.4140
20
545.5500
30
0.0
40
3.8500
0
CIRCLE
8
CUT
62
1
10
10.3000
20
140.3000
30
0.0
40
3.1500
0
CIRCLE
8
CUT
62
1
10
10.3000
20
290.3000
30
0.0
40
3.1500
0
CIRCLE
8
CUT
62
1
10
10.3000
20
440.3000
30
0.0
40
3.1500
0
CIRCLE
8
CUT
62
1
10
110.3000
20
10.3000
30
0.0
40
3.1500
0
CIRCLE
8
CUT
62
1
10
110.3000
20
570.3000
30
0.0
40
3.1500
0
CIRCLE
8
CUT
62
1
10
367.3000
20
10.3000
30
0.0
40
3.1500
0
CIRCLE
8
CUT
62
1
10
367.3000
20
570.3000
30
0.0
40
3.1500
0
CIRCLE
8
CUT
62
1
10
570.3000
20
10.3000
30
0.0
40
3.1500
0
CIRCLE
8
CUT
62
1
10
570.3000
20
570.3000
30
0.0
40
3.1500
0
LINE
8
ENGRAVE
62
5
10
196.7000
20
2.3000
30
0.0
11
316.7000
21
2.3000
31
0.0
0
LINE
8
ENGRAVE
62
5
10
316.7000
20
2.3000
30
0.0
11
316.7000
21
185.3000
31
0.0
0
LINE
8
ENGRAVE
62
5
10
316.7000
20
185.3000
30
0.0
11
196.7000
21
185.3000
31
0.0
0
LINE
8
ENGRAVE
62
5
10
196.7000
20
185.3000
30
0.0
11
196.7000
21
2.3000
31
0.0
0
TEXT
8
ENGRAVE
62
5
10
252.7000
20
73.3000
30
0.0
40
6.0000
50
90.0000
1
r0y0
0
LINE
8
ENGRAVE
62
5
10
196.7000
20
190.3000
30
0.0
11
316.7000
21
190.3000
31
0.0
0
LINE
8
ENGRAVE
62
5
10
316.7000
20
190.3000
30
0.0
11
316.7000
21
390.3000
31
0.0
0
LINE
8
ENGRAVE
62
5
10
316.7000
20
390.3000
30
0.0
11
196.7000
21
390.3000
31
0.0
0
LINE
8
ENGRAVE
62
5
10
196.7000
20
390.3000
30
0.0
11
196.7000
21
190.3000
31
0.0
0
TEXT
8
ENGRAVE
62
5
10
252.7000
20
278.3000
30
0.0
40
6.0000
50
90.0000
1
r0y1
0
LINE
8
ENGRAVE
62
5
10
196.7000
20
395.3000
30
0.0
11
316.7000
21
395.3000
31
0.0
0
LINE
8
ENGRAVE
62
5
10
316.7000
20
395.3000
30
0.0
11
316.7000
21
578.3000
31
0.0
0
LINE
8
ENGRAVE
62
5
10
316.7000
20
578.3000
30
0.0
11
196.7000
21
578.3000
31
0.0
0
LINE
8
ENGRAVE
62
5
10
196.7000
20
578.3000
30
0.0
11
196.7000
21
395.3000
31
0.0
0
TEXT
8
ENGRAVE
62
5
10
252.7000
20
483.3000
30
0.0
40
6.0000
50
90.0000
1
r0y2
0
LINE
8
ENGRAVE
62
5
10
416.7000
20
2.3000
30
0.0
11
536.7000
21
2.3000
31
0.0
0
LINE
8
ENGRAVE
62
5
10
536.7000
20
2.3000
30
0.0
11
536.7000
21
185.3000
31
0.0
0
LINE
8
ENGRAVE
62
5
10
536.7000
20
185.3000
30
0.0
11
416.7000
21
185.3000
31
0.0
0
LINE
8
ENGRAVE
62
5
10
416.7000
20
185.3000
30
0.0
11
416.7000
21
2.3000
31
0.0
0
TEXT
8
ENGRAVE
62
5
10
472.7000
20
58.3000
30
0.0
40
6.0000
50
90.0000
1
r1y0 half
0
LINE
8
ENGRAVE
62
5
10
416.7000
20
190.3000
30
0.0
11
536.7000
21
190.3000
31
0.0
0
LINE
8
ENGRAVE
62
5
10
536.7000
20
190.3000
30
0.0
11
536.7000
21
390.3000
31
0.0
0
LINE
8
ENGRAVE
62
5
10
536.7000
20
390.3000
30
0.0
11
416.7000
21
390.3000
31
0.0
0
LINE
8
ENGRAVE
62
5
10
416.7000
20
390.3000
30
0.0
11
416.7000
21
190.3000
31
0.0
0
TEXT
8
ENGRAVE
62
5
10
472.7000
20
278.3000
30
0.0
40
6.0000
50
90.0000
1
r1y1
0
LINE
8
ENGRAVE
62
5
10
416.7000
20
395.3000
30
0.0
11
536.7000
21
395.3000
31
0.0
0
LINE
8
ENGRAVE
62
5
10
536.7000
20
395.3000
30
0.0
11
536.7000
21
578.3000
31
0.0
0
LINE
8
ENGRAVE
62
5
10
536.7000
20
578.3000
30
0.0
11
416.7000
21
578.3000
31
0.0
0
LINE
8
ENGRAVE
62
5
10
416.7000
20
578.3000
30
0.0
11
416.7000
21
395.3000
31
0.0
0
TEXT
8
ENGRAVE
62
5
10
472.7000
20
483.3000
30
0.0
40
6.0000
50
90.0000
1
r1y2
0
LINE
8
ENGRAVE
62
5
10
15.3000
20
290.3000
30
0.0
11
575.3000
21
290.3000
31
0.0
0
LINE
8
ENGRAVE
62
5
10
575.3000
20
290.3000
30
0.0
11
560.3000
21
298.3000
31
0.0
0
LINE
8
ENGRAVE
62
5
10
575.3000
20
290.3000
30
0.0
11
560.3000
21
282.3000
31
0.0
0
TEXT
8
ENGRAVE
62
5
10
555.3000
20
190.3000
30
0.0
40
7.0000
50
90.0000
1
FRONT
0
TEXT
8
ENGRAVE
62
5
10
20.3000
20
90.3000
30
0.0
40
5.0000
50
90.0000
1
ARES deck plate - UR axis 320 mm ahead of the front edge
0
ENDSEC
0
EOF
