0
SECTION
2
HEADER
9
$ACADVER
1
AC1009
0
ENDSEC
0
SECTION
2
TABLES
0
TABLE
2
LAYER
70
2
0
LAYER
2
CUT
70
0
62
1
6
CONTINUOUS
0
LAYER
2
ENGRAVE
70
0
62
5
6
CONTINUOUS
0
ENDTAB
0
ENDSEC
0
SECTION
2
ENTITIES
0
LINE
8
CUT
62
1
10
23.4500
20
0.1500
30
0.0
11
23.4500
21
92.1500
31
0.0
0
LINE
8
CUT
62
1
10
23.4500
20
92.1500
30
0.0
11
207.1500
21
92.1500
31
0.0
0
LINE
8
CUT
62
1
10
207.1500
20
92.1500
30
0.0
11
207.1500
21
0.1500
31
0.0
0
LINE
8
CUT
62
1
10
207.1500
20
0.1500
30
0.0
11
315.4500
21
0.1500
31
0.0
0
LINE
8
CUT
62
1
10
315.4500
20
0.1500
30
0.0
11
315.4500
21
220.3020
31
0.0
0
LINE
8
CUT
62
1
10
315.4500
20
220.3020
30
0.0
11
315.3402
21
224.4947
31
0.0
0
LINE
8
CUT
62
1
10
315.3402
20
224.4947
30
0.0
11
315.0110
21
228.6780
31
0.0
0
LINE
8
CUT
62
1
10
315.0110
20
228.6780
30
0.0
11
314.4633
21
232.8382
31
0.0
0
LINE
8
CUT
62
1
10
314.4633
20
232.8382
30
0.0
11
313.6986
21
236.9641
31
0.0
0
LINE
8
CUT
62
1
10
313.6986
20
236.9641
30
0.0
11
312.7190
21
241.0444
31
0.0
0
LINE
8
CUT
62
1
10
312.7190
20
241.0444
30
0.0
11
311.5272
21
245.0677
31
0.0
0
LINE
8
CUT
62
1
10
311.5272
20
245.0677
30
0.0
11
310.1265
21
249.0232
31
0.0
0
LINE
8
CUT
62
1
10
310.1265
20
249.0232
30
0.0
11
308.5207
21
252.9000
31
0.0
0
LINE
8
CUT
62
1
10
308.5207
20
252.9000
30
0.0
11
306.7142
21
256.6874
31
0.0
0
LINE
8
CUT
62
1
10
306.7142
20
256.6874
30
0.0
11
304.7120
21
260.3750
31
0.0
0
LINE
8
CUT
62
1
10
304.7120
20
260.3750
30
0.0
11
302.5195
21
263.9528
31
0.0
0
LINE
8
CUT
62
1
10
302.5195
20
263.9528
30
0.0
11
300.1428
21
267.4110
31
0.0
0
LINE
8
CUT
62
1
10
300.1428
20
267.4110
30
0.0
11
297.5883
21
270.7401
31
0.0
0
LINE
8
CUT
62
1
10
297.5883
20
270.7401
30
0.0
11
294.8631
21
273.9309
31
0.0
0
LINE
8
CUT
62
1
10
294.8631
20
273.9309
30
0.0
11
291.9746
21
276.9746
31
0.0
0
LINE
8
CUT
62
1
10
291.9746
20
276.9746
30
0.0
11
288.9309
21
279.8631
31
0.0
0
LINE
8
CUT
62
1
10
288.9309
20
279.8631
30
0.0
11
285.7401
21
282.5883
31
0.0
0
LINE
8
CUT
62
1
10
285.7401
20
282.5883
30
0.0
11
282.4110
21
285.1428
31
0.0
0
LINE
8
CUT
62
1
10
282.4110
20
285.1428
30
0.0
11
278.9528
21
287.5195
31
0.0
0
LINE
8
CUT
62
1
10
278.9528
20
287.5195
30
0.0
11
275.3750
21
289.7120
31
0.0
0
LINE
8
CUT
62
1
10
275.3750
20
289.7120
30
0.0
11
271.6874
21
291.7142
31
0.0
0
LINE
8
CUT
62
1
10
271.6874
20
291.7142
30
0.0
11
267.9000
21
293.5207
31
0.0
0
LINE
8
CUT
62
1
10
267.9000
20
293.5207
30
0.0
11
264.0232
21
295.1265
31
0.0
0
LINE
8
CUT
62
1
10
264.0232
20
295.1265
30
0.0
11
260.0677
21
296.5272
31
0.0
0
LINE
8
CUT
62
1
10
260.0677
20
296.5272
30
0.0
11
256.0444
21
297.7190
31
0.0
0
LINE
8
CUT
62
1
10
256.0444
20
297.7190
30
0.0
11
251.9641
21
298.6986
31
0.0
0
LINE
8
CUT
62
1
10
251.9641
20
298.6986
30
0.0
11
247.8382
21
299.4633
31
0.0
0
LINE
8
CUT
62
1
10
247.8382
20
299.4633
30
0.0
11
243.6780
21
300.0110
31
0.0
0
LINE
8
CUT
62
1
10
243.6780
20
300.0110
30
0.0
11
239.4947
21
300.3402
31
0.0
0
LINE
8
CUT
62
1
10
239.4947
20
300.3402
30
0.0
11
235.3020
21
300.4500
31
0.0
0
LINE
8
CUT
62
1
10
235.3020
20
300.4500
30
0.0
11
0.1500
21
300.4500
31
0.0
0
LINE
8
CUT
62
1
10
0.1500
20
300.4500
30
0.0
11
0.1500
21
0.1500
31
0.0
0
LINE
8
CUT
62
1
10
0.1500
20
0.1500
30
0.0
11
23.4500
21
0.1500
31
0.0
0
CIRCLE
8
CUT
62
1
10
295.3000
20
150.3000
30
0.0
40
3.1500
0
CIRCLE
8
CUT
62
1
10
25.3000
20
280.3000
30
0.0
40
3.1500
0
CIRCLE
8
CUT
62
1
10
195.3000
20
280.3000
30
0.0
40
3.1500
0
TEXT
8
ENGRAVE
62
5
10
30.3000
20
110.3000
30
0.0
40
6.0000
50
90.0000
1
LEFT - FRONT ->
0
ENDSEC
0
EOF
