0
SECTION
2
HEADER
9
$ACADVER
1
AC1009
0
ENDSEC
0
SECTION
2
TABLES
0
TABLE
2
LAYER
70
2
0
LAYER
2
CUT
70
0
62
1
6
CONTINUOUS
0
LAYER
2
ENGRAVE
70
0
62
5
6
CONTINUOUS
0
ENDTAB
0
ENDSEC
0
SECTION
2
ENTITIES
0
LINE
8
CUT
62
1
10
0.1500
20
0.1500
30
0.0
11
440.4500
21
0.1500
31
0.0
0
LINE
8
CUT
62
1
10
440.4500
20
0.1500
30
0.0
11
440.4500
21
40.4500
31
0.0
0
LINE
8
CUT
62
1
10
440.4500
20
40.4500
30
0.0
11
420.4500
21
40.4500
31
0.0
0
LINE
8
CUT
62
1
10
420.4500
20
40.4500
30
0.0
11
420.4500
21
560.1500
31
0.0
0
LINE
8
CUT
62
1
10
420.4500
20
560.1500
30
0.0
11
440.4500
21
560.1500
31
0.0
0
LINE
8
CUT
62
1
10
440.4500
20
560.1500
30
0.0
11
440.4500
21
600.4500
31
0.0
0
LINE
8
CUT
62
1
10
440.4500
20
600.4500
30
0.0
11
0.1500
21
600.4500
31
0.0
0
LINE
8
CUT
62
1
10
0.1500
20
600.4500
30
0.0
11
0.1500
21
462.1073
31
0.0
0
LINE
8
CUT
62
1
10
0.1500
20
462.1073
30
0.0
11
12.1500
21
468.1073
31
0.0
0
LINE
8
CUT
62
1
10
12.1500
20
468.1073
30
0.0
11
12.1500
21
432.4927
31
0.0
0
LINE
8
CUT
62
1
10
12.1500
20
432.4927
30
0.0
11
0.1500
21
438.4927
31
0.0
0
LINE
8
CUT
62
1
10
0.1500
20
438.4927
30
0.0
11
0.1500
21
162.1073
31
0.0
0
LINE
8
CUT
62
1
10
0.1500
20
162.1073
30
0.0
11
12.1500
21
168.1073
31
0.0
0
LINE
8
CUT
62
1
10
12.1500
20
168.1073
30
0.0
11
12.1500
21
132.4927
31
0.0
0
LINE
8
CUT
62
1
10
12.1500
20
132.4927
30
0.0
11
0.1500
21
138.4927
31
0.0
0
LINE
8
CUT
62
1
10
0.1500
20
138.4927
30
0.0
11
0.1500
21
0.1500
31
0.0
0
CIRCLE
8
CUT
62
1
10
80.9860
20
45.0500
30
0.0
40
3.8500
0
CIRCLE
8
CUT
62
1
10
132.4140
20
45.0500
30
0.0
40
3.8500
0
CIRCLE
8
CUT
62
1
10
80.9860
20
145.5500
30
0.0
40
3.8500
0
CIRCLE
8
CUT
62
1
10
132.4140
20
145.5500
30
0.0
40
3.8500
0
CIRCLE
8
CUT
62
1
10
80.9860
20
250.0500
30
0.0
40
3.8500
0
CIRCLE
8
CUT
62
1
10
132.4140
20
250.0500
30
0.0
40
3.8500
0
CIRCLE
8
CUT
62
1
10
80.9860
20
350.5500
30
0.0
40
3.8500
0
CIRCLE
8
CUT
62
1
10
132.4140
20
350.5500
30
0.0
40
3.8500
0
CIRCLE
8
CUT
62
1
10
80.9860
20
455.0500
30
0.0
40
3.8500
0
CIRCLE
8
CUT
62
1
10
132.4140
20
455.0500
30
0.0
40
3.8500
0
CIRCLE
8
CUT
62
1
10
80.9860
20
555.5500
30
0.0
40
3.8500
0
CIRCLE
8
CUT
62
1
10
132.4140
20
555.5500
30
0.0
40
3.8500
0
CIRCLE
8
CUT
62
1
10
300.9860
20
45.0500
30
0.0
40
3.8500
0
CIRCLE
8
CUT
62
1
10
352.4140
20
45.0500
30
0.0
40
3.8500
0
CIRCLE
8
CUT
62
1
10
300.9860
20
145.5500
30
0.0
40
3.8500
0
CIRCLE
8
CUT
62
1
10
352.4140
20
145.5500
30
0.0
40
3.8500
0
CIRCLE
8
CUT
62
1
10
300.9860
20
250.0500
30
0.0
40
3.8500
0
CIRCLE
8
CUT
62
1
10
352.4140
20
250.0500
30
0.0
40
3.8500
0
CIRCLE
8
CUT
62
1
10
300.9860
20
350.5500
30
0.0
40
3.8500
0
CIRCLE
8
CUT
62
1
10
352.4140
20
350.5500
30
0.0
40
3.8500
0
CIRCLE
8
CUT
62
1
10
300.9860
20
455.0500
30
0.0
40
3.8500
0
CIRCLE
8
CUT
62
1
10
352.4140
20
455.0500
30
0.0
40
3.8500
0
CIRCLE
8
CUT
62
1
10
300.9860
20
555.5500
30
0.0
40
3.8500
0
CIRCLE
8
CUT
62
1
10
352.4140
20
555.5500
30
0.0
40
3.8500
0
CIRCLE
8
CUT
62
1
10
20.3000
20
20.3000
30
0.0
40
3.1500
0
CIRCLE
8
CUT
62
1
10
20.3000
20
580.3000
30
0.0
40
3.1500
0
CIRCLE
8
CUT
62
1
10
217.3000
20
20.3000
30
0.0
40
3.1500
0
CIRCLE
8
CUT
62
1
10
217.3000
20
580.3000
30
0.0
40
3.1500
0
CIRCLE
8
CUT
62
1
10
420.3000
20
20.3000
30
0.0
40
3.1500
0
CIRCLE
8
CUT
62
1
10
420.3000
20
580.3000
30
0.0
40
3.1500
0
LINE
8
ENGRAVE
62
5
10
46.7000
20
2.3000
30
0.0
11
166.7000
21
2.3000
31
0.0
0
LINE
8
ENGRAVE
62
5
10
166.7000
20
2.3000
30
0.0
11
166.7000
21
195.3000
31
0.0
0
LINE
8
ENGRAVE
62
5
10
166.7000
20
195.3000
30
0.0
11
46.7000
21
195.3000
31
0.0
0
LINE
8
ENGRAVE
62
5
10
46.7000
20
195.3000
30
0.0
11
46.7000
21
2.3000
31
0.0
0
TEXT
8
ENGRAVE
62
5
10
102.7000
20
83.3000
30
0.0
40
6.0000
50
90.0000
1
r0y0
0
LINE
8
ENGRAVE
62
5
10
46.7000
20
200.3000
30
0.0
11
166.7000
21
200.3000
31
0.0
0
LINE
8
ENGRAVE
62
5
10
166.7000
20
200.3000
30
0.0
11
166.7000
21
400.3000
31
0.0
0
LINE
8
ENGRAVE
62
5
10
166.7000
20
400.3000
30
0.0
11
46.7000
21
400.3000
31
0.0
0
LINE
8
ENGRAVE
62
5
10
46.7000
20
400.3000
30
0.0
11
46.7000
21
200.3000
31
0.0
0
TEXT
8
ENGRAVE
62
5
10
102.7000
20
288.3000
30
0.0
40
6.0000
50
90.0000
1
r0y1
0
LINE
8
ENGRAVE
62
5
10
46.7000
20
405.3000
30
0.0
11
166.7000
21
405.3000
31
0.0
0
LINE
8
ENGRAVE
62
5
10
166.7000
20
405.3000
30
0.0
11
166.7000
21
598.3000
31
0.0
0
LINE
8
ENGRAVE
62
5
10
166.7000
20
598.3000
30
0.0
11
46.7000
21
598.3000
31
0.0
0
LINE
8
ENGRAVE
62
5
10
46.7000
20
598.3000
30
0.0
11
46.7000
21
405.3000
31
0.0
0
TEXT
8
ENGRAVE
62
5
10
102.7000
20
493.3000
30
0.0
40
6.0000
50
90.0000
1
r0y2
0
LINE
8
ENGRAVE
62
5
10
266.7000
20
2.3000
30
0.0
11
386.7000
21
2.3000
31
0.0
0
LINE
8
ENGRAVE
62
5
10
386.7000
20
2.3000
30
0.0
11
386.7000
21
195.3000
31
0.0
0
LINE
8
ENGRAVE
62
5
10
386.7000
20
195.3000
30
0.0
11
266.7000
21
195.3000
31
0.0
0
LINE
8
ENGRAVE
62
5
10
266.7000
20
195.3000
30
0.0
11
266.7000
21
2.3000
31
0.0
0
TEXT
8
ENGRAVE
62
5
10
322.7000
20
68.3000
30
0.0
40
6.0000
50
90.0000
1
r1y0 half
0
LINE
8
ENGRAVE
62
5
10
266.7000
20
200.3000
30
0.0
11
386.7000
21
200.3000
31
0.0
0
LINE
8
ENGRAVE
62
5
10
386.7000
20
200.3000
30
0.0
11
386.7000
21
400.3000
31
0.0
0
LINE
8
ENGRAVE
62
5
10
386.7000
20
400.3000
30
0.0
11
266.7000
21
400.3000
31
0.0
0
LINE
8
ENGRAVE
62
5
10
266.7000
20
400.3000
30
0.0
11
266.7000
21
200.3000
31
0.0
0
TEXT
8
ENGRAVE
62
5
10
322.7000
20
288.3000
30
0.0
40
6.0000
50
90.0000
1
r1y1
0
LINE
8
ENGRAVE
62
5
10
266.7000
20
405.3000
30
0.0
11
386.7000
21
405.3000
31
0.0
0
LINE
8
ENGRAVE
62
5
10
386.7000
20
405.3000
30
0.0
11
386.7000
21
598.3000
31
0.0
0
LINE
8
ENGRAVE
62
5
10
386.7000
20
598.3000
30
0.0
11
266.7000
21
598.3000
31
0.0
0
LINE
8
ENGRAVE
62
5
10
266.7000
20
598.3000
30
0.0
11
266.7000
21
405.3000
31
0.0
0
TEXT
8
ENGRAVE
62
5
10
322.7000
20
493.3000
30
0.0
40
6.0000
50
90.0000
1
r1y2
0
LINE
8
ENGRAVE
62
5
10
30.3000
20
300.3000
30
0.0
11
183.7000
21
300.3000
31
0.0
0
LINE
8
ENGRAVE
62
5
10
249.7000
20
300.3000
30
0.0
11
405.3000
21
300.3000
31
0.0
0
LINE
8
ENGRAVE
62
5
10
405.3000
20
300.3000
30
0.0
11
390.3000
21
308.3000
31
0.0
0
LINE
8
ENGRAVE
62
5
10
405.3000
20
300.3000
30
0.0
11
390.3000
21
292.3000
31
0.0
0
TEXT
8
ENGRAVE
62
5
10
385.3000
20
200.3000
30
0.0
40
7.0000
50
90.0000
1
FRONT
0
TEXT
8
ENGRAVE
62
5
10
25.3000
20
70.3000
30
0.0
40
5.0000
50
90.0000
1
ARES deck - magazine - UR axis 320 mm ahead of the front edge
0
TEXT
8
ENGRAVE
62
5
10
241.7000
20
204.3000
30
0.0
40
50.0000
50
90.0000
1
ARES
0
TEXT
8
ENGRAVE
62
5
10
223.7000
20
107.4200
30
0.0
40
14.0000
50
90.0000
1
HSLU
0
TEXT
8
ENGRAVE
62
5
10
223.7000
20
439.4200
30
0.0
40
14.0000
50
90.0000
1
HSLU
0
ENDSEC
0
EOF
