0
SECTION
2
HEADER
9
$ACADVER
1
AC1009
0
ENDSEC
0
SECTION
2
TABLES
0
TABLE
2
LAYER
70
2
0
LAYER
2
CUT
70
0
62
1
6
CONTINUOUS
0
LAYER
2
ENGRAVE
70
0
62
5
6
CONTINUOUS
0
ENDTAB
0
ENDSEC
0
SECTION
2
ENTITIES
0
LINE
8
CUT
62
1
10
160.4500
20
0.1500
30
0.0
11
160.4500
21
138.0573
31
0.0
0
LINE
8
CUT
62
1
10
160.4500
20
138.0573
30
0.0
11
172.4500
21
132.0573
31
0.0
0
LINE
8
CUT
62
1
10
172.4500
20
132.0573
30
0.0
11
172.4500
21
168.5427
31
0.0
0
LINE
8
CUT
62
1
10
172.4500
20
168.5427
30
0.0
11
160.4500
21
162.5427
31
0.0
0
LINE
8
CUT
62
1
10
160.4500
20
162.5427
30
0.0
11
160.4500
21
438.0573
31
0.0
0
LINE
8
CUT
62
1
10
160.4500
20
438.0573
30
0.0
11
172.4500
21
432.0573
31
0.0
0
LINE
8
CUT
62
1
10
172.4500
20
432.0573
30
0.0
11
172.4500
21
468.5427
31
0.0
0
LINE
8
CUT
62
1
10
172.4500
20
468.5427
30
0.0
11
160.4500
21
462.5427
31
0.0
0
LINE
8
CUT
62
1
10
160.4500
20
462.5427
30
0.0
11
160.4500
21
600.4500
31
0.0
0
LINE
8
CUT
62
1
10
160.4500
20
600.4500
30
0.0
11
80.2980
21
600.4500
31
0.0
0
LINE
8
CUT
62
1
10
80.2980
20
600.4500
30
0.0
11
76.1053
21
600.3402
31
0.0
0
LINE
8
CUT
62
1
10
76.1053
20
600.3402
30
0.0
11
71.9220
21
600.0110
31
0.0
0
LINE
8
CUT
62
1
10
71.9220
20
600.0110
30
0.0
11
67.7618
21
599.4633
31
0.0
0
LINE
8
CUT
62
1
10
67.7618
20
599.4633
30
0.0
11
63.6359
21
598.6986
31
0.0
0
LINE
8
CUT
62
1
10
63.6359
20
598.6986
30
0.0
11
59.5556
21
597.7190
31
0.0
0
LINE
8
CUT
62
1
10
59.5556
20
597.7190
30
0.0
11
55.5323
21
596.5272
31
0.0
0
LINE
8
CUT
62
1
10
55.5323
20
596.5272
30
0.0
11
51.5768
21
595.1265
31
0.0
0
LINE
8
CUT
62
1
10
51.5768
20
595.1265
30
0.0
11
47.7000
21
593.5207
31
0.0
0
LINE
8
CUT
62
1
10
47.7000
20
593.5207
30
0.0
11
43.9126
21
591.7142
31
0.0
0
LINE
8
CUT
62
1
10
43.9126
20
591.7142
30
0.0
11
40.2250
21
589.7120
31
0.0
0
LINE
8
CUT
62
1
10
40.2250
20
589.7120
30
0.0
11
36.6472
21
587.5195
31
0.0
0
LINE
8
CUT
62
1
10
36.6472
20
587.5195
30
0.0
11
33.1890
21
585.1428
31
0.0
0
LINE
8
CUT
62
1
10
33.1890
20
585.1428
30
0.0
11
29.8599
21
582.5883
31
0.0
0
LINE
8
CUT
62
1
10
29.8599
20
582.5883
30
0.0
11
26.6691
21
579.8631
31
0.0
0
LINE
8
CUT
62
1
10
26.6691
20
579.8631
30
0.0
11
23.6254
21
576.9746
31
0.0
0
LINE
8
CUT
62
1
10
23.6254
20
576.9746
30
0.0
11
20.7369
21
573.9309
31
0.0
0
LINE
8
CUT
62
1
10
20.7369
20
573.9309
30
0.0
11
18.0117
21
570.7401
31
0.0
0
LINE
8
CUT
62
1
10
18.0117
20
570.7401
30
0.0
11
15.4572
21
567.4110
31
0.0
0
LINE
8
CUT
62
1
10
15.4572
20
567.4110
30
0.0
11
13.0805
21
563.9528
31
0.0
0
LINE
8
CUT
62
1
10
13.0805
20
563.9528
30
0.0
11
10.8880
21
560.3750
31
0.0
0
LINE
8
CUT
62
1
10
10.8880
20
560.3750
30
0.0
11
8.8858
21
556.6874
31
0.0
0
LINE
8
CUT
62
1
10
8.8858
20
556.6874
30
0.0
11
7.0793
21
552.9000
31
0.0
0
LINE
8
CUT
62
1
10
7.0793
20
552.9000
30
0.0
11
5.4735
21
549.0232
31
0.0
0
LINE
8
CUT
62
1
10
5.4735
20
549.0232
30
0.0
11
4.0728
21
545.0677
31
0.0
0
LINE
8
CUT
62
1
10
4.0728
20
545.0677
30
0.0
11
2.8810
21
541.0444
31
0.0
0
LINE
8
CUT
62
1
10
2.8810
20
541.0444
30
0.0
11
1.9014
21
536.9641
31
0.0
0
LINE
8
CUT
62
1
10
1.9014
20
536.9641
30
0.0
11
1.1367
21
532.8382
31
0.0
0
LINE
8
CUT
62
1
10
1.1367
20
532.8382
30
0.0
11
0.5890
21
528.6780
31
0.0
0
LINE
8
CUT
62
1
10
0.5890
20
528.6780
30
0.0
11
0.2598
21
524.4947
31
0.0
0
LINE
8
CUT
62
1
10
0.2598
20
524.4947
30
0.0
11
0.1500
21
520.3020
31
0.0
0
LINE
8
CUT
62
1
10
0.1500
20
520.3020
30
0.0
11
0.1500
21
80.2980
31
0.0
0
LINE
8
CUT
62
1
10
0.1500
20
80.2980
30
0.0
11
0.2598
21
76.1053
31
0.0
0
LINE
8
CUT
62
1
10
0.2598
20
76.1053
30
0.0
11
0.5890
21
71.9220
31
0.0
0
LINE
8
CUT
62
1
10
0.5890
20
71.9220
30
0.0
11
1.1367
21
67.7618
31
0.0
0
LINE
8
CUT
62
1
10
1.1367
20
67.7618
30
0.0
11
1.9014
21
63.6359
31
0.0
0
LINE
8
CUT
62
1
10
1.9014
20
63.6359
30
0.0
11
2.8810
21
59.5556
31
0.0
0
LINE
8
CUT
62
1
10
2.8810
20
59.5556
30
0.0
11
4.0728
21
55.5323
31
0.0
0
LINE
8
CUT
62
1
10
4.0728
20
55.5323
30
0.0
11
5.4735
21
51.5768
31
0.0
0
LINE
8
CUT
62
1
10
5.4735
20
51.5768
30
0.0
11
7.0793
21
47.7000
31
0.0
0
LINE
8
CUT
62
1
10
7.0793
20
47.7000
30
0.0
11
8.8858
21
43.9126
31
0.0
0
LINE
8
CUT
62
1
10
8.8858
20
43.9126
30
0.0
11
10.8880
21
40.2250
31
0.0
0
LINE
8
CUT
62
1
10
10.8880
20
40.2250
30
0.0
11
13.0805
21
36.6472
31
0.0
0
LINE
8
CUT
62
1
10
13.0805
20
36.6472
30
0.0
11
15.4572
21
33.1890
31
0.0
0
LINE
8
CUT
62
1
10
15.4572
20
33.1890
30
0.0
11
18.0117
21
29.8599
31
0.0
0
LINE
8
CUT
62
1
10
18.0117
20
29.8599
30
0.0
11
20.7369
21
26.6691
31
0.0
0
LINE
8
CUT
62
1
10
20.7369
20
26.6691
30
0.0
11
23.6254
21
23.6254
31
0.0
0
LINE
8
CUT
62
1
10
23.6254
20
23.6254
30
0.0
11
26.6691
21
20.7369
31
0.0
0
LINE
8
CUT
62
1
10
26.6691
20
20.7369
30
0.0
11
29.8599
21
18.0117
31
0.0
0
LINE
8
CUT
62
1
10
29.8599
20
18.0117
30
0.0
11
33.1890
21
15.4572
31
0.0
0
LINE
8
CUT
62
1
10
33.1890
20
15.4572
30
0.0
11
36.6472
21
13.0805
31
0.0
0
LINE
8
CUT
62
1
10
36.6472
20
13.0805
30
0.0
11
40.2250
21
10.8880
31
0.0
0
LINE
8
CUT
62
1
10
40.2250
20
10.8880
30
0.0
11
43.9126
21
8.8858
31
0.0
0
LINE
8
CUT
62
1
10
43.9126
20
8.8858
30
0.0
11
47.7000
21
7.0793
31
0.0
0
LINE
8
CUT
62
1
10
47.7000
20
7.0793
30
0.0
11
51.5768
21
5.4735
31
0.0
0
LINE
8
CUT
62
1
10
51.5768
20
5.4735
30
0.0
11
55.5323
21
4.0728
31
0.0
0
LINE
8
CUT
62
1
10
55.5323
20
4.0728
30
0.0
11
59.5556
21
2.8810
31
0.0
0
LINE
8
CUT
62
1
10
59.5556
20
2.8810
30
0.0
11
63.6359
21
1.9014
31
0.0
0
LINE
8
CUT
62
1
10
63.6359
20
1.9014
30
0.0
11
67.7618
21
1.1367
31
0.0
0
LINE
8
CUT
62
1
10
67.7618
20
1.1367
30
0.0
11
71.9220
21
0.5890
31
0.0
0
LINE
8
CUT
62
1
10
71.9220
20
0.5890
30
0.0
11
76.1053
21
0.2598
31
0.0
0
LINE
8
CUT
62
1
10
76.1053
20
0.2598
30
0.0
11
80.2980
21
0.1500
31
0.0
0
LINE
8
CUT
62
1
10
80.2980
20
0.1500
30
0.0
11
160.4500
21
0.1500
31
0.0
0
CIRCLE
8
CUT
62
1
10
140.3000
20
20.3000
30
0.0
40
3.1500
0
CIRCLE
8
CUT
62
1
10
140.3000
20
580.3000
30
0.0
40
3.1500
0
CIRCLE
8
CUT
62
1
10
20.3000
20
150.3000
30
0.0
40
3.1500
0
CIRCLE
8
CUT
62
1
10
20.3000
20
300.3000
30
0.0
40
3.1500
0
CIRCLE
8
CUT
62
1
10
20.3000
20
450.3000
30
0.0
40
3.1500
0
LINE
8
ENGRAVE
62
5
10
40.3000
20
300.3000
30
0.0
11
145.3000
21
300.3000
31
0.0
0
ENDSEC
0
EOF
