0
SECTION
2
HEADER
9
$ACADVER
1
AC1009
0
ENDSEC
0
SECTION
2
TABLES
0
TABLE
2
LAYER
70
2
0
LAYER
2
CUT
70
0
62
1
6
CONTINUOUS
0
LAYER
2
ENGRAVE
70
0
62
5
6
CONTINUOUS
0
LAYER
2
SHEET
70
0
62
3
6
CONTINUOUS
0
ENDTAB
0
ENDSEC
0
SECTION
2
ENTITIES
0
LINE
8
SHEET
62
3
10
0.0000
20
0.0000
30
0.0
11
800.0000
21
0.0000
31
0.0
0
LINE
8
SHEET
62
3
10
800.0000
20
0.0000
30
0.0
11
800.0000
21
600.0000
31
0.0
0
LINE
8
SHEET
62
3
10
800.0000
20
600.0000
30
0.0
11
0.0000
21
600.0000
31
0.0
0
LINE
8
SHEET
62
3
10
0.0000
20
600.0000
30
0.0
11
0.0000
21
0.0000
31
0.0
0
TEXT
8
SHEET
62
3
10
2.0000
20
594.0000
30
0.0
40
4.0000
1
ARES_Mauer guides A5/B9/C5 sheet 3/5 - CUT lines kerf-compensated for 0.3 mm
0
LINE
8
CUT
62
1
10
21.8500
20
9.8500
30
0.0
11
524.8400
21
9.8500
31
0.0
0
LINE
8
CUT
62
1
10
524.8400
20
9.8500
30
0.0
11
524.8400
21
430.1500
31
0.0
0
LINE
8
CUT
62
1
10
524.8400
20
430.1500
30
0.0
11
476.4977
21
430.1500
31
0.0
0
LINE
8
CUT
62
1
10
476.4977
20
430.1500
30
0.0
11
482.4977
21
418.1000
31
0.0
0
LINE
8
CUT
62
1
10
482.4977
20
418.1000
30
0.0
11
446.8823
21
418.1000
31
0.0
0
LINE
8
CUT
62
1
10
446.8823
20
418.1000
30
0.0
11
452.8823
21
430.1500
31
0.0
0
LINE
8
CUT
62
1
10
452.8823
20
430.1500
30
0.0
11
404.5400
21
430.1500
31
0.0
0
LINE
8
CUT
62
1
10
404.5400
20
430.1500
30
0.0
11
404.5400
21
412.8758
31
0.0
0
LINE
8
CUT
62
1
10
404.5400
20
412.8758
30
0.0
11
400.6371
21
410.0000
31
0.0
0
LINE
8
CUT
62
1
10
400.6371
20
410.0000
30
0.0
11
404.5400
21
407.1242
31
0.0
0
LINE
8
CUT
62
1
10
404.5400
20
407.1242
30
0.0
11
404.5400
21
212.8758
31
0.0
0
LINE
8
CUT
62
1
10
404.5400
20
212.8758
30
0.0
11
400.6371
21
210.0000
31
0.0
0
LINE
8
CUT
62
1
10
400.6371
20
210.0000
30
0.0
11
404.5400
21
207.1242
31
0.0
0
LINE
8
CUT
62
1
10
404.5400
20
207.1242
30
0.0
11
404.5400
21
130.1500
31
0.0
0
LINE
8
CUT
62
1
10
404.5400
20
130.1500
30
0.0
11
204.8758
21
130.1500
31
0.0
0
LINE
8
CUT
62
1
10
204.8758
20
130.1500
30
0.0
11
202.0000
21
134.0529
31
0.0
0
LINE
8
CUT
62
1
10
202.0000
20
134.0529
30
0.0
11
199.1242
21
130.1500
31
0.0
0
LINE
8
CUT
62
1
10
199.1242
20
130.1500
30
0.0
11
21.8500
21
130.1500
31
0.0
0
LINE
8
CUT
62
1
10
21.8500
20
130.1500
30
0.0
11
21.8500
21
82.2427
31
0.0
0
LINE
8
CUT
62
1
10
21.8500
20
82.2427
30
0.0
11
9.8500
21
88.2427
31
0.0
0
LINE
8
CUT
62
1
10
9.8500
20
88.2427
30
0.0
11
9.8500
21
51.7573
31
0.0
0
LINE
8
CUT
62
1
10
9.8500
20
51.7573
30
0.0
11
21.8500
21
57.7573
31
0.0
0
LINE
8
CUT
62
1
10
21.8500
20
57.7573
30
0.0
11
21.8500
21
9.8500
31
0.0
0
CIRCLE
8
CUT
62
1
10
51.7500
20
44.2860
30
0.0
40
3.8500
0
CIRCLE
8
CUT
62
1
10
152.2500
20
95.7140
30
0.0
40
3.8500
0
CIRCLE
8
CUT
62
1
10
251.7500
20
44.2860
30
0.0
40
3.8500
0
CIRCLE
8
CUT
62
1
10
352.2500
20
95.7140
30
0.0
40
3.8500
0
CIRCLE
8
CUT
62
1
10
490.4040
20
59.7500
30
0.0
40
3.8500
0
CIRCLE
8
CUT
62
1
10
438.9760
20
160.2500
30
0.0
40
3.8500
0
CIRCLE
8
CUT
62
1
10
490.4040
20
259.7500
30
0.0
40
3.8500
0
CIRCLE
8
CUT
62
1
10
438.9760
20
360.2500
30
0.0
40
3.8500
0
LINE
8
ENGRAVE
62
5
10
2.0000
20
10.0000
30
0.0
11
202.0000
21
10.0000
31
0.0
0
LINE
8
ENGRAVE
62
5
10
202.0000
20
10.0000
30
0.0
11
202.0000
21
130.0000
31
0.0
0
LINE
8
ENGRAVE
62
5
10
202.0000
20
130.0000
30
0.0
11
2.0000
21
130.0000
31
0.0
0
LINE
8
ENGRAVE
62
5
10
2.0000
20
130.0000
30
0.0
11
2.0000
21
10.0000
31
0.0
0
CIRCLE
8
ENGRAVE
62
5
10
51.7500
20
44.2860
30
0.0
40
17.7500
0
CIRCLE
8
ENGRAVE
62
5
10
152.2500
20
95.7140
30
0.0
40
17.7500
0
TEXT
8
ENGRAVE
62
5
10
96.0000
20
67.5000
30
0.0
40
5.0000
1
A3
0
LINE
8
ENGRAVE
62
5
10
202.0000
20
10.0000
30
0.0
11
402.0000
21
10.0000
31
0.0
0
LINE
8
ENGRAVE
62
5
10
402.0000
20
10.0000
30
0.0
11
402.0000
21
130.0000
31
0.0
0
LINE
8
ENGRAVE
62
5
10
402.0000
20
130.0000
30
0.0
11
202.0000
21
130.0000
31
0.0
0
LINE
8
ENGRAVE
62
5
10
202.0000
20
130.0000
30
0.0
11
202.0000
21
10.0000
31
0.0
0
CIRCLE
8
ENGRAVE
62
5
10
251.7500
20
44.2860
30
0.0
40
17.7500
0
CIRCLE
8
ENGRAVE
62
5
10
352.2500
20
95.7140
30
0.0
40
17.7500
0
TEXT
8
ENGRAVE
62
5
10
296.0000
20
67.5000
30
0.0
40
5.0000
1
A4
0
LINE
8
ENGRAVE
62
5
10
524.6900
20
10.0000
30
0.0
11
524.6900
21
210.0000
31
0.0
0
LINE
8
ENGRAVE
62
5
10
524.6900
20
210.0000
30
0.0
11
404.6900
21
210.0000
31
0.0
0
LINE
8
ENGRAVE
62
5
10
404.6900
20
210.0000
30
0.0
11
404.6900
21
10.0000
31
0.0
0
LINE
8
ENGRAVE
62
5
10
404.6900
20
10.0000
30
0.0
11
524.6900
21
10.0000
31
0.0
0
CIRCLE
8
ENGRAVE
62
5
10
490.4040
20
59.7500
30
0.0
40
17.7500
0
CIRCLE
8
ENGRAVE
62
5
10
438.9760
20
160.2500
30
0.0
40
17.7500
0
TEXT
8
ENGRAVE
62
5
10
458.6900
20
107.5000
30
0.0
40
5.0000
1
B0
0
LINE
8
ENGRAVE
62
5
10
524.6900
20
210.0000
30
0.0
11
524.6900
21
410.0000
31
0.0
0
LINE
8
ENGRAVE
62
5
10
524.6900
20
410.0000
30
0.0
11
404.6900
21
410.0000
31
0.0
0
LINE
8
ENGRAVE
62
5
10
404.6900
20
410.0000
30
0.0
11
404.6900
21
210.0000
31
0.0
0
LINE
8
ENGRAVE
62
5
10
404.6900
20
210.0000
30
0.0
11
524.6900
21
210.0000
31
0.0
0
CIRCLE
8
ENGRAVE
62
5
10
490.4040
20
259.7500
30
0.0
40
17.7500
0
CIRCLE
8
ENGRAVE
62
5
10
438.9760
20
360.2500
30
0.0
40
17.7500
0
TEXT
8
ENGRAVE
62
5
10
458.6900
20
307.5000
30
0.0
40
5.0000
1
B1
0
TEXT
8
ENGRAVE
62
5
10
102.0000
20
121.0000
30
0.0
40
5.0000
1
plate W1 ->
0
TEXT
8
ENGRAVE
62
5
10
413.6900
20
310.0000
30
0.0
40
5.0000
1
plate W2 ->
0
TEXT
8
ENGRAVE
62
5
10
28.0000
20
14.0000
30
0.0
40
6.0000
1
A3-B1 (corner A/B (B runs through))
0
LINE
8
CUT
62
1
10
9.8500
20
435.8500
30
0.0
11
630.1500
21
435.8500
31
0.0
0
LINE
8
CUT
62
1
10
630.1500
20
435.8500
30
0.0
11
630.1500
21
484.1923
31
0.0
0
LINE
8
CUT
62
1
10
630.1500
20
484.1923
30
0.0
11
618.1000
21
478.1923
31
0.0
0
LINE
8
CUT
62
1
10
618.1000
20
478.1923
30
0.0
11
618.1000
21
513.8077
31
0.0
0
LINE
8
CUT
62
1
10
618.1000
20
513.8077
30
0.0
11
630.1500
21
507.8077
31
0.0
0
LINE
8
CUT
62
1
10
630.1500
20
507.8077
30
0.0
11
630.1500
21
556.1500
31
0.0
0
LINE
8
CUT
62
1
10
630.1500
20
556.1500
30
0.0
11
612.8758
21
556.1500
31
0.0
0
LINE
8
CUT
62
1
10
612.8758
20
556.1500
30
0.0
11
610.0000
21
560.0529
31
0.0
0
LINE
8
CUT
62
1
10
610.0000
20
560.0529
30
0.0
11
607.1242
21
556.1500
31
0.0
0
LINE
8
CUT
62
1
10
607.1242
20
556.1500
30
0.0
11
412.8758
21
556.1500
31
0.0
0
LINE
8
CUT
62
1
10
412.8758
20
556.1500
30
0.0
11
410.0000
21
560.0529
31
0.0
0
LINE
8
CUT
62
1
10
410.0000
20
560.0529
30
0.0
11
407.1242
21
556.1500
31
0.0
0
LINE
8
CUT
62
1
10
407.1242
20
556.1500
30
0.0
11
212.8758
21
556.1500
31
0.0
0
LINE
8
CUT
62
1
10
212.8758
20
556.1500
30
0.0
11
210.0000
21
560.0529
31
0.0
0
LINE
8
CUT
62
1
10
210.0000
20
560.0529
30
0.0
11
207.1242
21
556.1500
31
0.0
0
LINE
8
CUT
62
1
10
207.1242
20
556.1500
30
0.0
11
9.8500
21
556.1500
31
0.0
0
LINE
8
CUT
62
1
10
9.8500
20
556.1500
30
0.0
11
9.8500
21
435.8500
31
0.0
0
CIRCLE
8
CUT
62
1
10
59.7500
20
470.2860
30
0.0
40
3.8500
0
CIRCLE
8
CUT
62
1
10
160.2500
20
521.7140
30
0.0
40
3.8500
0
CIRCLE
8
CUT
62
1
10
259.7500
20
470.2860
30
0.0
40
3.8500
0
CIRCLE
8
CUT
62
1
10
360.2500
20
521.7140
30
0.0
40
3.8500
0
CIRCLE
8
CUT
62
1
10
459.7500
20
470.2860
30
0.0
40
3.8500
0
CIRCLE
8
CUT
62
1
10
560.2500
20
521.7140
30
0.0
40
3.8500
0
LINE
8
ENGRAVE
62
5
10
10.0000
20
436.0000
30
0.0
11
210.0000
21
436.0000
31
0.0
0
LINE
8
ENGRAVE
62
5
10
210.0000
20
436.0000
30
0.0
11
210.0000
21
556.0000
31
0.0
0
LINE
8
ENGRAVE
62
5
10
210.0000
20
556.0000
30
0.0
11
10.0000
21
556.0000
31
0.0
0
LINE
8
ENGRAVE
62
5
10
10.0000
20
556.0000
30
0.0
11
10.0000
21
436.0000
31
0.0
0
CIRCLE
8
ENGRAVE
62
5
10
59.7500
20
470.2860
30
0.0
40
17.7500
0
CIRCLE
8
ENGRAVE
62
5
10
160.2500
20
521.7140
30
0.0
40
17.7500
0
TEXT
8
ENGRAVE
62
5
10
104.0000
20
493.5000
30
0.0
40
5.0000
1
A0
0
LINE
8
ENGRAVE
62
5
10
210.0000
20
436.0000
30
0.0
11
410.0000
21
436.0000
31
0.0
0
LINE
8
ENGRAVE
62
5
10
410.0000
20
436.0000
30
0.0
11
410.0000
21
556.0000
31
0.0
0
LINE
8
ENGRAVE
62
5
10
410.0000
20
556.0000
30
0.0
11
210.0000
21
556.0000
31
0.0
0
LINE
8
ENGRAVE
62
5
10
210.0000
20
556.0000
30
0.0
11
210.0000
21
436.0000
31
0.0
0
CIRCLE
8
ENGRAVE
62
5
10
259.7500
20
470.2860
30
0.0
40
17.7500
0
CIRCLE
8
ENGRAVE
62
5
10
360.2500
20
521.7140
30
0.0
40
17.7500
0
TEXT
8
ENGRAVE
62
5
10
304.0000
20
493.5000
30
0.0
40
5.0000
1
A1
0
LINE
8
ENGRAVE
62
5
10
410.0000
20
436.0000
30
0.0
11
610.0000
21
436.0000
31
0.0
0
LINE
8
ENGRAVE
62
5
10
610.0000
20
436.0000
30
0.0
11
610.0000
21
556.0000
31
0.0
0
LINE
8
ENGRAVE
62
5
10
610.0000
20
556.0000
30
0.0
11
410.0000
21
556.0000
31
0.0
0
LINE
8
ENGRAVE
62
5
10
410.0000
20
556.0000
30
0.0
11
410.0000
21
436.0000
31
0.0
0
CIRCLE
8
ENGRAVE
62
5
10
459.7500
20
470.2860
30
0.0
40
17.7500
0
CIRCLE
8
ENGRAVE
62
5
10
560.2500
20
521.7140
30
0.0
40
17.7500
0
TEXT
8
ENGRAVE
62
5
10
504.0000
20
493.5000
30
0.0
40
5.0000
1
A2
0
TEXT
8
ENGRAVE
62
5
10
110.0000
20
547.0000
30
0.0
40
5.0000
1
plate W0 ->
0
TEXT
8
ENGRAVE
62
5
10
36.0000
20
440.0000
30
0.0
40
6.0000
1
A0-A2
0
LINE
8
CUT
62
1
10
654.6400
20
21.8500
30
0.0
11
654.6400
21
422.1500
31
0.0
0
LINE
8
CUT
62
1
10
654.6400
20
422.1500
30
0.0
11
606.2977
21
422.1500
31
0.0
0
LINE
8
CUT
62
1
10
606.2977
20
422.1500
30
0.0
11
612.2977
21
410.1000
31
0.0
0
LINE
8
CUT
62
1
10
612.2977
20
410.1000
30
0.0
11
576.6823
21
410.1000
31
0.0
0
LINE
8
CUT
62
1
10
576.6823
20
410.1000
30
0.0
11
582.6823
21
422.1500
31
0.0
0
LINE
8
CUT
62
1
10
582.6823
20
422.1500
30
0.0
11
534.3400
21
422.1500
31
0.0
0
LINE
8
CUT
62
1
10
534.3400
20
422.1500
30
0.0
11
534.3400
21
404.8758
31
0.0
0
LINE
8
CUT
62
1
10
534.3400
20
404.8758
30
0.0
11
530.4371
21
402.0000
31
0.0
0
LINE
8
CUT
62
1
10
530.4371
20
402.0000
30
0.0
11
534.3400
21
399.1242
31
0.0
0
LINE
8
CUT
62
1
10
534.3400
20
399.1242
30
0.0
11
534.3400
21
204.8758
31
0.0
0
LINE
8
CUT
62
1
10
534.3400
20
204.8758
30
0.0
11
530.4371
21
202.0000
31
0.0
0
LINE
8
CUT
62
1
10
530.4371
20
202.0000
30
0.0
11
534.3400
21
199.1242
31
0.0
0
LINE
8
CUT
62
1
10
534.3400
20
199.1242
30
0.0
11
534.3400
21
21.8500
31
0.0
0
LINE
8
CUT
62
1
10
534.3400
20
21.8500
30
0.0
11
582.2473
21
21.8500
31
0.0
0
LINE
8
CUT
62
1
10
582.2473
20
21.8500
30
0.0
11
576.2473
21
9.8500
31
0.0
0
LINE
8
CUT
62
1
10
576.2473
20
9.8500
30
0.0
11
612.7327
21
9.8500
31
0.0
0
LINE
8
CUT
62
1
10
612.7327
20
9.8500
30
0.0
11
606.7327
21
21.8500
31
0.0
0
LINE
8
CUT
62
1
10
606.7327
20
21.8500
30
0.0
11
654.6400
21
21.8500
31
0.0
0
CIRCLE
8
CUT
62
1
10
620.2040
20
51.7500
30
0.0
40
3.8500
0
CIRCLE
8
CUT
62
1
10
568.7760
20
152.2500
30
0.0
40
3.8500
0
CIRCLE
8
CUT
62
1
10
620.2040
20
251.7500
30
0.0
40
3.8500
0
CIRCLE
8
CUT
62
1
10
568.7760
20
352.2500
30
0.0
40
3.8500
0
LINE
8
ENGRAVE
62
5
10
654.4900
20
2.0000
30
0.0
11
654.4900
21
202.0000
31
0.0
0
LINE
8
ENGRAVE
62
5
10
654.4900
20
202.0000
30
0.0
11
534.4900
21
202.0000
31
0.0
0
LINE
8
ENGRAVE
62
5
10
534.4900
20
202.0000
30
0.0
11
534.4900
21
2.0000
31
0.0
0
LINE
8
ENGRAVE
62
5
10
534.4900
20
2.0000
30
0.0
11
654.4900
21
2.0000
31
0.0
0
CIRCLE
8
ENGRAVE
62
5
10
620.2040
20
51.7500
30
0.0
40
17.7500
0
CIRCLE
8
ENGRAVE
62
5
10
568.7760
20
152.2500
30
0.0
40
17.7500
0
TEXT
8
ENGRAVE
62
5
10
596.9900
20
96.0000
30
0.0
40
5.0000
50
90.0000
1
B5
0
LINE
8
ENGRAVE
62
5
10
654.4900
20
202.0000
30
0.0
11
654.4900
21
402.0000
31
0.0
0
LINE
8
ENGRAVE
62
5
10
654.4900
20
402.0000
30
0.0
11
534.4900
21
402.0000
31
0.0
0
LINE
8
ENGRAVE
62
5
10
534.4900
20
402.0000
30
0.0
11
534.4900
21
202.0000
31
0.0
0
LINE
8
ENGRAVE
62
5
10
534.4900
20
202.0000
30
0.0
11
654.4900
21
202.0000
31
0.0
0
CIRCLE
8
ENGRAVE
62
5
10
620.2040
20
251.7500
30
0.0
40
17.7500
0
CIRCLE
8
ENGRAVE
62
5
10
568.7760
20
352.2500
30
0.0
40
17.7500
0
TEXT
8
ENGRAVE
62
5
10
596.9900
20
296.0000
30
0.0
40
5.0000
50
90.0000
1
B6
0
TEXT
8
ENGRAVE
62
5
10
543.4900
20
102.0000
30
0.0
40
5.0000
50
90.0000
1
plate W4 ->
0
TEXT
8
ENGRAVE
62
5
10
650.4900
20
28.0000
30
0.0
40
6.0000
50
90.0000
1
B5-B6
0
LINE
8
CUT
62
1
10
784.4400
20
21.8500
30
0.0
11
784.4400
21
402.1500
31
0.0
0
LINE
8
CUT
62
1
10
784.4400
20
402.1500
30
0.0
11
664.1400
21
402.1500
31
0.0
0
LINE
8
CUT
62
1
10
664.1400
20
402.1500
30
0.0
11
664.1400
21
204.8758
31
0.0
0
LINE
8
CUT
62
1
10
664.1400
20
204.8758
30
0.0
11
660.2371
21
202.0000
31
0.0
0
LINE
8
CUT
62
1
10
660.2371
20
202.0000
30
0.0
11
664.1400
21
199.1242
31
0.0
0
LINE
8
CUT
62
1
10
664.1400
20
199.1242
30
0.0
11
664.1400
21
21.8500
31
0.0
0
LINE
8
CUT
62
1
10
664.1400
20
21.8500
30
0.0
11
712.0473
21
21.8500
31
0.0
0
LINE
8
CUT
62
1
10
712.0473
20
21.8500
30
0.0
11
706.0473
21
9.8500
31
0.0
0
LINE
8
CUT
62
1
10
706.0473
20
9.8500
30
0.0
11
742.5327
21
9.8500
31
0.0
0
LINE
8
CUT
62
1
10
742.5327
20
9.8500
30
0.0
11
736.5327
21
21.8500
31
0.0
0
LINE
8
CUT
62
1
10
736.5327
20
21.8500
30
0.0
11
784.4400
21
21.8500
31
0.0
0
TEXT
8
ENGRAVE
62
5
10
673.2900
20
302.0000
30
0.0
40
5.0000
50
90.0000
1
plate W7 ->
0
TEXT
8
ENGRAVE
62
5
10
780.2900
20
28.0000
30
0.0
40
6.0000
50
90.0000
1
C5-C6
0
ENDSEC
0
EOF
