0
SECTION
2
HEADER
9
$ACADVER
1
AC1009
0
ENDSEC
0
SECTION
2
TABLES
0
TABLE
2
LAYER
70
2
0
LAYER
2
CUT
70
0
62
1
6
CONTINUOUS
0
LAYER
2
ENGRAVE
70
0
62
5
6
CONTINUOUS
0
LAYER
2
SHEET
70
0
62
3
6
CONTINUOUS
0
ENDTAB
0
ENDSEC
0
SECTION
2
ENTITIES
0
LINE
8
SHEET
62
3
10
0.0000
20
0.0000
30
0.0
11
800.0000
21
0.0000
31
0.0
0
LINE
8
SHEET
62
3
10
800.0000
20
0.0000
30
0.0
11
800.0000
21
600.0000
31
0.0
0
LINE
8
SHEET
62
3
10
800.0000
20
600.0000
30
0.0
11
0.0000
21
600.0000
31
0.0
0
LINE
8
SHEET
62
3
10
0.0000
20
600.0000
30
0.0
11
0.0000
21
0.0000
31
0.0
0
TEXT
8
SHEET
62
3
10
2.0000
20
594.0000
30
0.0
40
4.0000
1
ARES_Mauer guides A5/B9/C5 sheet 2/5 - CUT lines kerf-compensated for 0.3 mm
0
LINE
8
CUT
62
1
10
21.8500
20
9.8500
30
0.0
11
759.6500
21
9.8500
31
0.0
0
LINE
8
CUT
62
1
10
759.6500
20
9.8500
30
0.0
11
759.6500
21
490.1500
31
0.0
0
LINE
8
CUT
62
1
10
759.6500
20
490.1500
30
0.0
11
21.8500
21
490.1500
31
0.0
0
LINE
8
CUT
62
1
10
21.8500
20
490.1500
30
0.0
11
21.8500
21
432.2427
31
0.0
0
LINE
8
CUT
62
1
10
21.8500
20
432.2427
30
0.0
11
9.8500
21
438.2427
31
0.0
0
LINE
8
CUT
62
1
10
9.8500
20
438.2427
30
0.0
11
9.8500
21
401.7573
31
0.0
0
LINE
8
CUT
62
1
10
9.8500
20
401.7573
30
0.0
11
21.8500
21
407.7573
31
0.0
0
LINE
8
CUT
62
1
10
21.8500
20
407.7573
30
0.0
11
21.8500
21
232.2427
31
0.0
0
LINE
8
CUT
62
1
10
21.8500
20
232.2427
30
0.0
11
9.8500
21
238.2427
31
0.0
0
LINE
8
CUT
62
1
10
9.8500
20
238.2427
30
0.0
11
9.8500
21
201.7573
31
0.0
0
LINE
8
CUT
62
1
10
9.8500
20
201.7573
30
0.0
11
21.8500
21
207.7573
31
0.0
0
LINE
8
CUT
62
1
10
21.8500
20
207.7573
30
0.0
11
21.8500
21
98.5427
31
0.0
0
LINE
8
CUT
62
1
10
21.8500
20
98.5427
30
0.0
11
9.8500
21
104.5427
31
0.0
0
LINE
8
CUT
62
1
10
9.8500
20
104.5427
30
0.0
11
9.8500
21
68.0573
31
0.0
0
LINE
8
CUT
62
1
10
9.8500
20
68.0573
30
0.0
11
21.8500
21
74.0573
31
0.0
0
LINE
8
CUT
62
1
10
21.8500
20
74.0573
30
0.0
11
21.8500
21
9.8500
31
0.0
0
CIRCLE
8
CUT
62
1
10
74.2500
20
194.2860
30
0.0
40
3.8500
0
CIRCLE
8
CUT
62
1
10
174.7500
20
245.7140
30
0.0
40
3.8500
0
CIRCLE
8
CUT
62
1
10
74.2500
20
394.2860
30
0.0
40
3.8500
0
CIRCLE
8
CUT
62
1
10
174.7500
20
445.7140
30
0.0
40
3.8500
0
CIRCLE
8
CUT
62
1
10
279.2500
20
194.2860
30
0.0
40
3.8500
0
CIRCLE
8
CUT
62
1
10
379.7500
20
245.7140
30
0.0
40
3.8500
0
CIRCLE
8
CUT
62
1
10
279.2500
20
394.2860
30
0.0
40
3.8500
0
CIRCLE
8
CUT
62
1
10
379.7500
20
445.7140
30
0.0
40
3.8500
0
CIRCLE
8
CUT
62
1
10
484.5000
20
194.2860
30
0.0
40
3.8500
0
CIRCLE
8
CUT
62
1
10
484.5000
20
245.7140
30
0.0
40
3.8500
0
CIRCLE
8
CUT
62
1
10
484.2500
20
394.2860
30
0.0
40
3.8500
0
CIRCLE
8
CUT
62
1
10
584.7500
20
445.7140
30
0.0
40
3.8500
0
CIRCLE
8
CUT
62
1
10
587.0000
20
194.2860
30
0.0
40
3.8500
0
CIRCLE
8
CUT
62
1
10
587.0000
20
245.7140
30
0.0
40
3.8500
0
CIRCLE
8
CUT
62
1
10
689.5000
20
194.2860
30
0.0
40
3.8500
0
CIRCLE
8
CUT
62
1
10
689.5000
20
245.7140
30
0.0
40
3.8500
0
LINE
8
CUT
62
1
10
451.8500
20
20.1500
30
0.0
11
592.1500
21
20.1500
31
0.0
0
LINE
8
CUT
62
1
10
592.1500
20
20.1500
30
0.0
11
592.1500
21
152.4500
31
0.0
0
LINE
8
CUT
62
1
10
592.1500
20
152.4500
30
0.0
11
451.8500
21
152.4500
31
0.0
0
LINE
8
CUT
62
1
10
451.8500
20
152.4500
30
0.0
11
451.8500
21
20.1500
31
0.0
0
LINE
8
ENGRAVE
62
5
10
24.5000
20
160.0000
30
0.0
11
224.5000
21
160.0000
31
0.0
0
LINE
8
ENGRAVE
62
5
10
224.5000
20
160.0000
30
0.0
11
224.5000
21
280.0000
31
0.0
0
LINE
8
ENGRAVE
62
5
10
224.5000
20
280.0000
30
0.0
11
24.5000
21
280.0000
31
0.0
0
LINE
8
ENGRAVE
62
5
10
24.5000
20
280.0000
30
0.0
11
24.5000
21
160.0000
31
0.0
0
CIRCLE
8
ENGRAVE
62
5
10
74.2500
20
194.2860
30
0.0
40
17.7500
0
CIRCLE
8
ENGRAVE
62
5
10
174.7500
20
245.7140
30
0.0
40
17.7500
0
TEXT
8
ENGRAVE
62
5
10
118.5000
20
217.5000
30
0.0
40
5.0000
1
s03
0
LINE
8
ENGRAVE
62
5
10
24.5000
20
360.0000
30
0.0
11
224.5000
21
360.0000
31
0.0
0
LINE
8
ENGRAVE
62
5
10
224.5000
20
360.0000
30
0.0
11
224.5000
21
480.0000
31
0.0
0
LINE
8
ENGRAVE
62
5
10
224.5000
20
480.0000
30
0.0
11
24.5000
21
480.0000
31
0.0
0
LINE
8
ENGRAVE
62
5
10
24.5000
20
480.0000
30
0.0
11
24.5000
21
360.0000
31
0.0
0
CIRCLE
8
ENGRAVE
62
5
10
74.2500
20
394.2860
30
0.0
40
17.7500
0
CIRCLE
8
ENGRAVE
62
5
10
174.7500
20
445.7140
30
0.0
40
17.7500
0
TEXT
8
ENGRAVE
62
5
10
118.5000
20
417.5000
30
0.0
40
5.0000
1
s08
0
LINE
8
ENGRAVE
62
5
10
229.5000
20
160.0000
30
0.0
11
429.5000
21
160.0000
31
0.0
0
LINE
8
ENGRAVE
62
5
10
429.5000
20
160.0000
30
0.0
11
429.5000
21
280.0000
31
0.0
0
LINE
8
ENGRAVE
62
5
10
429.5000
20
280.0000
30
0.0
11
229.5000
21
280.0000
31
0.0
0
LINE
8
ENGRAVE
62
5
10
229.5000
20
280.0000
30
0.0
11
229.5000
21
160.0000
31
0.0
0
CIRCLE
8
ENGRAVE
62
5
10
279.2500
20
194.2860
30
0.0
40
17.7500
0
CIRCLE
8
ENGRAVE
62
5
10
379.7500
20
245.7140
30
0.0
40
17.7500
0
TEXT
8
ENGRAVE
62
5
10
323.5000
20
217.5000
30
0.0
40
5.0000
1
s04
0
LINE
8
ENGRAVE
62
5
10
229.5000
20
360.0000
30
0.0
11
429.5000
21
360.0000
31
0.0
0
LINE
8
ENGRAVE
62
5
10
429.5000
20
360.0000
30
0.0
11
429.5000
21
480.0000
31
0.0
0
LINE
8
ENGRAVE
62
5
10
429.5000
20
480.0000
30
0.0
11
229.5000
21
480.0000
31
0.0
0
LINE
8
ENGRAVE
62
5
10
229.5000
20
480.0000
30
0.0
11
229.5000
21
360.0000
31
0.0
0
CIRCLE
8
ENGRAVE
62
5
10
279.2500
20
394.2860
30
0.0
40
17.7500
0
CIRCLE
8
ENGRAVE
62
5
10
379.7500
20
445.7140
30
0.0
40
17.7500
0
TEXT
8
ENGRAVE
62
5
10
323.5000
20
417.5000
30
0.0
40
5.0000
1
s09
0
LINE
8
ENGRAVE
62
5
10
434.5000
20
160.0000
30
0.0
11
534.5000
21
160.0000
31
0.0
0
LINE
8
ENGRAVE
62
5
10
534.5000
20
160.0000
30
0.0
11
534.5000
21
280.0000
31
0.0
0
LINE
8
ENGRAVE
62
5
10
534.5000
20
280.0000
30
0.0
11
434.5000
21
280.0000
31
0.0
0
LINE
8
ENGRAVE
62
5
10
434.5000
20
280.0000
30
0.0
11
434.5000
21
160.0000
31
0.0
0
CIRCLE
8
ENGRAVE
62
5
10
484.5000
20
194.2860
30
0.0
40
17.7500
0
CIRCLE
8
ENGRAVE
62
5
10
484.5000
20
245.7140
30
0.0
40
17.7500
0
TEXT
8
ENGRAVE
62
5
10
478.5000
20
217.5000
30
0.0
40
5.0000
1
h01
0
LINE
8
ENGRAVE
62
5
10
434.5000
20
360.0000
30
0.0
11
634.5000
21
360.0000
31
0.0
0
LINE
8
ENGRAVE
62
5
10
634.5000
20
360.0000
30
0.0
11
634.5000
21
480.0000
31
0.0
0
LINE
8
ENGRAVE
62
5
10
634.5000
20
480.0000
30
0.0
11
434.5000
21
480.0000
31
0.0
0
LINE
8
ENGRAVE
62
5
10
434.5000
20
480.0000
30
0.0
11
434.5000
21
360.0000
31
0.0
0
CIRCLE
8
ENGRAVE
62
5
10
484.2500
20
394.2860
30
0.0
40
17.7500
0
CIRCLE
8
ENGRAVE
62
5
10
584.7500
20
445.7140
30
0.0
40
17.7500
0
TEXT
8
ENGRAVE
62
5
10
528.5000
20
417.5000
30
0.0
40
5.0000
1
s10
0
LINE
8
ENGRAVE
62
5
10
537.0000
20
160.0000
30
0.0
11
637.0000
21
160.0000
31
0.0
0
LINE
8
ENGRAVE
62
5
10
637.0000
20
160.0000
30
0.0
11
637.0000
21
280.0000
31
0.0
0
LINE
8
ENGRAVE
62
5
10
637.0000
20
280.0000
30
0.0
11
537.0000
21
280.0000
31
0.0
0
LINE
8
ENGRAVE
62
5
10
537.0000
20
280.0000
30
0.0
11
537.0000
21
160.0000
31
0.0
0
CIRCLE
8
ENGRAVE
62
5
10
587.0000
20
194.2860
30
0.0
40
17.7500
0
CIRCLE
8
ENGRAVE
62
5
10
587.0000
20
245.7140
30
0.0
40
17.7500
0
TEXT
8
ENGRAVE
62
5
10
581.0000
20
217.5000
30
0.0
40
5.0000
1
h02
0
LINE
8
ENGRAVE
62
5
10
639.5000
20
160.0000
30
0.0
11
739.5000
21
160.0000
31
0.0
0
LINE
8
ENGRAVE
62
5
10
739.5000
20
160.0000
30
0.0
11
739.5000
21
280.0000
31
0.0
0
LINE
8
ENGRAVE
62
5
10
739.5000
20
280.0000
30
0.0
11
639.5000
21
280.0000
31
0.0
0
LINE
8
ENGRAVE
62
5
10
639.5000
20
280.0000
30
0.0
11
639.5000
21
160.0000
31
0.0
0
CIRCLE
8
ENGRAVE
62
5
10
689.5000
20
194.2860
30
0.0
40
17.7500
0
CIRCLE
8
ENGRAVE
62
5
10
689.5000
20
245.7140
30
0.0
40
17.7500
0
TEXT
8
ENGRAVE
62
5
10
683.5000
20
217.5000
30
0.0
40
5.0000
1
h03
0
TEXT
8
ENGRAVE
62
5
10
510.0000
20
83.3000
30
0.0
40
8.0000
1
S1
0
TEXT
8
ENGRAVE
62
5
10
50.5000
20
164.0000
30
0.0
40
6.0000
1
station2 (station)
0
ENDSEC
0
EOF
