0
SECTION
2
HEADER
9
$ACADVER
1
AC1009
0
ENDSEC
0
SECTION
2
TABLES
0
TABLE
2
LAYER
70
2
0
LAYER
2
CUT
70
0
62
1
6
CONTINUOUS
0
LAYER
2
ENGRAVE
70
0
62
5
6
CONTINUOUS
0
LAYER
2
SHEET
70
0
62
3
6
CONTINUOUS
0
ENDTAB
0
ENDSEC
0
SECTION
2
ENTITIES
0
LINE
8
SHEET
62
3
10
0.0000
20
0.0000
30
0.0
11
800.0000
21
0.0000
31
0.0
0
LINE
8
SHEET
62
3
10
800.0000
20
0.0000
30
0.0
11
800.0000
21
600.0000
31
0.0
0
LINE
8
SHEET
62
3
10
800.0000
20
600.0000
30
0.0
11
0.0000
21
600.0000
31
0.0
0
LINE
8
SHEET
62
3
10
0.0000
20
600.0000
30
0.0
11
0.0000
21
0.0000
31
0.0
0
TEXT
8
SHEET
62
3
10
2.0000
20
594.0000
30
0.0
40
4.0000
1
ARES_Mauer guides A5/B9/C5 sheet 1/5 - CUT lines kerf-compensated for 0.3 mm
0
LINE
8
CUT
62
1
10
9.8500
20
9.8500
30
0.0
11
747.6500
21
9.8500
31
0.0
0
LINE
8
CUT
62
1
10
747.6500
20
9.8500
30
0.0
11
747.6500
21
74.4923
31
0.0
0
LINE
8
CUT
62
1
10
747.6500
20
74.4923
30
0.0
11
735.6000
21
68.4923
31
0.0
0
LINE
8
CUT
62
1
10
735.6000
20
68.4923
30
0.0
11
735.6000
21
104.1077
31
0.0
0
LINE
8
CUT
62
1
10
735.6000
20
104.1077
30
0.0
11
747.6500
21
98.1077
31
0.0
0
LINE
8
CUT
62
1
10
747.6500
20
98.1077
30
0.0
11
747.6500
21
208.1923
31
0.0
0
LINE
8
CUT
62
1
10
747.6500
20
208.1923
30
0.0
11
735.6000
21
202.1923
31
0.0
0
LINE
8
CUT
62
1
10
735.6000
20
202.1923
30
0.0
11
735.6000
21
237.8077
31
0.0
0
LINE
8
CUT
62
1
10
735.6000
20
237.8077
30
0.0
11
747.6500
21
231.8077
31
0.0
0
LINE
8
CUT
62
1
10
747.6500
20
231.8077
30
0.0
11
747.6500
21
408.1923
31
0.0
0
LINE
8
CUT
62
1
10
747.6500
20
408.1923
30
0.0
11
735.6000
21
402.1923
31
0.0
0
LINE
8
CUT
62
1
10
735.6000
20
402.1923
30
0.0
11
735.6000
21
437.8077
31
0.0
0
LINE
8
CUT
62
1
10
735.6000
20
437.8077
30
0.0
11
747.6500
21
431.8077
31
0.0
0
LINE
8
CUT
62
1
10
747.6500
20
431.8077
30
0.0
11
747.6500
21
490.1500
31
0.0
0
LINE
8
CUT
62
1
10
747.6500
20
490.1500
30
0.0
11
9.8500
21
490.1500
31
0.0
0
LINE
8
CUT
62
1
10
9.8500
20
490.1500
30
0.0
11
9.8500
21
9.8500
31
0.0
0
CIRCLE
8
CUT
62
1
10
80.0000
20
194.2860
30
0.0
40
3.8500
0
CIRCLE
8
CUT
62
1
10
80.0000
20
245.7140
30
0.0
40
3.8500
0
CIRCLE
8
CUT
62
1
10
184.7500
20
194.2860
30
0.0
40
3.8500
0
CIRCLE
8
CUT
62
1
10
285.2500
20
245.7140
30
0.0
40
3.8500
0
CIRCLE
8
CUT
62
1
10
184.7500
20
394.2860
30
0.0
40
3.8500
0
CIRCLE
8
CUT
62
1
10
285.2500
20
445.7140
30
0.0
40
3.8500
0
CIRCLE
8
CUT
62
1
10
389.7500
20
194.2860
30
0.0
40
3.8500
0
CIRCLE
8
CUT
62
1
10
490.2500
20
245.7140
30
0.0
40
3.8500
0
CIRCLE
8
CUT
62
1
10
389.7500
20
394.2860
30
0.0
40
3.8500
0
CIRCLE
8
CUT
62
1
10
490.2500
20
445.7140
30
0.0
40
3.8500
0
CIRCLE
8
CUT
62
1
10
594.7500
20
194.2860
30
0.0
40
3.8500
0
CIRCLE
8
CUT
62
1
10
695.2500
20
245.7140
30
0.0
40
3.8500
0
CIRCLE
8
CUT
62
1
10
594.7500
20
394.2860
30
0.0
40
3.8500
0
CIRCLE
8
CUT
62
1
10
695.2500
20
445.7140
30
0.0
40
3.8500
0
LINE
8
CUT
62
1
10
177.3500
20
20.1500
30
0.0
11
317.6500
21
20.1500
31
0.0
0
LINE
8
CUT
62
1
10
317.6500
20
20.1500
30
0.0
11
317.6500
21
152.4500
31
0.0
0
LINE
8
CUT
62
1
10
317.6500
20
152.4500
30
0.0
11
177.3500
21
152.4500
31
0.0
0
LINE
8
CUT
62
1
10
177.3500
20
152.4500
30
0.0
11
177.3500
21
20.1500
31
0.0
0
LINE
8
ENGRAVE
62
5
10
30.0000
20
160.0000
30
0.0
11
130.0000
21
160.0000
31
0.0
0
LINE
8
ENGRAVE
62
5
10
130.0000
20
160.0000
30
0.0
11
130.0000
21
280.0000
31
0.0
0
LINE
8
ENGRAVE
62
5
10
130.0000
20
280.0000
30
0.0
11
30.0000
21
280.0000
31
0.0
0
LINE
8
ENGRAVE
62
5
10
30.0000
20
280.0000
30
0.0
11
30.0000
21
160.0000
31
0.0
0
CIRCLE
8
ENGRAVE
62
5
10
80.0000
20
194.2860
30
0.0
40
17.7500
0
CIRCLE
8
ENGRAVE
62
5
10
80.0000
20
245.7140
30
0.0
40
17.7500
0
TEXT
8
ENGRAVE
62
5
10
74.0000
20
217.5000
30
0.0
40
5.0000
1
h00
0
LINE
8
ENGRAVE
62
5
10
135.0000
20
160.0000
30
0.0
11
335.0000
21
160.0000
31
0.0
0
LINE
8
ENGRAVE
62
5
10
335.0000
20
160.0000
30
0.0
11
335.0000
21
280.0000
31
0.0
0
LINE
8
ENGRAVE
62
5
10
335.0000
20
280.0000
30
0.0
11
135.0000
21
280.0000
31
0.0
0
LINE
8
ENGRAVE
62
5
10
135.0000
20
280.0000
30
0.0
11
135.0000
21
160.0000
31
0.0
0
CIRCLE
8
ENGRAVE
62
5
10
184.7500
20
194.2860
30
0.0
40
17.7500
0
CIRCLE
8
ENGRAVE
62
5
10
285.2500
20
245.7140
30
0.0
40
17.7500
0
TEXT
8
ENGRAVE
62
5
10
229.0000
20
217.5000
30
0.0
40
5.0000
1
s00
0
LINE
8
ENGRAVE
62
5
10
135.0000
20
360.0000
30
0.0
11
335.0000
21
360.0000
31
0.0
0
LINE
8
ENGRAVE
62
5
10
335.0000
20
360.0000
30
0.0
11
335.0000
21
480.0000
31
0.0
0
LINE
8
ENGRAVE
62
5
10
335.0000
20
480.0000
30
0.0
11
135.0000
21
480.0000
31
0.0
0
LINE
8
ENGRAVE
62
5
10
135.0000
20
480.0000
30
0.0
11
135.0000
21
360.0000
31
0.0
0
CIRCLE
8
ENGRAVE
62
5
10
184.7500
20
394.2860
30
0.0
40
17.7500
0
CIRCLE
8
ENGRAVE
62
5
10
285.2500
20
445.7140
30
0.0
40
17.7500
0
TEXT
8
ENGRAVE
62
5
10
229.0000
20
417.5000
30
0.0
40
5.0000
1
s05
0
LINE
8
ENGRAVE
62
5
10
340.0000
20
160.0000
30
0.0
11
540.0000
21
160.0000
31
0.0
0
LINE
8
ENGRAVE
62
5
10
540.0000
20
160.0000
30
0.0
11
540.0000
21
280.0000
31
0.0
0
LINE
8
ENGRAVE
62
5
10
540.0000
20
280.0000
30
0.0
11
340.0000
21
280.0000
31
0.0
0
LINE
8
ENGRAVE
62
5
10
340.0000
20
280.0000
30
0.0
11
340.0000
21
160.0000
31
0.0
0
CIRCLE
8
ENGRAVE
62
5
10
389.7500
20
194.2860
30
0.0
40
17.7500
0
CIRCLE
8
ENGRAVE
62
5
10
490.2500
20
245.7140
30
0.0
40
17.7500
0
TEXT
8
ENGRAVE
62
5
10
434.0000
20
217.5000
30
0.0
40
5.0000
1
s01
0
LINE
8
ENGRAVE
62
5
10
340.0000
20
360.0000
30
0.0
11
540.0000
21
360.0000
31
0.0
0
LINE
8
ENGRAVE
62
5
10
540.0000
20
360.0000
30
0.0
11
540.0000
21
480.0000
31
0.0
0
LINE
8
ENGRAVE
62
5
10
540.0000
20
480.0000
30
0.0
11
340.0000
21
480.0000
31
0.0
0
LINE
8
ENGRAVE
62
5
10
340.0000
20
480.0000
30
0.0
11
340.0000
21
360.0000
31
0.0
0
CIRCLE
8
ENGRAVE
62
5
10
389.7500
20
394.2860
30
0.0
40
17.7500
0
CIRCLE
8
ENGRAVE
62
5
10
490.2500
20
445.7140
30
0.0
40
17.7500
0
TEXT
8
ENGRAVE
62
5
10
434.0000
20
417.5000
30
0.0
40
5.0000
1
s06
0
LINE
8
ENGRAVE
62
5
10
545.0000
20
160.0000
30
0.0
11
745.0000
21
160.0000
31
0.0
0
LINE
8
ENGRAVE
62
5
10
745.0000
20
160.0000
30
0.0
11
745.0000
21
280.0000
31
0.0
0
LINE
8
ENGRAVE
62
5
10
745.0000
20
280.0000
30
0.0
11
545.0000
21
280.0000
31
0.0
0
LINE
8
ENGRAVE
62
5
10
545.0000
20
280.0000
30
0.0
11
545.0000
21
160.0000
31
0.0
0
CIRCLE
8
ENGRAVE
62
5
10
594.7500
20
194.2860
30
0.0
40
17.7500
0
CIRCLE
8
ENGRAVE
62
5
10
695.2500
20
245.7140
30
0.0
40
17.7500
0
TEXT
8
ENGRAVE
62
5
10
639.0000
20
217.5000
30
0.0
40
5.0000
1
s02
0
LINE
8
ENGRAVE
62
5
10
545.0000
20
360.0000
30
0.0
11
745.0000
21
360.0000
31
0.0
0
LINE
8
ENGRAVE
62
5
10
745.0000
20
360.0000
30
0.0
11
745.0000
21
480.0000
31
0.0
0
LINE
8
ENGRAVE
62
5
10
745.0000
20
480.0000
30
0.0
11
545.0000
21
480.0000
31
0.0
0
LINE
8
ENGRAVE
62
5
10
545.0000
20
480.0000
30
0.0
11
545.0000
21
360.0000
31
0.0
0
CIRCLE
8
ENGRAVE
62
5
10
594.7500
20
394.2860
30
0.0
40
17.7500
0
CIRCLE
8
ENGRAVE
62
5
10
695.2500
20
445.7140
30
0.0
40
17.7500
0
TEXT
8
ENGRAVE
62
5
10
639.0000
20
417.5000
30
0.0
40
5.0000
1
s07
0
TEXT
8
ENGRAVE
62
5
10
235.5000
20
83.3000
30
0.0
40
8.0000
1
S0
0
TEXT
8
ENGRAVE
62
5
10
56.0000
20
164.0000
30
0.0
40
6.0000
1
station1 (station)
0
ENDSEC
0
EOF
