0
SECTION
2
HEADER
9
$ACADVER
1
AC1009
0
ENDSEC
0
SECTION
2
TABLES
0
TABLE
2
LAYER
70
2
0
LAYER
2
CUT
70
0
62
1
6
CONTINUOUS
0
LAYER
2
ENGRAVE
70
0
62
5
6
CONTINUOUS
0
LAYER
2
SHEET
70
0
62
3
6
CONTINUOUS
0
ENDTAB
0
ENDSEC
0
SECTION
2
ENTITIES
0
LINE
8
SHEET
62
3
10
0.0000
20
0.0000
30
0.0
11
800.0000
21
0.0000
31
0.0
0
LINE
8
SHEET
62
3
10
800.0000
20
0.0000
30
0.0
11
800.0000
21
600.0000
31
0.0
0
LINE
8
SHEET
62
3
10
800.0000
20
600.0000
30
0.0
11
0.0000
21
600.0000
31
0.0
0
LINE
8
SHEET
62
3
10
0.0000
20
600.0000
30
0.0
11
0.0000
21
0.0000
31
0.0
0
TEXT
8
SHEET
62
3
10
2.0000
20
594.0000
30
0.0
40
4.0000
1
ARES_Mauer guides A5.5/B7/C5 TEST - CUT lines kerf-compensated for 0.3 mm
0
LINE
8
CUT
62
1
10
21.8500
20
9.8500
30
0.0
11
192.7500
21
9.8500
31
0.0
0
LINE
8
CUT
62
1
10
192.7500
20
9.8500
30
0.0
11
192.7500
21
170.7500
31
0.0
0
LINE
8
CUT
62
1
10
192.7500
20
170.7500
30
0.0
11
21.8500
21
170.7500
31
0.0
0
LINE
8
CUT
62
1
10
21.8500
20
170.7500
30
0.0
11
21.8500
21
82.2427
31
0.0
0
LINE
8
CUT
62
1
10
21.8500
20
82.2427
30
0.0
11
9.8500
21
88.2427
31
0.0
0
LINE
8
CUT
62
1
10
9.8500
20
88.2427
30
0.0
11
9.8500
21
51.7573
31
0.0
0
LINE
8
CUT
62
1
10
9.8500
20
51.7573
30
0.0
11
21.8500
21
57.7573
31
0.0
0
LINE
8
CUT
62
1
10
21.8500
20
57.7573
30
0.0
11
21.8500
21
9.8500
31
0.0
0
LINE
8
CUT
62
1
10
37.1500
20
24.1500
30
0.0
11
177.4500
21
24.1500
31
0.0
0
LINE
8
CUT
62
1
10
177.4500
20
24.1500
30
0.0
11
177.4500
21
156.4500
31
0.0
0
LINE
8
CUT
62
1
10
177.4500
20
156.4500
30
0.0
11
37.1500
21
156.4500
31
0.0
0
LINE
8
CUT
62
1
10
37.1500
20
156.4500
30
0.0
11
37.1500
21
24.1500
31
0.0
0
TEXT
8
ENGRAVE
62
5
10
16.0000
20
14.0000
30
0.0
40
6.0000
1
test2
0
LINE
8
CUT
62
1
10
198.4500
20
9.8500
30
0.0
11
418.7500
21
9.8500
31
0.0
0
LINE
8
CUT
62
1
10
418.7500
20
9.8500
30
0.0
11
418.7500
21
58.1923
31
0.0
0
LINE
8
CUT
62
1
10
418.7500
20
58.1923
30
0.0
11
406.7000
21
52.1923
31
0.0
0
LINE
8
CUT
62
1
10
406.7000
20
52.1923
30
0.0
11
406.7000
21
87.8077
31
0.0
0
LINE
8
CUT
62
1
10
406.7000
20
87.8077
30
0.0
11
418.7500
21
81.8077
31
0.0
0
LINE
8
CUT
62
1
10
418.7500
20
81.8077
30
0.0
11
418.7500
21
130.1500
31
0.0
0
LINE
8
CUT
62
1
10
418.7500
20
130.1500
30
0.0
11
401.4758
21
130.1500
31
0.0
0
LINE
8
CUT
62
1
10
401.4758
20
130.1500
30
0.0
11
398.6000
21
134.0529
31
0.0
0
LINE
8
CUT
62
1
10
398.6000
20
134.0529
30
0.0
11
395.7242
21
130.1500
31
0.0
0
LINE
8
CUT
62
1
10
395.7242
20
130.1500
30
0.0
11
198.4500
21
130.1500
31
0.0
0
LINE
8
CUT
62
1
10
198.4500
20
130.1500
30
0.0
11
198.4500
21
9.8500
31
0.0
0
CIRCLE
8
CUT
62
1
10
248.3500
20
44.2860
30
0.0
40
3.8500
0
CIRCLE
8
CUT
62
1
10
348.8500
20
95.7140
30
0.0
40
3.8500
0
LINE
8
ENGRAVE
62
5
10
198.6000
20
10.0000
30
0.0
11
398.6000
21
10.0000
31
0.0
0
LINE
8
ENGRAVE
62
5
10
398.6000
20
10.0000
30
0.0
11
398.6000
21
130.0000
31
0.0
0
LINE
8
ENGRAVE
62
5
10
398.6000
20
130.0000
30
0.0
11
198.6000
21
130.0000
31
0.0
0
LINE
8
ENGRAVE
62
5
10
198.6000
20
130.0000
30
0.0
11
198.6000
21
10.0000
31
0.0
0
CIRCLE
8
ENGRAVE
62
5
10
248.3500
20
44.2860
30
0.0
40
17.7500
0
CIRCLE
8
ENGRAVE
62
5
10
348.8500
20
95.7140
30
0.0
40
17.7500
0
TEXT
8
ENGRAVE
62
5
10
292.6000
20
67.5000
30
0.0
40
5.0000
1
test
0
TEXT
8
ENGRAVE
62
5
10
224.6000
20
14.0000
30
0.0
40
6.0000
1
test1
0
ENDSEC
0
EOF
