0
SECTION
2
HEADER
9
$ACADVER
1
AC1009
0
ENDSEC
0
SECTION
2
TABLES
0
TABLE
2
LAYER
70
2
0
LAYER
2
CUT
70
0
62
1
6
CONTINUOUS
0
LAYER
2
ENGRAVE
70
0
62
5
6
CONTINUOUS
0
LAYER
2
SHEET
70
0
62
3
6
CONTINUOUS
0
ENDTAB
0
ENDSEC
0
SECTION
2
ENTITIES
0
LINE
8
SHEET
62
3
10
0.0000
20
0.0000
30
0.0
11
800.0000
21
0.0000
31
0.0
0
LINE
8
SHEET
62
3
10
800.0000
20
0.0000
30
0.0
11
800.0000
21
600.0000
31
0.0
0
LINE
8
SHEET
62
3
10
800.0000
20
600.0000
30
0.0
11
0.0000
21
600.0000
31
0.0
0
LINE
8
SHEET
62
3
10
0.0000
20
600.0000
30
0.0
11
0.0000
21
0.0000
31
0.0
0
TEXT
8
SHEET
62
3
10
2.0000
20
594.0000
30
0.0
40
4.0000
1
ARES_Mauer guides sheet 3/4
0
LINE
8
CUT
62
1
10
10.0000
20
10.0000
30
0.0
11
747.5000
21
10.0000
31
0.0
0
LINE
8
CUT
62
1
10
747.5000
20
10.0000
30
0.0
11
747.5000
21
74.2000
31
0.0
0
LINE
8
CUT
62
1
10
747.5000
20
74.2000
30
0.0
11
735.4000
21
68.2000
31
0.0
0
LINE
8
CUT
62
1
10
735.4000
20
68.2000
30
0.0
11
735.4000
21
104.4000
31
0.0
0
LINE
8
CUT
62
1
10
735.4000
20
104.4000
30
0.0
11
747.5000
21
98.4000
31
0.0
0
LINE
8
CUT
62
1
10
747.5000
20
98.4000
30
0.0
11
747.5000
21
207.9000
31
0.0
0
LINE
8
CUT
62
1
10
747.5000
20
207.9000
30
0.0
11
735.4000
21
201.9000
31
0.0
0
LINE
8
CUT
62
1
10
735.4000
20
201.9000
30
0.0
11
735.4000
21
238.1000
31
0.0
0
LINE
8
CUT
62
1
10
735.4000
20
238.1000
30
0.0
11
747.5000
21
232.1000
31
0.0
0
LINE
8
CUT
62
1
10
747.5000
20
232.1000
30
0.0
11
747.5000
21
290.0000
31
0.0
0
LINE
8
CUT
62
1
10
747.5000
20
290.0000
30
0.0
11
10.0000
21
290.0000
31
0.0
0
LINE
8
CUT
62
1
10
10.0000
20
290.0000
30
0.0
11
10.0000
21
10.0000
31
0.0
0
CIRCLE
8
CUT
62
1
10
80.0000
20
194.2860
30
0.0
40
4.1500
0
CIRCLE
8
CUT
62
1
10
80.0000
20
245.7140
30
0.0
40
4.1500
0
CIRCLE
8
CUT
62
1
10
184.7500
20
194.2860
30
0.0
40
4.1500
0
CIRCLE
8
CUT
62
1
10
285.2500
20
245.7140
30
0.0
40
4.1500
0
CIRCLE
8
CUT
62
1
10
389.7500
20
194.2860
30
0.0
40
4.1500
0
CIRCLE
8
CUT
62
1
10
490.2500
20
245.7140
30
0.0
40
4.1500
0
CIRCLE
8
CUT
62
1
10
594.7500
20
194.2860
30
0.0
40
4.1500
0
CIRCLE
8
CUT
62
1
10
695.2500
20
245.7140
30
0.0
40
4.1500
0
LINE
8
CUT
62
1
10
177.2000
20
20.0000
30
0.0
11
317.8000
21
20.0000
31
0.0
0
LINE
8
CUT
62
1
10
317.8000
20
20.0000
30
0.0
11
317.8000
21
152.6000
31
0.0
0
LINE
8
CUT
62
1
10
317.8000
20
152.6000
30
0.0
11
177.2000
21
152.6000
31
0.0
0
LINE
8
CUT
62
1
10
177.2000
20
152.6000
30
0.0
11
177.2000
21
20.0000
31
0.0
0
LINE
8
ENGRAVE
62
5
10
30.0000
20
160.0000
30
0.0
11
130.0000
21
160.0000
31
0.0
0
LINE
8
ENGRAVE
62
5
10
130.0000
20
160.0000
30
0.0
11
130.0000
21
280.0000
31
0.0
0
LINE
8
ENGRAVE
62
5
10
130.0000
20
280.0000
30
0.0
11
30.0000
21
280.0000
31
0.0
0
LINE
8
ENGRAVE
62
5
10
30.0000
20
280.0000
30
0.0
11
30.0000
21
160.0000
31
0.0
0
CIRCLE
8
ENGRAVE
62
5
10
80.0000
20
194.2860
30
0.0
40
17.7500
0
CIRCLE
8
ENGRAVE
62
5
10
80.0000
20
245.7140
30
0.0
40
17.7500
0
TEXT
8
ENGRAVE
62
5
10
74.0000
20
217.5000
30
0.0
40
5.0000
1
h00
0
LINE
8
ENGRAVE
62
5
10
135.0000
20
160.0000
30
0.0
11
335.0000
21
160.0000
31
0.0
0
LINE
8
ENGRAVE
62
5
10
335.0000
20
160.0000
30
0.0
11
335.0000
21
280.0000
31
0.0
0
LINE
8
ENGRAVE
62
5
10
335.0000
20
280.0000
30
0.0
11
135.0000
21
280.0000
31
0.0
0
LINE
8
ENGRAVE
62
5
10
135.0000
20
280.0000
30
0.0
11
135.0000
21
160.0000
31
0.0
0
CIRCLE
8
ENGRAVE
62
5
10
184.7500
20
194.2860
30
0.0
40
17.7500
0
CIRCLE
8
ENGRAVE
62
5
10
285.2500
20
245.7140
30
0.0
40
17.7500
0
TEXT
8
ENGRAVE
62
5
10
229.0000
20
217.5000
30
0.0
40
5.0000
1
s00
0
LINE
8
ENGRAVE
62
5
10
340.0000
20
160.0000
30
0.0
11
540.0000
21
160.0000
31
0.0
0
LINE
8
ENGRAVE
62
5
10
540.0000
20
160.0000
30
0.0
11
540.0000
21
280.0000
31
0.0
0
LINE
8
ENGRAVE
62
5
10
540.0000
20
280.0000
30
0.0
11
340.0000
21
280.0000
31
0.0
0
LINE
8
ENGRAVE
62
5
10
340.0000
20
280.0000
30
0.0
11
340.0000
21
160.0000
31
0.0
0
CIRCLE
8
ENGRAVE
62
5
10
389.7500
20
194.2860
30
0.0
40
17.7500
0
CIRCLE
8
ENGRAVE
62
5
10
490.2500
20
245.7140
30
0.0
40
17.7500
0
TEXT
8
ENGRAVE
62
5
10
434.0000
20
217.5000
30
0.0
40
5.0000
1
s01
0
LINE
8
ENGRAVE
62
5
10
545.0000
20
160.0000
30
0.0
11
745.0000
21
160.0000
31
0.0
0
LINE
8
ENGRAVE
62
5
10
745.0000
20
160.0000
30
0.0
11
745.0000
21
280.0000
31
0.0
0
LINE
8
ENGRAVE
62
5
10
745.0000
20
280.0000
30
0.0
11
545.0000
21
280.0000
31
0.0
0
LINE
8
ENGRAVE
62
5
10
545.0000
20
280.0000
30
0.0
11
545.0000
21
160.0000
31
0.0
0
CIRCLE
8
ENGRAVE
62
5
10
594.7500
20
194.2860
30
0.0
40
17.7500
0
CIRCLE
8
ENGRAVE
62
5
10
695.2500
20
245.7140
30
0.0
40
17.7500
0
TEXT
8
ENGRAVE
62
5
10
639.0000
20
217.5000
30
0.0
40
5.0000
1
s02
0
TEXT
8
ENGRAVE
62
5
10
235.5000
20
83.3000
30
0.0
40
8.0000
1
S0
0
TEXT
8
ENGRAVE
62
5
10
16.0000
20
14.0000
30
0.0
40
6.0000
1
station1 (station)
0
LINE
8
CUT
62
1
10
22.0000
20
296.0000
30
0.0
11
759.5000
21
296.0000
31
0.0
0
LINE
8
CUT
62
1
10
759.5000
20
296.0000
30
0.0
11
759.5000
21
576.0000
31
0.0
0
LINE
8
CUT
62
1
10
759.5000
20
576.0000
30
0.0
11
22.0000
21
576.0000
31
0.0
0
LINE
8
CUT
62
1
10
22.0000
20
576.0000
30
0.0
11
22.0000
21
518.0000
31
0.0
0
LINE
8
CUT
62
1
10
22.0000
20
518.0000
30
0.0
11
10.0000
21
524.0000
31
0.0
0
LINE
8
CUT
62
1
10
10.0000
20
524.0000
30
0.0
11
10.0000
21
488.0000
31
0.0
0
LINE
8
CUT
62
1
10
10.0000
20
488.0000
30
0.0
11
22.0000
21
494.0000
31
0.0
0
LINE
8
CUT
62
1
10
22.0000
20
494.0000
30
0.0
11
22.0000
21
384.3000
31
0.0
0
LINE
8
CUT
62
1
10
22.0000
20
384.3000
30
0.0
11
10.0000
21
390.3000
31
0.0
0
LINE
8
CUT
62
1
10
10.0000
20
390.3000
30
0.0
11
10.0000
21
354.3000
31
0.0
0
LINE
8
CUT
62
1
10
10.0000
20
354.3000
30
0.0
11
22.0000
21
360.3000
31
0.0
0
LINE
8
CUT
62
1
10
22.0000
20
360.3000
30
0.0
11
22.0000
21
296.0000
31
0.0
0
CIRCLE
8
CUT
62
1
10
74.2500
20
480.2860
30
0.0
40
4.1500
0
CIRCLE
8
CUT
62
1
10
174.7500
20
531.7140
30
0.0
40
4.1500
0
CIRCLE
8
CUT
62
1
10
279.2500
20
480.2860
30
0.0
40
4.1500
0
CIRCLE
8
CUT
62
1
10
379.7500
20
531.7140
30
0.0
40
4.1500
0
CIRCLE
8
CUT
62
1
10
484.2500
20
480.2860
30
0.0
40
4.1500
0
CIRCLE
8
CUT
62
1
10
584.7500
20
531.7140
30
0.0
40
4.1500
0
CIRCLE
8
CUT
62
1
10
689.5000
20
480.2860
30
0.0
40
4.1500
0
CIRCLE
8
CUT
62
1
10
689.5000
20
531.7140
30
0.0
40
4.1500
0
LINE
8
CUT
62
1
10
451.7000
20
306.0000
30
0.0
11
592.3000
21
306.0000
31
0.0
0
LINE
8
CUT
62
1
10
592.3000
20
306.0000
30
0.0
11
592.3000
21
438.6000
31
0.0
0
LINE
8
CUT
62
1
10
592.3000
20
438.6000
30
0.0
11
451.7000
21
438.6000
31
0.0
0
LINE
8
CUT
62
1
10
451.7000
20
438.6000
30
0.0
11
451.7000
21
306.0000
31
0.0
0
LINE
8
ENGRAVE
62
5
10
24.5000
20
446.0000
30
0.0
11
224.5000
21
446.0000
31
0.0
0
LINE
8
ENGRAVE
62
5
10
224.5000
20
446.0000
30
0.0
11
224.5000
21
566.0000
31
0.0
0
LINE
8
ENGRAVE
62
5
10
224.5000
20
566.0000
30
0.0
11
24.5000
21
566.0000
31
0.0
0
LINE
8
ENGRAVE
62
5
10
24.5000
20
566.0000
30
0.0
11
24.5000
21
446.0000
31
0.0
0
CIRCLE
8
ENGRAVE
62
5
10
74.2500
20
480.2860
30
0.0
40
17.7500
0
CIRCLE
8
ENGRAVE
62
5
10
174.7500
20
531.7140
30
0.0
40
17.7500
0
TEXT
8
ENGRAVE
62
5
10
118.5000
20
503.5000
30
0.0
40
5.0000
1
s03
0
LINE
8
ENGRAVE
62
5
10
229.5000
20
446.0000
30
0.0
11
429.5000
21
446.0000
31
0.0
0
LINE
8
ENGRAVE
62
5
10
429.5000
20
446.0000
30
0.0
11
429.5000
21
566.0000
31
0.0
0
LINE
8
ENGRAVE
62
5
10
429.5000
20
566.0000
30
0.0
11
229.5000
21
566.0000
31
0.0
0
LINE
8
ENGRAVE
62
5
10
229.5000
20
566.0000
30
0.0
11
229.5000
21
446.0000
31
0.0
0
CIRCLE
8
ENGRAVE
62
5
10
279.2500
20
480.2860
30
0.0
40
17.7500
0
CIRCLE
8
ENGRAVE
62
5
10
379.7500
20
531.7140
30
0.0
40
17.7500
0
TEXT
8
ENGRAVE
62
5
10
323.5000
20
503.5000
30
0.0
40
5.0000
1
s04
0
LINE
8
ENGRAVE
62
5
10
434.5000
20
446.0000
30
0.0
11
634.5000
21
446.0000
31
0.0
0
LINE
8
ENGRAVE
62
5
10
634.5000
20
446.0000
30
0.0
11
634.5000
21
566.0000
31
0.0
0
LINE
8
ENGRAVE
62
5
10
634.5000
20
566.0000
30
0.0
11
434.5000
21
566.0000
31
0.0
0
LINE
8
ENGRAVE
62
5
10
434.5000
20
566.0000
30
0.0
11
434.5000
21
446.0000
31
0.0
0
CIRCLE
8
ENGRAVE
62
5
10
484.2500
20
480.2860
30
0.0
40
17.7500
0
CIRCLE
8
ENGRAVE
62
5
10
584.7500
20
531.7140
30
0.0
40
17.7500
0
TEXT
8
ENGRAVE
62
5
10
528.5000
20
503.5000
30
0.0
40
5.0000
1
s05
0
LINE
8
ENGRAVE
62
5
10
639.5000
20
446.0000
30
0.0
11
739.5000
21
446.0000
31
0.0
0
LINE
8
ENGRAVE
62
5
10
739.5000
20
446.0000
30
0.0
11
739.5000
21
566.0000
31
0.0
0
LINE
8
ENGRAVE
62
5
10
739.5000
20
566.0000
30
0.0
11
639.5000
21
566.0000
31
0.0
0
LINE
8
ENGRAVE
62
5
10
639.5000
20
566.0000
30
0.0
11
639.5000
21
446.0000
31
0.0
0
CIRCLE
8
ENGRAVE
62
5
10
689.5000
20
480.2860
30
0.0
40
17.7500
0
CIRCLE
8
ENGRAVE
62
5
10
689.5000
20
531.7140
30
0.0
40
17.7500
0
TEXT
8
ENGRAVE
62
5
10
683.5000
20
503.5000
30
0.0
40
5.0000
1
h01
0
TEXT
8
ENGRAVE
62
5
10
510.0000
20
369.3000
30
0.0
40
8.0000
1
S1
0
TEXT
8
ENGRAVE
62
5
10
16.0000
20
300.0000
30
0.0
40
6.0000
1
station2 (station)
0
ENDSEC
0
EOF
