0
SECTION
2
HEADER
9
$ACADVER
1
AC1009
0
ENDSEC
0
SECTION
2
TABLES
0
TABLE
2
LAYER
70
2
0
LAYER
2
CUT
70
0
62
1
6
CONTINUOUS
0
LAYER
2
ENGRAVE
70
0
62
5
6
CONTINUOUS
0
LAYER
2
SHEET
70
0
62
3
6
CONTINUOUS
0
ENDTAB
0
ENDSEC
0
SECTION
2
ENTITIES
0
LINE
8
SHEET
62
3
10
0.0000
20
0.0000
30
0.0
11
800.0000
21
0.0000
31
0.0
0
LINE
8
SHEET
62
3
10
800.0000
20
0.0000
30
0.0
11
800.0000
21
600.0000
31
0.0
0
LINE
8
SHEET
62
3
10
800.0000
20
600.0000
30
0.0
11
0.0000
21
600.0000
31
0.0
0
LINE
8
SHEET
62
3
10
0.0000
20
600.0000
30
0.0
11
0.0000
21
0.0000
31
0.0
0
TEXT
8
SHEET
62
3
10
2.0000
20
594.0000
30
0.0
40
4.0000
1
ARES_Mauer guides sheet 2/4 - CUT lines kerf-compensated for 0.3 mm
0
LINE
8
CUT
62
1
10
552.8400
20
21.8500
30
0.0
11
552.8400
21
402.1500
31
0.0
0
LINE
8
CUT
62
1
10
552.8400
20
402.1500
30
0.0
11
9.8500
21
402.1500
31
0.0
0
LINE
8
CUT
62
1
10
9.8500
20
402.1500
30
0.0
11
9.8500
21
353.8077
31
0.0
0
LINE
8
CUT
62
1
10
9.8500
20
353.8077
30
0.0
11
21.9000
21
359.8077
31
0.0
0
LINE
8
CUT
62
1
10
21.9000
20
359.8077
30
0.0
11
21.9000
21
324.1923
31
0.0
0
LINE
8
CUT
62
1
10
21.9000
20
324.1923
30
0.0
11
9.8500
21
330.1923
31
0.0
0
LINE
8
CUT
62
1
10
9.8500
20
330.1923
30
0.0
11
9.8500
21
281.8500
31
0.0
0
LINE
8
CUT
62
1
10
9.8500
20
281.8500
30
0.0
11
27.1242
21
281.8500
31
0.0
0
LINE
8
CUT
62
1
10
27.1242
20
281.8500
30
0.0
11
30.0000
21
277.9471
31
0.0
0
LINE
8
CUT
62
1
10
30.0000
20
277.9471
30
0.0
11
32.8758
21
281.8500
31
0.0
0
LINE
8
CUT
62
1
10
32.8758
20
281.8500
30
0.0
11
227.1242
21
281.8500
31
0.0
0
LINE
8
CUT
62
1
10
227.1242
20
281.8500
30
0.0
11
230.0000
21
277.9471
31
0.0
0
LINE
8
CUT
62
1
10
230.0000
20
277.9471
30
0.0
11
232.8758
21
281.8500
31
0.0
0
LINE
8
CUT
62
1
10
232.8758
20
281.8500
30
0.0
11
432.5400
21
281.8500
31
0.0
0
LINE
8
CUT
62
1
10
432.5400
20
281.8500
30
0.0
11
432.5400
21
204.8758
31
0.0
0
LINE
8
CUT
62
1
10
432.5400
20
204.8758
30
0.0
11
428.6371
21
202.0000
31
0.0
0
LINE
8
CUT
62
1
10
428.6371
20
202.0000
30
0.0
11
432.5400
21
199.1242
31
0.0
0
LINE
8
CUT
62
1
10
432.5400
20
199.1242
30
0.0
11
432.5400
21
21.8500
31
0.0
0
LINE
8
CUT
62
1
10
432.5400
20
21.8500
30
0.0
11
480.4473
21
21.8500
31
0.0
0
LINE
8
CUT
62
1
10
480.4473
20
21.8500
30
0.0
11
474.4473
21
9.8500
31
0.0
0
LINE
8
CUT
62
1
10
474.4473
20
9.8500
30
0.0
11
510.9327
21
9.8500
31
0.0
0
LINE
8
CUT
62
1
10
510.9327
20
9.8500
30
0.0
11
504.9327
21
21.8500
31
0.0
0
LINE
8
CUT
62
1
10
504.9327
20
21.8500
30
0.0
11
552.8400
21
21.8500
31
0.0
0
CIRCLE
8
CUT
62
1
10
518.4040
20
51.7500
30
0.0
40
4.0000
0
CIRCLE
8
CUT
62
1
10
466.9760
20
152.2500
30
0.0
40
4.0000
0
CIRCLE
8
CUT
62
1
10
518.4040
20
251.7500
30
0.0
40
4.0000
0
CIRCLE
8
CUT
62
1
10
466.9760
20
352.2500
30
0.0
40
4.0000
0
CIRCLE
8
CUT
62
1
10
380.2500
20
367.7140
30
0.0
40
4.0000
0
CIRCLE
8
CUT
62
1
10
279.7500
20
316.2860
30
0.0
40
4.0000
0
CIRCLE
8
CUT
62
1
10
180.2500
20
367.7140
30
0.0
40
4.0000
0
CIRCLE
8
CUT
62
1
10
79.7500
20
316.2860
30
0.0
40
4.0000
0
LINE
8
ENGRAVE
62
5
10
552.6900
20
2.0000
30
0.0
11
552.6900
21
202.0000
31
0.0
0
LINE
8
ENGRAVE
62
5
10
552.6900
20
202.0000
30
0.0
11
432.6900
21
202.0000
31
0.0
0
LINE
8
ENGRAVE
62
5
10
432.6900
20
202.0000
30
0.0
11
432.6900
21
2.0000
31
0.0
0
LINE
8
ENGRAVE
62
5
10
432.6900
20
2.0000
30
0.0
11
552.6900
21
2.0000
31
0.0
0
CIRCLE
8
ENGRAVE
62
5
10
518.4040
20
51.7500
30
0.0
40
17.7500
0
CIRCLE
8
ENGRAVE
62
5
10
466.9760
20
152.2500
30
0.0
40
17.7500
0
TEXT
8
ENGRAVE
62
5
10
495.1900
20
96.0000
30
0.0
40
5.0000
1
A3
0
LINE
8
ENGRAVE
62
5
10
552.6900
20
202.0000
30
0.0
11
552.6900
21
402.0000
31
0.0
0
LINE
8
ENGRAVE
62
5
10
552.6900
20
402.0000
30
0.0
11
432.6900
21
402.0000
31
0.0
0
LINE
8
ENGRAVE
62
5
10
432.6900
20
402.0000
30
0.0
11
432.6900
21
202.0000
31
0.0
0
LINE
8
ENGRAVE
62
5
10
432.6900
20
202.0000
30
0.0
11
552.6900
21
202.0000
31
0.0
0
CIRCLE
8
ENGRAVE
62
5
10
518.4040
20
251.7500
30
0.0
40
17.7500
0
CIRCLE
8
ENGRAVE
62
5
10
466.9760
20
352.2500
30
0.0
40
17.7500
0
TEXT
8
ENGRAVE
62
5
10
495.1900
20
296.0000
30
0.0
40
5.0000
1
A4
0
LINE
8
ENGRAVE
62
5
10
430.0000
20
402.0000
30
0.0
11
230.0000
21
402.0000
31
0.0
0
LINE
8
ENGRAVE
62
5
10
230.0000
20
402.0000
30
0.0
11
230.0000
21
282.0000
31
0.0
0
LINE
8
ENGRAVE
62
5
10
230.0000
20
282.0000
30
0.0
11
430.0000
21
282.0000
31
0.0
0
LINE
8
ENGRAVE
62
5
10
430.0000
20
282.0000
30
0.0
11
430.0000
21
402.0000
31
0.0
0
CIRCLE
8
ENGRAVE
62
5
10
380.2500
20
367.7140
30
0.0
40
17.7500
0
CIRCLE
8
ENGRAVE
62
5
10
279.7500
20
316.2860
30
0.0
40
17.7500
0
TEXT
8
ENGRAVE
62
5
10
332.5000
20
336.0000
30
0.0
40
5.0000
1
B0
0
LINE
8
ENGRAVE
62
5
10
230.0000
20
402.0000
30
0.0
11
30.0000
21
402.0000
31
0.0
0
LINE
8
ENGRAVE
62
5
10
30.0000
20
402.0000
30
0.0
11
30.0000
21
282.0000
31
0.0
0
LINE
8
ENGRAVE
62
5
10
30.0000
20
282.0000
30
0.0
11
230.0000
21
282.0000
31
0.0
0
LINE
8
ENGRAVE
62
5
10
230.0000
20
282.0000
30
0.0
11
230.0000
21
402.0000
31
0.0
0
CIRCLE
8
ENGRAVE
62
5
10
180.2500
20
367.7140
30
0.0
40
17.7500
0
CIRCLE
8
ENGRAVE
62
5
10
79.7500
20
316.2860
30
0.0
40
17.7500
0
TEXT
8
ENGRAVE
62
5
10
132.5000
20
336.0000
30
0.0
40
5.0000
1
B1
0
TEXT
8
ENGRAVE
62
5
10
441.6900
20
102.0000
30
0.0
40
5.0000
1
plate W1 ->
0
TEXT
8
ENGRAVE
62
5
10
130.0000
20
291.0000
30
0.0
40
5.0000
1
plate W2 ->
0
TEXT
8
ENGRAVE
62
5
10
548.6900
20
16.0000
30
0.0
40
6.0000
1
A3-B1 (corner A/B (A runs through))
0
LINE
8
CUT
62
1
10
21.8500
20
407.8500
30
0.0
11
622.1500
21
407.8500
31
0.0
0
LINE
8
CUT
62
1
10
622.1500
20
407.8500
30
0.0
11
622.1500
21
456.1923
31
0.0
0
LINE
8
CUT
62
1
10
622.1500
20
456.1923
30
0.0
11
610.1000
21
450.1923
31
0.0
0
LINE
8
CUT
62
1
10
610.1000
20
450.1923
30
0.0
11
610.1000
21
485.8077
31
0.0
0
LINE
8
CUT
62
1
10
610.1000
20
485.8077
30
0.0
11
622.1500
21
479.8077
31
0.0
0
LINE
8
CUT
62
1
10
622.1500
20
479.8077
30
0.0
11
622.1500
21
528.1500
31
0.0
0
LINE
8
CUT
62
1
10
622.1500
20
528.1500
30
0.0
11
604.8758
21
528.1500
31
0.0
0
LINE
8
CUT
62
1
10
604.8758
20
528.1500
30
0.0
11
602.0000
21
532.0529
31
0.0
0
LINE
8
CUT
62
1
10
602.0000
20
532.0529
30
0.0
11
599.1242
21
528.1500
31
0.0
0
LINE
8
CUT
62
1
10
599.1242
20
528.1500
30
0.0
11
404.8758
21
528.1500
31
0.0
0
LINE
8
CUT
62
1
10
404.8758
20
528.1500
30
0.0
11
402.0000
21
532.0529
31
0.0
0
LINE
8
CUT
62
1
10
402.0000
20
532.0529
30
0.0
11
399.1242
21
528.1500
31
0.0
0
LINE
8
CUT
62
1
10
399.1242
20
528.1500
30
0.0
11
204.8758
21
528.1500
31
0.0
0
LINE
8
CUT
62
1
10
204.8758
20
528.1500
30
0.0
11
202.0000
21
532.0529
31
0.0
0
LINE
8
CUT
62
1
10
202.0000
20
532.0529
30
0.0
11
199.1242
21
528.1500
31
0.0
0
LINE
8
CUT
62
1
10
199.1242
20
528.1500
30
0.0
11
21.8500
21
528.1500
31
0.0
0
LINE
8
CUT
62
1
10
21.8500
20
528.1500
30
0.0
11
21.8500
21
480.2427
31
0.0
0
LINE
8
CUT
62
1
10
21.8500
20
480.2427
30
0.0
11
9.8500
21
486.2427
31
0.0
0
LINE
8
CUT
62
1
10
9.8500
20
486.2427
30
0.0
11
9.8500
21
449.7573
31
0.0
0
LINE
8
CUT
62
1
10
9.8500
20
449.7573
30
0.0
11
21.8500
21
455.7573
31
0.0
0
LINE
8
CUT
62
1
10
21.8500
20
455.7573
30
0.0
11
21.8500
21
407.8500
31
0.0
0
CIRCLE
8
CUT
62
1
10
51.7500
20
442.2860
30
0.0
40
4.0000
0
CIRCLE
8
CUT
62
1
10
152.2500
20
493.7140
30
0.0
40
4.0000
0
CIRCLE
8
CUT
62
1
10
251.7500
20
442.2860
30
0.0
40
4.0000
0
CIRCLE
8
CUT
62
1
10
352.2500
20
493.7140
30
0.0
40
4.0000
0
CIRCLE
8
CUT
62
1
10
451.7500
20
442.2860
30
0.0
40
4.0000
0
CIRCLE
8
CUT
62
1
10
552.2500
20
493.7140
30
0.0
40
4.0000
0
LINE
8
ENGRAVE
62
5
10
2.0000
20
408.0000
30
0.0
11
202.0000
21
408.0000
31
0.0
0
LINE
8
ENGRAVE
62
5
10
202.0000
20
408.0000
30
0.0
11
202.0000
21
528.0000
31
0.0
0
LINE
8
ENGRAVE
62
5
10
202.0000
20
528.0000
30
0.0
11
2.0000
21
528.0000
31
0.0
0
LINE
8
ENGRAVE
62
5
10
2.0000
20
528.0000
30
0.0
11
2.0000
21
408.0000
31
0.0
0
CIRCLE
8
ENGRAVE
62
5
10
51.7500
20
442.2860
30
0.0
40
17.7500
0
CIRCLE
8
ENGRAVE
62
5
10
152.2500
20
493.7140
30
0.0
40
17.7500
0
TEXT
8
ENGRAVE
62
5
10
96.0000
20
465.5000
30
0.0
40
5.0000
1
B2
0
LINE
8
ENGRAVE
62
5
10
202.0000
20
408.0000
30
0.0
11
402.0000
21
408.0000
31
0.0
0
LINE
8
ENGRAVE
62
5
10
402.0000
20
408.0000
30
0.0
11
402.0000
21
528.0000
31
0.0
0
LINE
8
ENGRAVE
62
5
10
402.0000
20
528.0000
30
0.0
11
202.0000
21
528.0000
31
0.0
0
LINE
8
ENGRAVE
62
5
10
202.0000
20
528.0000
30
0.0
11
202.0000
21
408.0000
31
0.0
0
CIRCLE
8
ENGRAVE
62
5
10
251.7500
20
442.2860
30
0.0
40
17.7500
0
CIRCLE
8
ENGRAVE
62
5
10
352.2500
20
493.7140
30
0.0
40
17.7500
0
TEXT
8
ENGRAVE
62
5
10
296.0000
20
465.5000
30
0.0
40
5.0000
1
B3
0
LINE
8
ENGRAVE
62
5
10
402.0000
20
408.0000
30
0.0
11
602.0000
21
408.0000
31
0.0
0
LINE
8
ENGRAVE
62
5
10
602.0000
20
408.0000
30
0.0
11
602.0000
21
528.0000
31
0.0
0
LINE
8
ENGRAVE
62
5
10
602.0000
20
528.0000
30
0.0
11
402.0000
21
528.0000
31
0.0
0
LINE
8
ENGRAVE
62
5
10
402.0000
20
528.0000
30
0.0
11
402.0000
21
408.0000
31
0.0
0
CIRCLE
8
ENGRAVE
62
5
10
451.7500
20
442.2860
30
0.0
40
17.7500
0
CIRCLE
8
ENGRAVE
62
5
10
552.2500
20
493.7140
30
0.0
40
17.7500
0
TEXT
8
ENGRAVE
62
5
10
496.0000
20
465.5000
30
0.0
40
5.0000
1
B4
0
TEXT
8
ENGRAVE
62
5
10
302.0000
20
519.0000
30
0.0
40
5.0000
1
plate W3 ->
0
TEXT
8
ENGRAVE
62
5
10
16.0000
20
412.0000
30
0.0
40
6.0000
1
B2-B4
0
ENDSEC
0
EOF
