0
SECTION
2
HEADER
9
$ACADVER
1
AC1009
0
ENDSEC
0
SECTION
2
TABLES
0
TABLE
2
LAYER
70
2
0
LAYER
2
CUT
70
0
62
1
6
CONTINUOUS
0
LAYER
2
ENGRAVE
70
0
62
5
6
CONTINUOUS
0
LAYER
2
SHEET
70
0
62
3
6
CONTINUOUS
0
ENDTAB
0
ENDSEC
0
SECTION
2
ENTITIES
0
LINE
8
SHEET
62
3
10
0.0000
20
0.0000
30
0.0
11
800.0000
21
0.0000
31
0.0
0
LINE
8
SHEET
62
3
10
800.0000
20
0.0000
30
0.0
11
800.0000
21
600.0000
31
0.0
0
LINE
8
SHEET
62
3
10
800.0000
20
600.0000
30
0.0
11
0.0000
21
600.0000
31
0.0
0
LINE
8
SHEET
62
3
10
0.0000
20
600.0000
30
0.0
11
0.0000
21
0.0000
31
0.0
0
TEXT
8
SHEET
62
3
10
2.0000
20
594.0000
30
0.0
40
4.0000
1
ARES_Mauer guides sheet 3/4 - CUT lines kerf-compensated for 0.3 mm
0
LINE
8
CUT
62
1
10
21.8500
20
9.8500
30
0.0
11
759.6500
21
9.8500
31
0.0
0
LINE
8
CUT
62
1
10
759.6500
20
9.8500
30
0.0
11
759.6500
21
290.1500
31
0.0
0
LINE
8
CUT
62
1
10
759.6500
20
290.1500
30
0.0
11
21.8500
21
290.1500
31
0.0
0
LINE
8
CUT
62
1
10
21.8500
20
290.1500
30
0.0
11
21.8500
21
232.2427
31
0.0
0
LINE
8
CUT
62
1
10
21.8500
20
232.2427
30
0.0
11
9.8500
21
238.2427
31
0.0
0
LINE
8
CUT
62
1
10
9.8500
20
238.2427
30
0.0
11
9.8500
21
201.7573
31
0.0
0
LINE
8
CUT
62
1
10
9.8500
20
201.7573
30
0.0
11
21.8500
21
207.7573
31
0.0
0
LINE
8
CUT
62
1
10
21.8500
20
207.7573
30
0.0
11
21.8500
21
98.5427
31
0.0
0
LINE
8
CUT
62
1
10
21.8500
20
98.5427
30
0.0
11
9.8500
21
104.5427
31
0.0
0
LINE
8
CUT
62
1
10
9.8500
20
104.5427
30
0.0
11
9.8500
21
68.0573
31
0.0
0
LINE
8
CUT
62
1
10
9.8500
20
68.0573
30
0.0
11
21.8500
21
74.0573
31
0.0
0
LINE
8
CUT
62
1
10
21.8500
20
74.0573
30
0.0
11
21.8500
21
9.8500
31
0.0
0
CIRCLE
8
CUT
62
1
10
74.2500
20
194.2860
30
0.0
40
4.0000
0
CIRCLE
8
CUT
62
1
10
174.7500
20
245.7140
30
0.0
40
4.0000
0
CIRCLE
8
CUT
62
1
10
279.2500
20
194.2860
30
0.0
40
4.0000
0
CIRCLE
8
CUT
62
1
10
379.7500
20
245.7140
30
0.0
40
4.0000
0
CIRCLE
8
CUT
62
1
10
484.2500
20
194.2860
30
0.0
40
4.0000
0
CIRCLE
8
CUT
62
1
10
584.7500
20
245.7140
30
0.0
40
4.0000
0
CIRCLE
8
CUT
62
1
10
689.5000
20
194.2860
30
0.0
40
4.0000
0
CIRCLE
8
CUT
62
1
10
689.5000
20
245.7140
30
0.0
40
4.0000
0
LINE
8
CUT
62
1
10
451.8500
20
20.1500
30
0.0
11
592.1500
21
20.1500
31
0.0
0
LINE
8
CUT
62
1
10
592.1500
20
20.1500
30
0.0
11
592.1500
21
152.4500
31
0.0
0
LINE
8
CUT
62
1
10
592.1500
20
152.4500
30
0.0
11
451.8500
21
152.4500
31
0.0
0
LINE
8
CUT
62
1
10
451.8500
20
152.4500
30
0.0
11
451.8500
21
20.1500
31
0.0
0
LINE
8
ENGRAVE
62
5
10
24.5000
20
160.0000
30
0.0
11
224.5000
21
160.0000
31
0.0
0
LINE
8
ENGRAVE
62
5
10
224.5000
20
160.0000
30
0.0
11
224.5000
21
280.0000
31
0.0
0
LINE
8
ENGRAVE
62
5
10
224.5000
20
280.0000
30
0.0
11
24.5000
21
280.0000
31
0.0
0
LINE
8
ENGRAVE
62
5
10
24.5000
20
280.0000
30
0.0
11
24.5000
21
160.0000
31
0.0
0
CIRCLE
8
ENGRAVE
62
5
10
74.2500
20
194.2860
30
0.0
40
17.7500
0
CIRCLE
8
ENGRAVE
62
5
10
174.7500
20
245.7140
30
0.0
40
17.7500
0
TEXT
8
ENGRAVE
62
5
10
118.5000
20
217.5000
30
0.0
40
5.0000
1
s03
0
LINE
8
ENGRAVE
62
5
10
229.5000
20
160.0000
30
0.0
11
429.5000
21
160.0000
31
0.0
0
LINE
8
ENGRAVE
62
5
10
429.5000
20
160.0000
30
0.0
11
429.5000
21
280.0000
31
0.0
0
LINE
8
ENGRAVE
62
5
10
429.5000
20
280.0000
30
0.0
11
229.5000
21
280.0000
31
0.0
0
LINE
8
ENGRAVE
62
5
10
229.5000
20
280.0000
30
0.0
11
229.5000
21
160.0000
31
0.0
0
CIRCLE
8
ENGRAVE
62
5
10
279.2500
20
194.2860
30
0.0
40
17.7500
0
CIRCLE
8
ENGRAVE
62
5
10
379.7500
20
245.7140
30
0.0
40
17.7500
0
TEXT
8
ENGRAVE
62
5
10
323.5000
20
217.5000
30
0.0
40
5.0000
1
s04
0
LINE
8
ENGRAVE
62
5
10
434.5000
20
160.0000
30
0.0
11
634.5000
21
160.0000
31
0.0
0
LINE
8
ENGRAVE
62
5
10
634.5000
20
160.0000
30
0.0
11
634.5000
21
280.0000
31
0.0
0
LINE
8
ENGRAVE
62
5
10
634.5000
20
280.0000
30
0.0
11
434.5000
21
280.0000
31
0.0
0
LINE
8
ENGRAVE
62
5
10
434.5000
20
280.0000
30
0.0
11
434.5000
21
160.0000
31
0.0
0
CIRCLE
8
ENGRAVE
62
5
10
484.2500
20
194.2860
30
0.0
40
17.7500
0
CIRCLE
8
ENGRAVE
62
5
10
584.7500
20
245.7140
30
0.0
40
17.7500
0
TEXT
8
ENGRAVE
62
5
10
528.5000
20
217.5000
30
0.0
40
5.0000
1
s05
0
LINE
8
ENGRAVE
62
5
10
639.5000
20
160.0000
30
0.0
11
739.5000
21
160.0000
31
0.0
0
LINE
8
ENGRAVE
62
5
10
739.5000
20
160.0000
30
0.0
11
739.5000
21
280.0000
31
0.0
0
LINE
8
ENGRAVE
62
5
10
739.5000
20
280.0000
30
0.0
11
639.5000
21
280.0000
31
0.0
0
LINE
8
ENGRAVE
62
5
10
639.5000
20
280.0000
30
0.0
11
639.5000
21
160.0000
31
0.0
0
CIRCLE
8
ENGRAVE
62
5
10
689.5000
20
194.2860
30
0.0
40
17.7500
0
CIRCLE
8
ENGRAVE
62
5
10
689.5000
20
245.7140
30
0.0
40
17.7500
0
TEXT
8
ENGRAVE
62
5
10
683.5000
20
217.5000
30
0.0
40
5.0000
1
h01
0
TEXT
8
ENGRAVE
62
5
10
510.0000
20
83.3000
30
0.0
40
8.0000
1
S1
0
TEXT
8
ENGRAVE
62
5
10
16.0000
20
14.0000
30
0.0
40
6.0000
1
station2 (station)
0
LINE
8
CUT
62
1
10
21.8500
20
295.8500
30
0.0
11
422.1500
21
295.8500
31
0.0
0
LINE
8
CUT
62
1
10
422.1500
20
295.8500
30
0.0
11
422.1500
21
344.1923
31
0.0
0
LINE
8
CUT
62
1
10
422.1500
20
344.1923
30
0.0
11
410.1000
21
338.1923
31
0.0
0
LINE
8
CUT
62
1
10
410.1000
20
338.1923
30
0.0
11
410.1000
21
373.8077
31
0.0
0
LINE
8
CUT
62
1
10
410.1000
20
373.8077
30
0.0
11
422.1500
21
367.8077
31
0.0
0
LINE
8
CUT
62
1
10
422.1500
20
367.8077
30
0.0
11
422.1500
21
416.1500
31
0.0
0
LINE
8
CUT
62
1
10
422.1500
20
416.1500
30
0.0
11
404.8758
21
416.1500
31
0.0
0
LINE
8
CUT
62
1
10
404.8758
20
416.1500
30
0.0
11
402.0000
21
420.0529
31
0.0
0
LINE
8
CUT
62
1
10
402.0000
20
420.0529
30
0.0
11
399.1242
21
416.1500
31
0.0
0
LINE
8
CUT
62
1
10
399.1242
20
416.1500
30
0.0
11
204.8758
21
416.1500
31
0.0
0
LINE
8
CUT
62
1
10
204.8758
20
416.1500
30
0.0
11
202.0000
21
420.0529
31
0.0
0
LINE
8
CUT
62
1
10
202.0000
20
420.0529
30
0.0
11
199.1242
21
416.1500
31
0.0
0
LINE
8
CUT
62
1
10
199.1242
20
416.1500
30
0.0
11
21.8500
21
416.1500
31
0.0
0
LINE
8
CUT
62
1
10
21.8500
20
416.1500
30
0.0
11
21.8500
21
368.2427
31
0.0
0
LINE
8
CUT
62
1
10
21.8500
20
368.2427
30
0.0
11
9.8500
21
374.2427
31
0.0
0
LINE
8
CUT
62
1
10
9.8500
20
374.2427
30
0.0
11
9.8500
21
337.7573
31
0.0
0
LINE
8
CUT
62
1
10
9.8500
20
337.7573
30
0.0
11
21.8500
21
343.7573
31
0.0
0
LINE
8
CUT
62
1
10
21.8500
20
343.7573
30
0.0
11
21.8500
21
295.8500
31
0.0
0
CIRCLE
8
CUT
62
1
10
51.7500
20
330.2860
30
0.0
40
4.0000
0
CIRCLE
8
CUT
62
1
10
152.2500
20
381.7140
30
0.0
40
4.0000
0
CIRCLE
8
CUT
62
1
10
251.7500
20
330.2860
30
0.0
40
4.0000
0
CIRCLE
8
CUT
62
1
10
352.2500
20
381.7140
30
0.0
40
4.0000
0
LINE
8
ENGRAVE
62
5
10
2.0000
20
296.0000
30
0.0
11
202.0000
21
296.0000
31
0.0
0
LINE
8
ENGRAVE
62
5
10
202.0000
20
296.0000
30
0.0
11
202.0000
21
416.0000
31
0.0
0
LINE
8
ENGRAVE
62
5
10
202.0000
20
416.0000
30
0.0
11
2.0000
21
416.0000
31
0.0
0
LINE
8
ENGRAVE
62
5
10
2.0000
20
416.0000
30
0.0
11
2.0000
21
296.0000
31
0.0
0
CIRCLE
8
ENGRAVE
62
5
10
51.7500
20
330.2860
30
0.0
40
17.7500
0
CIRCLE
8
ENGRAVE
62
5
10
152.2500
20
381.7140
30
0.0
40
17.7500
0
TEXT
8
ENGRAVE
62
5
10
96.0000
20
353.5000
30
0.0
40
5.0000
1
A2
0
LINE
8
ENGRAVE
62
5
10
202.0000
20
296.0000
30
0.0
11
402.0000
21
296.0000
31
0.0
0
LINE
8
ENGRAVE
62
5
10
402.0000
20
296.0000
30
0.0
11
402.0000
21
416.0000
31
0.0
0
LINE
8
ENGRAVE
62
5
10
402.0000
20
416.0000
30
0.0
11
202.0000
21
416.0000
31
0.0
0
LINE
8
ENGRAVE
62
5
10
202.0000
20
416.0000
30
0.0
11
202.0000
21
296.0000
31
0.0
0
CIRCLE
8
ENGRAVE
62
5
10
251.7500
20
330.2860
30
0.0
40
17.7500
0
CIRCLE
8
ENGRAVE
62
5
10
352.2500
20
381.7140
30
0.0
40
17.7500
0
TEXT
8
ENGRAVE
62
5
10
296.0000
20
353.5000
30
0.0
40
5.0000
1
A3
0
TEXT
8
ENGRAVE
62
5
10
302.0000
20
407.0000
30
0.0
40
5.0000
1
plate W1 ->
0
TEXT
8
ENGRAVE
62
5
10
16.0000
20
300.0000
30
0.0
40
6.0000
1
A2-A3
0
LINE
8
CUT
62
1
10
21.8500
20
425.6500
30
0.0
11
622.1500
21
425.6500
31
0.0
0
LINE
8
CUT
62
1
10
622.1500
20
425.6500
30
0.0
11
622.1500
21
473.9923
31
0.0
0
LINE
8
CUT
62
1
10
622.1500
20
473.9923
30
0.0
11
610.1000
21
467.9923
31
0.0
0
LINE
8
CUT
62
1
10
610.1000
20
467.9923
30
0.0
11
610.1000
21
503.6077
31
0.0
0
LINE
8
CUT
62
1
10
610.1000
20
503.6077
30
0.0
11
622.1500
21
497.6077
31
0.0
0
LINE
8
CUT
62
1
10
622.1500
20
497.6077
30
0.0
11
622.1500
21
545.9500
31
0.0
0
LINE
8
CUT
62
1
10
622.1500
20
545.9500
30
0.0
11
604.8758
21
545.9500
31
0.0
0
LINE
8
CUT
62
1
10
604.8758
20
545.9500
30
0.0
11
602.0000
21
549.8529
31
0.0
0
LINE
8
CUT
62
1
10
602.0000
20
549.8529
30
0.0
11
599.1242
21
545.9500
31
0.0
0
LINE
8
CUT
62
1
10
599.1242
20
545.9500
30
0.0
11
404.8758
21
545.9500
31
0.0
0
LINE
8
CUT
62
1
10
404.8758
20
545.9500
30
0.0
11
402.0000
21
549.8529
31
0.0
0
LINE
8
CUT
62
1
10
402.0000
20
549.8529
30
0.0
11
399.1242
21
545.9500
31
0.0
0
LINE
8
CUT
62
1
10
399.1242
20
545.9500
30
0.0
11
204.8758
21
545.9500
31
0.0
0
LINE
8
CUT
62
1
10
204.8758
20
545.9500
30
0.0
11
202.0000
21
549.8529
31
0.0
0
LINE
8
CUT
62
1
10
202.0000
20
549.8529
30
0.0
11
199.1242
21
545.9500
31
0.0
0
LINE
8
CUT
62
1
10
199.1242
20
545.9500
30
0.0
11
21.8500
21
545.9500
31
0.0
0
LINE
8
CUT
62
1
10
21.8500
20
545.9500
30
0.0
11
21.8500
21
498.0427
31
0.0
0
LINE
8
CUT
62
1
10
21.8500
20
498.0427
30
0.0
11
9.8500
21
504.0427
31
0.0
0
LINE
8
CUT
62
1
10
9.8500
20
504.0427
30
0.0
11
9.8500
21
467.5573
31
0.0
0
LINE
8
CUT
62
1
10
9.8500
20
467.5573
30
0.0
11
21.8500
21
473.5573
31
0.0
0
LINE
8
CUT
62
1
10
21.8500
20
473.5573
30
0.0
11
21.8500
21
425.6500
31
0.0
0
CIRCLE
8
CUT
62
1
10
51.7500
20
460.0860
30
0.0
40
4.0000
0
CIRCLE
8
CUT
62
1
10
152.2500
20
511.5140
30
0.0
40
4.0000
0
CIRCLE
8
CUT
62
1
10
251.7500
20
460.0860
30
0.0
40
4.0000
0
CIRCLE
8
CUT
62
1
10
352.2500
20
511.5140
30
0.0
40
4.0000
0
CIRCLE
8
CUT
62
1
10
451.7500
20
460.0860
30
0.0
40
4.0000
0
CIRCLE
8
CUT
62
1
10
552.2500
20
511.5140
30
0.0
40
4.0000
0
LINE
8
ENGRAVE
62
5
10
2.0000
20
425.8000
30
0.0
11
202.0000
21
425.8000
31
0.0
0
LINE
8
ENGRAVE
62
5
10
202.0000
20
425.8000
30
0.0
11
202.0000
21
545.8000
31
0.0
0
LINE
8
ENGRAVE
62
5
10
202.0000
20
545.8000
30
0.0
11
2.0000
21
545.8000
31
0.0
0
LINE
8
ENGRAVE
62
5
10
2.0000
20
545.8000
30
0.0
11
2.0000
21
425.8000
31
0.0
0
CIRCLE
8
ENGRAVE
62
5
10
51.7500
20
460.0860
30
0.0
40
17.7500
0
CIRCLE
8
ENGRAVE
62
5
10
152.2500
20
511.5140
30
0.0
40
17.7500
0
TEXT
8
ENGRAVE
62
5
10
96.0000
20
483.3000
30
0.0
40
5.0000
1
B2
0
LINE
8
ENGRAVE
62
5
10
202.0000
20
425.8000
30
0.0
11
402.0000
21
425.8000
31
0.0
0
LINE
8
ENGRAVE
62
5
10
402.0000
20
425.8000
30
0.0
11
402.0000
21
545.8000
31
0.0
0
LINE
8
ENGRAVE
62
5
10
402.0000
20
545.8000
30
0.0
11
202.0000
21
545.8000
31
0.0
0
LINE
8
ENGRAVE
62
5
10
202.0000
20
545.8000
30
0.0
11
202.0000
21
425.8000
31
0.0
0
CIRCLE
8
ENGRAVE
62
5
10
251.7500
20
460.0860
30
0.0
40
17.7500
0
CIRCLE
8
ENGRAVE
62
5
10
352.2500
20
511.5140
30
0.0
40
17.7500
0
TEXT
8
ENGRAVE
62
5
10
296.0000
20
483.3000
30
0.0
40
5.0000
1
B3
0
LINE
8
ENGRAVE
62
5
10
402.0000
20
425.8000
30
0.0
11
602.0000
21
425.8000
31
0.0
0
LINE
8
ENGRAVE
62
5
10
602.0000
20
425.8000
30
0.0
11
602.0000
21
545.8000
31
0.0
0
LINE
8
ENGRAVE
62
5
10
602.0000
20
545.8000
30
0.0
11
402.0000
21
545.8000
31
0.0
0
LINE
8
ENGRAVE
62
5
10
402.0000
20
545.8000
30
0.0
11
402.0000
21
425.8000
31
0.0
0
CIRCLE
8
ENGRAVE
62
5
10
451.7500
20
460.0860
30
0.0
40
17.7500
0
CIRCLE
8
ENGRAVE
62
5
10
552.2500
20
511.5140
30
0.0
40
17.7500
0
TEXT
8
ENGRAVE
62
5
10
496.0000
20
483.3000
30
0.0
40
5.0000
1
B4
0
TEXT
8
ENGRAVE
62
5
10
302.0000
20
536.8000
30
0.0
40
5.0000
1
plate W3 ->
0
TEXT
8
ENGRAVE
62
5
10
16.0000
20
429.8000
30
0.0
40
6.0000
1
B2-B4
0
ENDSEC
0
EOF
