0
SECTION
2
HEADER
9
$ACADVER
1
AC1009
0
ENDSEC
0
SECTION
2
TABLES
0
TABLE
2
LAYER
70
2
0
LAYER
2
CUT
70
0
62
1
6
CONTINUOUS
0
LAYER
2
ENGRAVE
70
0
62
5
6
CONTINUOUS
0
LAYER
2
SHEET
70
0
62
3
6
CONTINUOUS
0
ENDTAB
0
ENDSEC
0
SECTION
2
ENTITIES
0
LINE
8
SHEET
62
3
10
0.0000
20
0.0000
30
0.0
11
800.0000
21
0.0000
31
0.0
0
LINE
8
SHEET
62
3
10
800.0000
20
0.0000
30
0.0
11
800.0000
21
600.0000
31
0.0
0
LINE
8
SHEET
62
3
10
800.0000
20
600.0000
30
0.0
11
0.0000
21
600.0000
31
0.0
0
LINE
8
SHEET
62
3
10
0.0000
20
600.0000
30
0.0
11
0.0000
21
0.0000
31
0.0
0
TEXT
8
SHEET
62
3
10
2.0000
20
594.0000
30
0.0
40
4.0000
1
ARES_Mauer guides sheet 4/4
0
LINE
8
CUT
62
1
10
22.0000
20
10.0000
30
0.0
11
422.0000
21
10.0000
31
0.0
0
LINE
8
CUT
62
1
10
422.0000
20
10.0000
30
0.0
11
422.0000
21
57.9000
31
0.0
0
LINE
8
CUT
62
1
10
422.0000
20
57.9000
30
0.0
11
409.9000
21
51.9000
31
0.0
0
LINE
8
CUT
62
1
10
409.9000
20
51.9000
30
0.0
11
409.9000
21
88.1000
31
0.0
0
LINE
8
CUT
62
1
10
409.9000
20
88.1000
30
0.0
11
422.0000
21
82.1000
31
0.0
0
LINE
8
CUT
62
1
10
422.0000
20
82.1000
30
0.0
11
422.0000
21
130.0000
31
0.0
0
LINE
8
CUT
62
1
10
422.0000
20
130.0000
30
0.0
11
404.8000
21
130.0000
31
0.0
0
LINE
8
CUT
62
1
10
404.8000
20
130.0000
30
0.0
11
402.0000
21
133.8000
31
0.0
0
LINE
8
CUT
62
1
10
402.0000
20
133.8000
30
0.0
11
399.2000
21
130.0000
31
0.0
0
LINE
8
CUT
62
1
10
399.2000
20
130.0000
30
0.0
11
204.8000
21
130.0000
31
0.0
0
LINE
8
CUT
62
1
10
204.8000
20
130.0000
30
0.0
11
202.0000
21
133.8000
31
0.0
0
LINE
8
CUT
62
1
10
202.0000
20
133.8000
30
0.0
11
199.2000
21
130.0000
31
0.0
0
LINE
8
CUT
62
1
10
199.2000
20
130.0000
30
0.0
11
22.0000
21
130.0000
31
0.0
0
LINE
8
CUT
62
1
10
22.0000
20
130.0000
30
0.0
11
22.0000
21
82.0000
31
0.0
0
LINE
8
CUT
62
1
10
22.0000
20
82.0000
30
0.0
11
10.0000
21
88.0000
31
0.0
0
LINE
8
CUT
62
1
10
10.0000
20
88.0000
30
0.0
11
10.0000
21
52.0000
31
0.0
0
LINE
8
CUT
62
1
10
10.0000
20
52.0000
30
0.0
11
22.0000
21
58.0000
31
0.0
0
LINE
8
CUT
62
1
10
22.0000
20
58.0000
30
0.0
11
22.0000
21
10.0000
31
0.0
0
CIRCLE
8
CUT
62
1
10
51.7500
20
44.2860
30
0.0
40
4.1500
0
CIRCLE
8
CUT
62
1
10
152.2500
20
95.7140
30
0.0
40
4.1500
0
CIRCLE
8
CUT
62
1
10
251.7500
20
44.2860
30
0.0
40
4.1500
0
CIRCLE
8
CUT
62
1
10
352.2500
20
95.7140
30
0.0
40
4.1500
0
LINE
8
ENGRAVE
62
5
10
2.0000
20
10.0000
30
0.0
11
202.0000
21
10.0000
31
0.0
0
LINE
8
ENGRAVE
62
5
10
202.0000
20
10.0000
30
0.0
11
202.0000
21
130.0000
31
0.0
0
LINE
8
ENGRAVE
62
5
10
202.0000
20
130.0000
30
0.0
11
2.0000
21
130.0000
31
0.0
0
LINE
8
ENGRAVE
62
5
10
2.0000
20
130.0000
30
0.0
11
2.0000
21
10.0000
31
0.0
0
CIRCLE
8
ENGRAVE
62
5
10
51.7500
20
44.2860
30
0.0
40
17.7500
0
CIRCLE
8
ENGRAVE
62
5
10
152.2500
20
95.7140
30
0.0
40
17.7500
0
TEXT
8
ENGRAVE
62
5
10
96.0000
20
67.5000
30
0.0
40
5.0000
1
A6
0
LINE
8
ENGRAVE
62
5
10
202.0000
20
10.0000
30
0.0
11
402.0000
21
10.0000
31
0.0
0
LINE
8
ENGRAVE
62
5
10
402.0000
20
10.0000
30
0.0
11
402.0000
21
130.0000
31
0.0
0
LINE
8
ENGRAVE
62
5
10
402.0000
20
130.0000
30
0.0
11
202.0000
21
130.0000
31
0.0
0
LINE
8
ENGRAVE
62
5
10
202.0000
20
130.0000
30
0.0
11
202.0000
21
10.0000
31
0.0
0
CIRCLE
8
ENGRAVE
62
5
10
251.7500
20
44.2860
30
0.0
40
17.7500
0
CIRCLE
8
ENGRAVE
62
5
10
352.2500
20
95.7140
30
0.0
40
17.7500
0
TEXT
8
ENGRAVE
62
5
10
296.0000
20
67.5000
30
0.0
40
5.0000
1
A7
0
TEXT
8
ENGRAVE
62
5
10
16.0000
20
14.0000
30
0.0
40
6.0000
1
A6-A7
0
LINE
8
CUT
62
1
10
22.0000
20
139.8000
30
0.0
11
622.0000
21
139.8000
31
0.0
0
LINE
8
CUT
62
1
10
622.0000
20
139.8000
30
0.0
11
622.0000
21
187.7000
31
0.0
0
LINE
8
CUT
62
1
10
622.0000
20
187.7000
30
0.0
11
609.9000
21
181.7000
31
0.0
0
LINE
8
CUT
62
1
10
609.9000
20
181.7000
30
0.0
11
609.9000
21
217.9000
31
0.0
0
LINE
8
CUT
62
1
10
609.9000
20
217.9000
30
0.0
11
622.0000
21
211.9000
31
0.0
0
LINE
8
CUT
62
1
10
622.0000
20
211.9000
30
0.0
11
622.0000
21
259.8000
31
0.0
0
LINE
8
CUT
62
1
10
622.0000
20
259.8000
30
0.0
11
604.8000
21
259.8000
31
0.0
0
LINE
8
CUT
62
1
10
604.8000
20
259.8000
30
0.0
11
602.0000
21
263.6000
31
0.0
0
LINE
8
CUT
62
1
10
602.0000
20
263.6000
30
0.0
11
599.2000
21
259.8000
31
0.0
0
LINE
8
CUT
62
1
10
599.2000
20
259.8000
30
0.0
11
404.8000
21
259.8000
31
0.0
0
LINE
8
CUT
62
1
10
404.8000
20
259.8000
30
0.0
11
402.0000
21
263.6000
31
0.0
0
LINE
8
CUT
62
1
10
402.0000
20
263.6000
30
0.0
11
399.2000
21
259.8000
31
0.0
0
LINE
8
CUT
62
1
10
399.2000
20
259.8000
30
0.0
11
204.8000
21
259.8000
31
0.0
0
LINE
8
CUT
62
1
10
204.8000
20
259.8000
30
0.0
11
202.0000
21
263.6000
31
0.0
0
LINE
8
CUT
62
1
10
202.0000
20
263.6000
30
0.0
11
199.2000
21
259.8000
31
0.0
0
LINE
8
CUT
62
1
10
199.2000
20
259.8000
30
0.0
11
22.0000
21
259.8000
31
0.0
0
LINE
8
CUT
62
1
10
22.0000
20
259.8000
30
0.0
11
22.0000
21
211.8000
31
0.0
0
LINE
8
CUT
62
1
10
22.0000
20
211.8000
30
0.0
11
10.0000
21
217.8000
31
0.0
0
LINE
8
CUT
62
1
10
10.0000
20
217.8000
30
0.0
11
10.0000
21
181.8000
31
0.0
0
LINE
8
CUT
62
1
10
10.0000
20
181.8000
30
0.0
11
22.0000
21
187.8000
31
0.0
0
LINE
8
CUT
62
1
10
22.0000
20
187.8000
30
0.0
11
22.0000
21
139.8000
31
0.0
0
CIRCLE
8
CUT
62
1
10
51.7500
20
174.0860
30
0.0
40
4.1500
0
CIRCLE
8
CUT
62
1
10
152.2500
20
225.5140
30
0.0
40
4.1500
0
CIRCLE
8
CUT
62
1
10
251.7500
20
174.0860
30
0.0
40
4.1500
0
CIRCLE
8
CUT
62
1
10
352.2500
20
225.5140
30
0.0
40
4.1500
0
CIRCLE
8
CUT
62
1
10
451.7500
20
174.0860
30
0.0
40
4.1500
0
CIRCLE
8
CUT
62
1
10
552.2500
20
225.5140
30
0.0
40
4.1500
0
LINE
8
ENGRAVE
62
5
10
2.0000
20
139.8000
30
0.0
11
202.0000
21
139.8000
31
0.0
0
LINE
8
ENGRAVE
62
5
10
202.0000
20
139.8000
30
0.0
11
202.0000
21
259.8000
31
0.0
0
LINE
8
ENGRAVE
62
5
10
202.0000
20
259.8000
30
0.0
11
2.0000
21
259.8000
31
0.0
0
LINE
8
ENGRAVE
62
5
10
2.0000
20
259.8000
30
0.0
11
2.0000
21
139.8000
31
0.0
0
CIRCLE
8
ENGRAVE
62
5
10
51.7500
20
174.0860
30
0.0
40
17.7500
0
CIRCLE
8
ENGRAVE
62
5
10
152.2500
20
225.5140
30
0.0
40
17.7500
0
TEXT
8
ENGRAVE
62
5
10
96.0000
20
197.3000
30
0.0
40
5.0000
1
B2
0
LINE
8
ENGRAVE
62
5
10
202.0000
20
139.8000
30
0.0
11
402.0000
21
139.8000
31
0.0
0
LINE
8
ENGRAVE
62
5
10
402.0000
20
139.8000
30
0.0
11
402.0000
21
259.8000
31
0.0
0
LINE
8
ENGRAVE
62
5
10
402.0000
20
259.8000
30
0.0
11
202.0000
21
259.8000
31
0.0
0
LINE
8
ENGRAVE
62
5
10
202.0000
20
259.8000
30
0.0
11
202.0000
21
139.8000
31
0.0
0
CIRCLE
8
ENGRAVE
62
5
10
251.7500
20
174.0860
30
0.0
40
17.7500
0
CIRCLE
8
ENGRAVE
62
5
10
352.2500
20
225.5140
30
0.0
40
17.7500
0
TEXT
8
ENGRAVE
62
5
10
296.0000
20
197.3000
30
0.0
40
5.0000
1
B3
0
LINE
8
ENGRAVE
62
5
10
402.0000
20
139.8000
30
0.0
11
602.0000
21
139.8000
31
0.0
0
LINE
8
ENGRAVE
62
5
10
602.0000
20
139.8000
30
0.0
11
602.0000
21
259.8000
31
0.0
0
LINE
8
ENGRAVE
62
5
10
602.0000
20
259.8000
30
0.0
11
402.0000
21
259.8000
31
0.0
0
LINE
8
ENGRAVE
62
5
10
402.0000
20
259.8000
30
0.0
11
402.0000
21
139.8000
31
0.0
0
CIRCLE
8
ENGRAVE
62
5
10
451.7500
20
174.0860
30
0.0
40
17.7500
0
CIRCLE
8
ENGRAVE
62
5
10
552.2500
20
225.5140
30
0.0
40
17.7500
0
TEXT
8
ENGRAVE
62
5
10
496.0000
20
197.3000
30
0.0
40
5.0000
1
B4
0
TEXT
8
ENGRAVE
62
5
10
502.0000
20
250.8000
30
0.0
40
5.0000
1
plate W5 ->
0
TEXT
8
ENGRAVE
62
5
10
16.0000
20
143.8000
30
0.0
40
6.0000
1
B2-B4
0
LINE
8
CUT
62
1
10
22.0000
20
269.6000
30
0.0
11
602.0000
21
269.6000
31
0.0
0
LINE
8
CUT
62
1
10
602.0000
20
269.6000
30
0.0
11
602.0000
21
389.6000
31
0.0
0
LINE
8
CUT
62
1
10
602.0000
20
389.6000
30
0.0
11
404.8000
21
389.6000
31
0.0
0
LINE
8
CUT
62
1
10
404.8000
20
389.6000
30
0.0
11
402.0000
21
393.4000
31
0.0
0
LINE
8
CUT
62
1
10
402.0000
20
393.4000
30
0.0
11
399.2000
21
389.6000
31
0.0
0
LINE
8
CUT
62
1
10
399.2000
20
389.6000
30
0.0
11
204.8000
21
389.6000
31
0.0
0
LINE
8
CUT
62
1
10
204.8000
20
389.6000
30
0.0
11
202.0000
21
393.4000
31
0.0
0
LINE
8
CUT
62
1
10
202.0000
20
393.4000
30
0.0
11
199.2000
21
389.6000
31
0.0
0
LINE
8
CUT
62
1
10
199.2000
20
389.6000
30
0.0
11
22.0000
21
389.6000
31
0.0
0
LINE
8
CUT
62
1
10
22.0000
20
389.6000
30
0.0
11
22.0000
21
341.6000
31
0.0
0
LINE
8
CUT
62
1
10
22.0000
20
341.6000
30
0.0
11
10.0000
21
347.6000
31
0.0
0
LINE
8
CUT
62
1
10
10.0000
20
347.6000
30
0.0
11
10.0000
21
311.6000
31
0.0
0
LINE
8
CUT
62
1
10
10.0000
20
311.6000
30
0.0
11
22.0000
21
317.6000
31
0.0
0
LINE
8
CUT
62
1
10
22.0000
20
317.6000
30
0.0
11
22.0000
21
269.6000
31
0.0
0
CIRCLE
8
CUT
62
1
10
51.7500
20
303.8860
30
0.0
40
4.1500
0
CIRCLE
8
CUT
62
1
10
152.2500
20
355.3140
30
0.0
40
4.1500
0
CIRCLE
8
CUT
62
1
10
251.7500
20
303.8860
30
0.0
40
4.1500
0
CIRCLE
8
CUT
62
1
10
352.2500
20
355.3140
30
0.0
40
4.1500
0
CIRCLE
8
CUT
62
1
10
451.7500
20
303.8860
30
0.0
40
4.1500
0
CIRCLE
8
CUT
62
1
10
552.2500
20
355.3140
30
0.0
40
4.1500
0
LINE
8
ENGRAVE
62
5
10
2.0000
20
269.6000
30
0.0
11
202.0000
21
269.6000
31
0.0
0
LINE
8
ENGRAVE
62
5
10
202.0000
20
269.6000
30
0.0
11
202.0000
21
389.6000
31
0.0
0
LINE
8
ENGRAVE
62
5
10
202.0000
20
389.6000
30
0.0
11
2.0000
21
389.6000
31
0.0
0
LINE
8
ENGRAVE
62
5
10
2.0000
20
389.6000
30
0.0
11
2.0000
21
269.6000
31
0.0
0
CIRCLE
8
ENGRAVE
62
5
10
51.7500
20
303.8860
30
0.0
40
17.7500
0
CIRCLE
8
ENGRAVE
62
5
10
152.2500
20
355.3140
30
0.0
40
17.7500
0
TEXT
8
ENGRAVE
62
5
10
96.0000
20
327.1000
30
0.0
40
5.0000
1
C2
0
LINE
8
ENGRAVE
62
5
10
202.0000
20
269.6000
30
0.0
11
402.0000
21
269.6000
31
0.0
0
LINE
8
ENGRAVE
62
5
10
402.0000
20
269.6000
30
0.0
11
402.0000
21
389.6000
31
0.0
0
LINE
8
ENGRAVE
62
5
10
402.0000
20
389.6000
30
0.0
11
202.0000
21
389.6000
31
0.0
0
LINE
8
ENGRAVE
62
5
10
202.0000
20
389.6000
30
0.0
11
202.0000
21
269.6000
31
0.0
0
CIRCLE
8
ENGRAVE
62
5
10
251.7500
20
303.8860
30
0.0
40
17.7500
0
CIRCLE
8
ENGRAVE
62
5
10
352.2500
20
355.3140
30
0.0
40
17.7500
0
TEXT
8
ENGRAVE
62
5
10
296.0000
20
327.1000
30
0.0
40
5.0000
1
C3
0
LINE
8
ENGRAVE
62
5
10
402.0000
20
269.6000
30
0.0
11
602.0000
21
269.6000
31
0.0
0
LINE
8
ENGRAVE
62
5
10
602.0000
20
269.6000
30
0.0
11
602.0000
21
389.6000
31
0.0
0
LINE
8
ENGRAVE
62
5
10
602.0000
20
389.6000
30
0.0
11
402.0000
21
389.6000
31
0.0
0
LINE
8
ENGRAVE
62
5
10
402.0000
20
389.6000
30
0.0
11
402.0000
21
269.6000
31
0.0
0
CIRCLE
8
ENGRAVE
62
5
10
451.7500
20
303.8860
30
0.0
40
17.7500
0
CIRCLE
8
ENGRAVE
62
5
10
552.2500
20
355.3140
30
0.0
40
17.7500
0
TEXT
8
ENGRAVE
62
5
10
496.0000
20
327.1000
30
0.0
40
5.0000
1
C4
0
TEXT
8
ENGRAVE
62
5
10
502.0000
20
380.6000
30
0.0
40
5.0000
1
plate W7 ->
0
TEXT
8
ENGRAVE
62
5
10
16.0000
20
273.6000
30
0.0
40
6.0000
1
C2-C4
0
ENDSEC
0
EOF
