0
SECTION
2
HEADER
9
$ACADVER
1
AC1009
0
ENDSEC
0
SECTION
2
TABLES
0
TABLE
2
LAYER
70
2
0
LAYER
2
CUT
70
0
62
1
6
CONTINUOUS
0
LAYER
2
ENGRAVE
70
0
62
5
6
CONTINUOUS
0
LAYER
2
SHEET
70
0
62
3
6
CONTINUOUS
0
ENDTAB
0
ENDSEC
0
SECTION
2
ENTITIES
0
LINE
8
SHEET
62
3
10
0.0000
20
0.0000
30
0.0
11
800.0000
21
0.0000
31
0.0
0
LINE
8
SHEET
62
3
10
800.0000
20
0.0000
30
0.0
11
800.0000
21
600.0000
31
0.0
0
LINE
8
SHEET
62
3
10
800.0000
20
600.0000
30
0.0
11
0.0000
21
600.0000
31
0.0
0
LINE
8
SHEET
62
3
10
0.0000
20
600.0000
30
0.0
11
0.0000
21
0.0000
31
0.0
0
TEXT
8
SHEET
62
3
10
2.0000
20
594.0000
30
0.0
40
4.0000
1
ARES_Mauer guides A5.5/B7/C5 sheet 2/4 - CUT lines kerf-compensated for 0.3 mm
0
LINE
8
CUT
62
1
10
552.8400
20
21.8500
30
0.0
11
552.8400
21
302.1500
31
0.0
0
LINE
8
CUT
62
1
10
552.8400
20
302.1500
30
0.0
11
9.8500
21
302.1500
31
0.0
0
LINE
8
CUT
62
1
10
9.8500
20
302.1500
30
0.0
11
9.8500
21
253.8077
31
0.0
0
LINE
8
CUT
62
1
10
9.8500
20
253.8077
30
0.0
11
21.9000
21
259.8077
31
0.0
0
LINE
8
CUT
62
1
10
21.9000
20
259.8077
30
0.0
11
21.9000
21
224.1923
31
0.0
0
LINE
8
CUT
62
1
10
21.9000
20
224.1923
30
0.0
11
9.8500
21
230.1923
31
0.0
0
LINE
8
CUT
62
1
10
9.8500
20
230.1923
30
0.0
11
9.8500
21
181.8500
31
0.0
0
LINE
8
CUT
62
1
10
9.8500
20
181.8500
30
0.0
11
27.1242
21
181.8500
31
0.0
0
LINE
8
CUT
62
1
10
27.1242
20
181.8500
30
0.0
11
30.0000
21
177.9471
31
0.0
0
LINE
8
CUT
62
1
10
30.0000
20
177.9471
30
0.0
11
32.8758
21
181.8500
31
0.0
0
LINE
8
CUT
62
1
10
32.8758
20
181.8500
30
0.0
11
227.1242
21
181.8500
31
0.0
0
LINE
8
CUT
62
1
10
227.1242
20
181.8500
30
0.0
11
230.0000
21
177.9471
31
0.0
0
LINE
8
CUT
62
1
10
230.0000
20
177.9471
30
0.0
11
232.8758
21
181.8500
31
0.0
0
LINE
8
CUT
62
1
10
232.8758
20
181.8500
30
0.0
11
432.5400
21
181.8500
31
0.0
0
LINE
8
CUT
62
1
10
432.5400
20
181.8500
30
0.0
11
432.5400
21
21.8500
31
0.0
0
LINE
8
CUT
62
1
10
432.5400
20
21.8500
30
0.0
11
480.4473
21
21.8500
31
0.0
0
LINE
8
CUT
62
1
10
480.4473
20
21.8500
30
0.0
11
474.4473
21
9.8500
31
0.0
0
LINE
8
CUT
62
1
10
474.4473
20
9.8500
30
0.0
11
510.9327
21
9.8500
31
0.0
0
LINE
8
CUT
62
1
10
510.9327
20
9.8500
30
0.0
11
504.9327
21
21.8500
31
0.0
0
LINE
8
CUT
62
1
10
504.9327
20
21.8500
30
0.0
11
552.8400
21
21.8500
31
0.0
0
CIRCLE
8
CUT
62
1
10
518.4040
20
51.7500
30
0.0
40
4.0000
0
CIRCLE
8
CUT
62
1
10
466.9760
20
152.2500
30
0.0
40
4.0000
0
CIRCLE
8
CUT
62
1
10
518.4040
20
252.0000
30
0.0
40
4.0000
0
CIRCLE
8
CUT
62
1
10
466.9760
20
252.0000
30
0.0
40
4.0000
0
CIRCLE
8
CUT
62
1
10
380.2500
20
267.7140
30
0.0
40
4.0000
0
CIRCLE
8
CUT
62
1
10
279.7500
20
216.2860
30
0.0
40
4.0000
0
CIRCLE
8
CUT
62
1
10
180.2500
20
267.7140
30
0.0
40
4.0000
0
CIRCLE
8
CUT
62
1
10
79.7500
20
216.2860
30
0.0
40
4.0000
0
LINE
8
ENGRAVE
62
5
10
552.6900
20
2.0000
30
0.0
11
552.6900
21
202.0000
31
0.0
0
LINE
8
ENGRAVE
62
5
10
552.6900
20
202.0000
30
0.0
11
432.6900
21
202.0000
31
0.0
0
LINE
8
ENGRAVE
62
5
10
432.6900
20
202.0000
30
0.0
11
432.6900
21
2.0000
31
0.0
0
LINE
8
ENGRAVE
62
5
10
432.6900
20
2.0000
30
0.0
11
552.6900
21
2.0000
31
0.0
0
CIRCLE
8
ENGRAVE
62
5
10
518.4040
20
51.7500
30
0.0
40
17.7500
0
CIRCLE
8
ENGRAVE
62
5
10
466.9760
20
152.2500
30
0.0
40
17.7500
0
TEXT
8
ENGRAVE
62
5
10
495.1900
20
96.0000
30
0.0
40
5.0000
50
90.0000
1
A4
0
LINE
8
ENGRAVE
62
5
10
552.6900
20
202.0000
30
0.0
11
552.6900
21
302.0000
31
0.0
0
LINE
8
ENGRAVE
62
5
10
552.6900
20
302.0000
30
0.0
11
432.6900
21
302.0000
31
0.0
0
LINE
8
ENGRAVE
62
5
10
432.6900
20
302.0000
30
0.0
11
432.6900
21
202.0000
31
0.0
0
LINE
8
ENGRAVE
62
5
10
432.6900
20
202.0000
30
0.0
11
552.6900
21
202.0000
31
0.0
0
CIRCLE
8
ENGRAVE
62
5
10
518.4040
20
252.0000
30
0.0
40
17.7500
0
CIRCLE
8
ENGRAVE
62
5
10
466.9760
20
252.0000
30
0.0
40
17.7500
0
TEXT
8
ENGRAVE
62
5
10
495.1900
20
246.0000
30
0.0
40
5.0000
50
90.0000
1
A5
0
LINE
8
ENGRAVE
62
5
10
430.0000
20
302.0000
30
0.0
11
230.0000
21
302.0000
31
0.0
0
LINE
8
ENGRAVE
62
5
10
230.0000
20
302.0000
30
0.0
11
230.0000
21
182.0000
31
0.0
0
LINE
8
ENGRAVE
62
5
10
230.0000
20
182.0000
30
0.0
11
430.0000
21
182.0000
31
0.0
0
LINE
8
ENGRAVE
62
5
10
430.0000
20
182.0000
30
0.0
11
430.0000
21
302.0000
31
0.0
0
CIRCLE
8
ENGRAVE
62
5
10
380.2500
20
267.7140
30
0.0
40
17.7500
0
CIRCLE
8
ENGRAVE
62
5
10
279.7500
20
216.2860
30
0.0
40
17.7500
0
TEXT
8
ENGRAVE
62
5
10
332.5000
20
236.0000
30
0.0
40
5.0000
50
90.0000
1
B0
0
LINE
8
ENGRAVE
62
5
10
230.0000
20
302.0000
30
0.0
11
30.0000
21
302.0000
31
0.0
0
LINE
8
ENGRAVE
62
5
10
30.0000
20
302.0000
30
0.0
11
30.0000
21
182.0000
31
0.0
0
LINE
8
ENGRAVE
62
5
10
30.0000
20
182.0000
30
0.0
11
230.0000
21
182.0000
31
0.0
0
LINE
8
ENGRAVE
62
5
10
230.0000
20
182.0000
30
0.0
11
230.0000
21
302.0000
31
0.0
0
CIRCLE
8
ENGRAVE
62
5
10
180.2500
20
267.7140
30
0.0
40
17.7500
0
CIRCLE
8
ENGRAVE
62
5
10
79.7500
20
216.2860
30
0.0
40
17.7500
0
TEXT
8
ENGRAVE
62
5
10
132.5000
20
236.0000
30
0.0
40
5.0000
50
90.0000
1
B1
0
TEXT
8
ENGRAVE
62
5
10
130.0000
20
191.0000
30
0.0
40
5.0000
50
90.0000
1
plate W2 ->
0
TEXT
8
ENGRAVE
62
5
10
548.6900
20
28.0000
30
0.0
40
6.0000
50
90.0000
1
A4-B1 (corner A/B (A runs through))
0
LINE
8
CUT
62
1
10
9.8500
20
307.8500
30
0.0
11
747.6500
21
307.8500
31
0.0
0
LINE
8
CUT
62
1
10
747.6500
20
307.8500
30
0.0
11
747.6500
21
372.4923
31
0.0
0
LINE
8
CUT
62
1
10
747.6500
20
372.4923
30
0.0
11
735.6000
21
366.4923
31
0.0
0
LINE
8
CUT
62
1
10
735.6000
20
366.4923
30
0.0
11
735.6000
21
402.1077
31
0.0
0
LINE
8
CUT
62
1
10
735.6000
20
402.1077
30
0.0
11
747.6500
21
396.1077
31
0.0
0
LINE
8
CUT
62
1
10
747.6500
20
396.1077
30
0.0
11
747.6500
21
506.1923
31
0.0
0
LINE
8
CUT
62
1
10
747.6500
20
506.1923
30
0.0
11
735.6000
21
500.1923
31
0.0
0
LINE
8
CUT
62
1
10
735.6000
20
500.1923
30
0.0
11
735.6000
21
535.8077
31
0.0
0
LINE
8
CUT
62
1
10
735.6000
20
535.8077
30
0.0
11
747.6500
21
529.8077
31
0.0
0
LINE
8
CUT
62
1
10
747.6500
20
529.8077
30
0.0
11
747.6500
21
588.1500
31
0.0
0
LINE
8
CUT
62
1
10
747.6500
20
588.1500
30
0.0
11
9.8500
21
588.1500
31
0.0
0
LINE
8
CUT
62
1
10
9.8500
20
588.1500
30
0.0
11
9.8500
21
307.8500
31
0.0
0
CIRCLE
8
CUT
62
1
10
80.0000
20
492.2860
30
0.0
40
4.0000
0
CIRCLE
8
CUT
62
1
10
80.0000
20
543.7140
30
0.0
40
4.0000
0
CIRCLE
8
CUT
62
1
10
184.7500
20
492.2860
30
0.0
40
4.0000
0
CIRCLE
8
CUT
62
1
10
285.2500
20
543.7140
30
0.0
40
4.0000
0
CIRCLE
8
CUT
62
1
10
389.7500
20
492.2860
30
0.0
40
4.0000
0
CIRCLE
8
CUT
62
1
10
490.2500
20
543.7140
30
0.0
40
4.0000
0
CIRCLE
8
CUT
62
1
10
594.7500
20
492.2860
30
0.0
40
4.0000
0
CIRCLE
8
CUT
62
1
10
695.2500
20
543.7140
30
0.0
40
4.0000
0
LINE
8
CUT
62
1
10
177.3500
20
318.1500
30
0.0
11
317.6500
21
318.1500
31
0.0
0
LINE
8
CUT
62
1
10
317.6500
20
318.1500
30
0.0
11
317.6500
21
450.4500
31
0.0
0
LINE
8
CUT
62
1
10
317.6500
20
450.4500
30
0.0
11
177.3500
21
450.4500
31
0.0
0
LINE
8
CUT
62
1
10
177.3500
20
450.4500
30
0.0
11
177.3500
21
318.1500
31
0.0
0
LINE
8
ENGRAVE
62
5
10
30.0000
20
458.0000
30
0.0
11
130.0000
21
458.0000
31
0.0
0
LINE
8
ENGRAVE
62
5
10
130.0000
20
458.0000
30
0.0
11
130.0000
21
578.0000
31
0.0
0
LINE
8
ENGRAVE
62
5
10
130.0000
20
578.0000
30
0.0
11
30.0000
21
578.0000
31
0.0
0
LINE
8
ENGRAVE
62
5
10
30.0000
20
578.0000
30
0.0
11
30.0000
21
458.0000
31
0.0
0
CIRCLE
8
ENGRAVE
62
5
10
80.0000
20
492.2860
30
0.0
40
17.7500
0
CIRCLE
8
ENGRAVE
62
5
10
80.0000
20
543.7140
30
0.0
40
17.7500
0
TEXT
8
ENGRAVE
62
5
10
74.0000
20
515.5000
30
0.0
40
5.0000
1
h00
0
LINE
8
ENGRAVE
62
5
10
135.0000
20
458.0000
30
0.0
11
335.0000
21
458.0000
31
0.0
0
LINE
8
ENGRAVE
62
5
10
335.0000
20
458.0000
30
0.0
11
335.0000
21
578.0000
31
0.0
0
LINE
8
ENGRAVE
62
5
10
335.0000
20
578.0000
30
0.0
11
135.0000
21
578.0000
31
0.0
0
LINE
8
ENGRAVE
62
5
10
135.0000
20
578.0000
30
0.0
11
135.0000
21
458.0000
31
0.0
0
CIRCLE
8
ENGRAVE
62
5
10
184.7500
20
492.2860
30
0.0
40
17.7500
0
CIRCLE
8
ENGRAVE
62
5
10
285.2500
20
543.7140
30
0.0
40
17.7500
0
TEXT
8
ENGRAVE
62
5
10
229.0000
20
515.5000
30
0.0
40
5.0000
1
s00
0
LINE
8
ENGRAVE
62
5
10
340.0000
20
458.0000
30
0.0
11
540.0000
21
458.0000
31
0.0
0
LINE
8
ENGRAVE
62
5
10
540.0000
20
458.0000
30
0.0
11
540.0000
21
578.0000
31
0.0
0
LINE
8
ENGRAVE
62
5
10
540.0000
20
578.0000
30
0.0
11
340.0000
21
578.0000
31
0.0
0
LINE
8
ENGRAVE
62
5
10
340.0000
20
578.0000
30
0.0
11
340.0000
21
458.0000
31
0.0
0
CIRCLE
8
ENGRAVE
62
5
10
389.7500
20
492.2860
30
0.0
40
17.7500
0
CIRCLE
8
ENGRAVE
62
5
10
490.2500
20
543.7140
30
0.0
40
17.7500
0
TEXT
8
ENGRAVE
62
5
10
434.0000
20
515.5000
30
0.0
40
5.0000
1
s01
0
LINE
8
ENGRAVE
62
5
10
545.0000
20
458.0000
30
0.0
11
745.0000
21
458.0000
31
0.0
0
LINE
8
ENGRAVE
62
5
10
745.0000
20
458.0000
30
0.0
11
745.0000
21
578.0000
31
0.0
0
LINE
8
ENGRAVE
62
5
10
745.0000
20
578.0000
30
0.0
11
545.0000
21
578.0000
31
0.0
0
LINE
8
ENGRAVE
62
5
10
545.0000
20
578.0000
30
0.0
11
545.0000
21
458.0000
31
0.0
0
CIRCLE
8
ENGRAVE
62
5
10
594.7500
20
492.2860
30
0.0
40
17.7500
0
CIRCLE
8
ENGRAVE
62
5
10
695.2500
20
543.7140
30
0.0
40
17.7500
0
TEXT
8
ENGRAVE
62
5
10
639.0000
20
515.5000
30
0.0
40
5.0000
1
s02
0
TEXT
8
ENGRAVE
62
5
10
235.5000
20
381.3000
30
0.0
40
8.0000
1
S0
0
TEXT
8
ENGRAVE
62
5
10
56.0000
20
462.0000
30
0.0
40
6.0000
1
station1 (station)
0
ENDSEC
0
EOF
