0
SECTION
2
HEADER
9
$ACADVER
1
AC1009
0
ENDSEC
0
SECTION
2
TABLES
0
TABLE
2
LAYER
70
2
0
LAYER
2
CUT
70
0
62
1
6
CONTINUOUS
0
LAYER
2
ENGRAVE
70
0
62
5
6
CONTINUOUS
0
LAYER
2
SHEET
70
0
62
3
6
CONTINUOUS
0
ENDTAB
0
ENDSEC
0
SECTION
2
ENTITIES
0
LINE
8
SHEET
62
3
10
0.0000
20
0.0000
30
0.0
11
800.0000
21
0.0000
31
0.0
0
LINE
8
SHEET
62
3
10
800.0000
20
0.0000
30
0.0
11
800.0000
21
600.0000
31
0.0
0
LINE
8
SHEET
62
3
10
800.0000
20
600.0000
30
0.0
11
0.0000
21
600.0000
31
0.0
0
LINE
8
SHEET
62
3
10
0.0000
20
600.0000
30
0.0
11
0.0000
21
0.0000
31
0.0
0
TEXT
8
SHEET
62
3
10
2.0000
20
594.0000
30
0.0
40
4.0000
1
ARES_Mauer guides A5.5/B7/C5 sheet 1/4 - CUT lines kerf-compensated for 0.3 mm
0
LINE
8
CUT
62
1
10
552.8400
20
21.8500
30
0.0
11
552.8400
21
402.1500
31
0.0
0
LINE
8
CUT
62
1
10
552.8400
20
402.1500
30
0.0
11
9.8500
21
402.1500
31
0.0
0
LINE
8
CUT
62
1
10
9.8500
20
402.1500
30
0.0
11
9.8500
21
353.8077
31
0.0
0
LINE
8
CUT
62
1
10
9.8500
20
353.8077
30
0.0
11
21.9000
21
359.8077
31
0.0
0
LINE
8
CUT
62
1
10
21.9000
20
359.8077
30
0.0
11
21.9000
21
324.1923
31
0.0
0
LINE
8
CUT
62
1
10
21.9000
20
324.1923
30
0.0
11
9.8500
21
330.1923
31
0.0
0
LINE
8
CUT
62
1
10
9.8500
20
330.1923
30
0.0
11
9.8500
21
281.8500
31
0.0
0
LINE
8
CUT
62
1
10
9.8500
20
281.8500
30
0.0
11
27.1242
21
281.8500
31
0.0
0
LINE
8
CUT
62
1
10
27.1242
20
281.8500
30
0.0
11
30.0000
21
277.9471
31
0.0
0
LINE
8
CUT
62
1
10
30.0000
20
277.9471
30
0.0
11
32.8758
21
281.8500
31
0.0
0
LINE
8
CUT
62
1
10
32.8758
20
281.8500
30
0.0
11
227.1242
21
281.8500
31
0.0
0
LINE
8
CUT
62
1
10
227.1242
20
281.8500
30
0.0
11
230.0000
21
277.9471
31
0.0
0
LINE
8
CUT
62
1
10
230.0000
20
277.9471
30
0.0
11
232.8758
21
281.8500
31
0.0
0
LINE
8
CUT
62
1
10
232.8758
20
281.8500
30
0.0
11
432.5400
21
281.8500
31
0.0
0
LINE
8
CUT
62
1
10
432.5400
20
281.8500
30
0.0
11
432.5400
21
204.8758
31
0.0
0
LINE
8
CUT
62
1
10
432.5400
20
204.8758
30
0.0
11
428.6371
21
202.0000
31
0.0
0
LINE
8
CUT
62
1
10
428.6371
20
202.0000
30
0.0
11
432.5400
21
199.1242
31
0.0
0
LINE
8
CUT
62
1
10
432.5400
20
199.1242
30
0.0
11
432.5400
21
21.8500
31
0.0
0
LINE
8
CUT
62
1
10
432.5400
20
21.8500
30
0.0
11
480.4473
21
21.8500
31
0.0
0
LINE
8
CUT
62
1
10
480.4473
20
21.8500
30
0.0
11
474.4473
21
9.8500
31
0.0
0
LINE
8
CUT
62
1
10
474.4473
20
9.8500
30
0.0
11
510.9327
21
9.8500
31
0.0
0
LINE
8
CUT
62
1
10
510.9327
20
9.8500
30
0.0
11
504.9327
21
21.8500
31
0.0
0
LINE
8
CUT
62
1
10
504.9327
20
21.8500
30
0.0
11
552.8400
21
21.8500
31
0.0
0
CIRCLE
8
CUT
62
1
10
518.4040
20
51.7500
30
0.0
40
3.8500
0
CIRCLE
8
CUT
62
1
10
466.9760
20
152.2500
30
0.0
40
3.8500
0
CIRCLE
8
CUT
62
1
10
518.4040
20
251.7500
30
0.0
40
3.8500
0
CIRCLE
8
CUT
62
1
10
466.9760
20
352.2500
30
0.0
40
3.8500
0
CIRCLE
8
CUT
62
1
10
380.2500
20
367.7140
30
0.0
40
3.8500
0
CIRCLE
8
CUT
62
1
10
279.7500
20
316.2860
30
0.0
40
3.8500
0
CIRCLE
8
CUT
62
1
10
180.2500
20
367.7140
30
0.0
40
3.8500
0
CIRCLE
8
CUT
62
1
10
79.7500
20
316.2860
30
0.0
40
3.8500
0
LINE
8
ENGRAVE
62
5
10
552.6900
20
2.0000
30
0.0
11
552.6900
21
202.0000
31
0.0
0
LINE
8
ENGRAVE
62
5
10
552.6900
20
202.0000
30
0.0
11
432.6900
21
202.0000
31
0.0
0
LINE
8
ENGRAVE
62
5
10
432.6900
20
202.0000
30
0.0
11
432.6900
21
2.0000
31
0.0
0
LINE
8
ENGRAVE
62
5
10
432.6900
20
2.0000
30
0.0
11
552.6900
21
2.0000
31
0.0
0
CIRCLE
8
ENGRAVE
62
5
10
518.4040
20
51.7500
30
0.0
40
17.7500
0
CIRCLE
8
ENGRAVE
62
5
10
466.9760
20
152.2500
30
0.0
40
17.7500
0
TEXT
8
ENGRAVE
62
5
10
495.1900
20
96.0000
30
0.0
40
5.0000
50
90.0000
1
B5
0
LINE
8
ENGRAVE
62
5
10
552.6900
20
202.0000
30
0.0
11
552.6900
21
402.0000
31
0.0
0
LINE
8
ENGRAVE
62
5
10
552.6900
20
402.0000
30
0.0
11
432.6900
21
402.0000
31
0.0
0
LINE
8
ENGRAVE
62
5
10
432.6900
20
402.0000
30
0.0
11
432.6900
21
202.0000
31
0.0
0
LINE
8
ENGRAVE
62
5
10
432.6900
20
202.0000
30
0.0
11
552.6900
21
202.0000
31
0.0
0
CIRCLE
8
ENGRAVE
62
5
10
518.4040
20
251.7500
30
0.0
40
17.7500
0
CIRCLE
8
ENGRAVE
62
5
10
466.9760
20
352.2500
30
0.0
40
17.7500
0
TEXT
8
ENGRAVE
62
5
10
495.1900
20
296.0000
30
0.0
40
5.0000
50
90.0000
1
B6
0
LINE
8
ENGRAVE
62
5
10
430.0000
20
402.0000
30
0.0
11
230.0000
21
402.0000
31
0.0
0
LINE
8
ENGRAVE
62
5
10
230.0000
20
402.0000
30
0.0
11
230.0000
21
282.0000
31
0.0
0
LINE
8
ENGRAVE
62
5
10
230.0000
20
282.0000
30
0.0
11
430.0000
21
282.0000
31
0.0
0
LINE
8
ENGRAVE
62
5
10
430.0000
20
282.0000
30
0.0
11
430.0000
21
402.0000
31
0.0
0
CIRCLE
8
ENGRAVE
62
5
10
380.2500
20
367.7140
30
0.0
40
17.7500
0
CIRCLE
8
ENGRAVE
62
5
10
279.7500
20
316.2860
30
0.0
40
17.7500
0
TEXT
8
ENGRAVE
62
5
10
332.5000
20
336.0000
30
0.0
40
5.0000
50
90.0000
1
C0
0
LINE
8
ENGRAVE
62
5
10
230.0000
20
402.0000
30
0.0
11
30.0000
21
402.0000
31
0.0
0
LINE
8
ENGRAVE
62
5
10
30.0000
20
402.0000
30
0.0
11
30.0000
21
282.0000
31
0.0
0
LINE
8
ENGRAVE
62
5
10
30.0000
20
282.0000
30
0.0
11
230.0000
21
282.0000
31
0.0
0
LINE
8
ENGRAVE
62
5
10
230.0000
20
282.0000
30
0.0
11
230.0000
21
402.0000
31
0.0
0
CIRCLE
8
ENGRAVE
62
5
10
180.2500
20
367.7140
30
0.0
40
17.7500
0
CIRCLE
8
ENGRAVE
62
5
10
79.7500
20
316.2860
30
0.0
40
17.7500
0
TEXT
8
ENGRAVE
62
5
10
132.5000
20
336.0000
30
0.0
40
5.0000
50
90.0000
1
C1
0
TEXT
8
ENGRAVE
62
5
10
441.6900
20
102.0000
30
0.0
40
5.0000
50
90.0000
1
plate W4 ->
0
TEXT
8
ENGRAVE
62
5
10
130.0000
20
291.0000
30
0.0
40
5.0000
50
90.0000
1
plate W5 ->
0
TEXT
8
ENGRAVE
62
5
10
548.6900
20
28.0000
30
0.0
40
6.0000
50
90.0000
1
B5-C1 (corner B/C (B runs through))
0
LINE
8
CUT
62
1
10
9.8500
20
407.8500
30
0.0
11
430.1500
21
407.8500
31
0.0
0
LINE
8
CUT
62
1
10
430.1500
20
407.8500
30
0.0
11
430.1500
21
456.1923
31
0.0
0
LINE
8
CUT
62
1
10
430.1500
20
456.1923
30
0.0
11
418.1000
21
450.1923
31
0.0
0
LINE
8
CUT
62
1
10
418.1000
20
450.1923
30
0.0
11
418.1000
21
485.8077
31
0.0
0
LINE
8
CUT
62
1
10
418.1000
20
485.8077
30
0.0
11
430.1500
21
479.8077
31
0.0
0
LINE
8
CUT
62
1
10
430.1500
20
479.8077
30
0.0
11
430.1500
21
528.1500
31
0.0
0
LINE
8
CUT
62
1
10
430.1500
20
528.1500
30
0.0
11
412.8758
21
528.1500
31
0.0
0
LINE
8
CUT
62
1
10
412.8758
20
528.1500
30
0.0
11
410.0000
21
532.0529
31
0.0
0
LINE
8
CUT
62
1
10
410.0000
20
532.0529
30
0.0
11
407.1242
21
528.1500
31
0.0
0
LINE
8
CUT
62
1
10
407.1242
20
528.1500
30
0.0
11
212.8758
21
528.1500
31
0.0
0
LINE
8
CUT
62
1
10
212.8758
20
528.1500
30
0.0
11
210.0000
21
532.0529
31
0.0
0
LINE
8
CUT
62
1
10
210.0000
20
532.0529
30
0.0
11
207.1242
21
528.1500
31
0.0
0
LINE
8
CUT
62
1
10
207.1242
20
528.1500
30
0.0
11
9.8500
21
528.1500
31
0.0
0
LINE
8
CUT
62
1
10
9.8500
20
528.1500
30
0.0
11
9.8500
21
407.8500
31
0.0
0
CIRCLE
8
CUT
62
1
10
59.7500
20
442.2860
30
0.0
40
3.8500
0
CIRCLE
8
CUT
62
1
10
160.2500
20
493.7140
30
0.0
40
3.8500
0
CIRCLE
8
CUT
62
1
10
259.7500
20
442.2860
30
0.0
40
3.8500
0
CIRCLE
8
CUT
62
1
10
360.2500
20
493.7140
30
0.0
40
3.8500
0
LINE
8
ENGRAVE
62
5
10
10.0000
20
408.0000
30
0.0
11
210.0000
21
408.0000
31
0.0
0
LINE
8
ENGRAVE
62
5
10
210.0000
20
408.0000
30
0.0
11
210.0000
21
528.0000
31
0.0
0
LINE
8
ENGRAVE
62
5
10
210.0000
20
528.0000
30
0.0
11
10.0000
21
528.0000
31
0.0
0
LINE
8
ENGRAVE
62
5
10
10.0000
20
528.0000
30
0.0
11
10.0000
21
408.0000
31
0.0
0
CIRCLE
8
ENGRAVE
62
5
10
59.7500
20
442.2860
30
0.0
40
17.7500
0
CIRCLE
8
ENGRAVE
62
5
10
160.2500
20
493.7140
30
0.0
40
17.7500
0
TEXT
8
ENGRAVE
62
5
10
104.0000
20
465.5000
30
0.0
40
5.0000
1
A0
0
LINE
8
ENGRAVE
62
5
10
210.0000
20
408.0000
30
0.0
11
410.0000
21
408.0000
31
0.0
0
LINE
8
ENGRAVE
62
5
10
410.0000
20
408.0000
30
0.0
11
410.0000
21
528.0000
31
0.0
0
LINE
8
ENGRAVE
62
5
10
410.0000
20
528.0000
30
0.0
11
210.0000
21
528.0000
31
0.0
0
LINE
8
ENGRAVE
62
5
10
210.0000
20
528.0000
30
0.0
11
210.0000
21
408.0000
31
0.0
0
CIRCLE
8
ENGRAVE
62
5
10
259.7500
20
442.2860
30
0.0
40
17.7500
0
CIRCLE
8
ENGRAVE
62
5
10
360.2500
20
493.7140
30
0.0
40
17.7500
0
TEXT
8
ENGRAVE
62
5
10
304.0000
20
465.5000
30
0.0
40
5.0000
1
A1
0
TEXT
8
ENGRAVE
62
5
10
110.0000
20
519.0000
30
0.0
40
5.0000
1
plate W0 ->
0
TEXT
8
ENGRAVE
62
5
10
36.0000
20
412.0000
30
0.0
40
6.0000
1
A0-A1
0
ENDSEC
0
EOF
