0
SECTION
2
HEADER
9
$ACADVER
1
AC1009
0
ENDSEC
0
SECTION
2
TABLES
0
TABLE
2
LAYER
70
2
0
LAYER
2
CUT
70
0
62
1
6
CONTINUOUS
0
LAYER
2
ENGRAVE
70
0
62
5
6
CONTINUOUS
0
LAYER
2
SHEET
70
0
62
3
6
CONTINUOUS
0
ENDTAB
0
ENDSEC
0
SECTION
2
ENTITIES
0
LINE
8
SHEET
62
3
10
0.0000
20
0.0000
30
0.0
11
800.0000
21
0.0000
31
0.0
0
LINE
8
SHEET
62
3
10
800.0000
20
0.0000
30
0.0
11
800.0000
21
600.0000
31
0.0
0
LINE
8
SHEET
62
3
10
800.0000
20
600.0000
30
0.0
11
0.0000
21
600.0000
31
0.0
0
LINE
8
SHEET
62
3
10
0.0000
20
600.0000
30
0.0
11
0.0000
21
0.0000
31
0.0
0
TEXT
8
SHEET
62
3
10
2.0000
20
594.0000
30
0.0
40
4.0000
1
ARES_Mauer guides sheet 2/4
0
LINE
8
CUT
62
1
10
552.6900
20
22.0000
30
0.0
11
552.6900
21
402.0000
31
0.0
0
LINE
8
CUT
62
1
10
552.6900
20
402.0000
30
0.0
11
10.0000
21
402.0000
31
0.0
0
LINE
8
CUT
62
1
10
10.0000
20
402.0000
30
0.0
11
10.0000
21
354.1000
31
0.0
0
LINE
8
CUT
62
1
10
10.0000
20
354.1000
30
0.0
11
22.1000
21
360.1000
31
0.0
0
LINE
8
CUT
62
1
10
22.1000
20
360.1000
30
0.0
11
22.1000
21
323.9000
31
0.0
0
LINE
8
CUT
62
1
10
22.1000
20
323.9000
30
0.0
11
10.0000
21
329.9000
31
0.0
0
LINE
8
CUT
62
1
10
10.0000
20
329.9000
30
0.0
11
10.0000
21
282.0000
31
0.0
0
LINE
8
CUT
62
1
10
10.0000
20
282.0000
30
0.0
11
27.2000
21
282.0000
31
0.0
0
LINE
8
CUT
62
1
10
27.2000
20
282.0000
30
0.0
11
30.0000
21
278.2000
31
0.0
0
LINE
8
CUT
62
1
10
30.0000
20
278.2000
30
0.0
11
32.8000
21
282.0000
31
0.0
0
LINE
8
CUT
62
1
10
32.8000
20
282.0000
30
0.0
11
227.2000
21
282.0000
31
0.0
0
LINE
8
CUT
62
1
10
227.2000
20
282.0000
30
0.0
11
230.0000
21
278.2000
31
0.0
0
LINE
8
CUT
62
1
10
230.0000
20
278.2000
30
0.0
11
232.8000
21
282.0000
31
0.0
0
LINE
8
CUT
62
1
10
232.8000
20
282.0000
30
0.0
11
432.6900
21
282.0000
31
0.0
0
LINE
8
CUT
62
1
10
432.6900
20
282.0000
30
0.0
11
432.6900
21
204.8000
31
0.0
0
LINE
8
CUT
62
1
10
432.6900
20
204.8000
30
0.0
11
428.8900
21
202.0000
31
0.0
0
LINE
8
CUT
62
1
10
428.8900
20
202.0000
30
0.0
11
432.6900
21
199.2000
31
0.0
0
LINE
8
CUT
62
1
10
432.6900
20
199.2000
30
0.0
11
432.6900
21
22.0000
31
0.0
0
LINE
8
CUT
62
1
10
432.6900
20
22.0000
30
0.0
11
480.6900
21
22.0000
31
0.0
0
LINE
8
CUT
62
1
10
480.6900
20
22.0000
30
0.0
11
474.6900
21
10.0000
31
0.0
0
LINE
8
CUT
62
1
10
474.6900
20
10.0000
30
0.0
11
510.6900
21
10.0000
31
0.0
0
LINE
8
CUT
62
1
10
510.6900
20
10.0000
30
0.0
11
504.6900
21
22.0000
31
0.0
0
LINE
8
CUT
62
1
10
504.6900
20
22.0000
30
0.0
11
552.6900
21
22.0000
31
0.0
0
CIRCLE
8
CUT
62
1
10
518.4040
20
51.7500
30
0.0
40
4.1500
0
CIRCLE
8
CUT
62
1
10
466.9760
20
152.2500
30
0.0
40
4.1500
0
CIRCLE
8
CUT
62
1
10
518.4040
20
251.7500
30
0.0
40
4.1500
0
CIRCLE
8
CUT
62
1
10
466.9760
20
352.2500
30
0.0
40
4.1500
0
CIRCLE
8
CUT
62
1
10
380.2500
20
367.7140
30
0.0
40
4.1500
0
CIRCLE
8
CUT
62
1
10
279.7500
20
316.2860
30
0.0
40
4.1500
0
CIRCLE
8
CUT
62
1
10
180.2500
20
367.7140
30
0.0
40
4.1500
0
CIRCLE
8
CUT
62
1
10
79.7500
20
316.2860
30
0.0
40
4.1500
0
LINE
8
ENGRAVE
62
5
10
552.6900
20
2.0000
30
0.0
11
552.6900
21
202.0000
31
0.0
0
LINE
8
ENGRAVE
62
5
10
552.6900
20
202.0000
30
0.0
11
432.6900
21
202.0000
31
0.0
0
LINE
8
ENGRAVE
62
5
10
432.6900
20
202.0000
30
0.0
11
432.6900
21
2.0000
31
0.0
0
LINE
8
ENGRAVE
62
5
10
432.6900
20
2.0000
30
0.0
11
552.6900
21
2.0000
31
0.0
0
CIRCLE
8
ENGRAVE
62
5
10
518.4040
20
51.7500
30
0.0
40
17.7500
0
CIRCLE
8
ENGRAVE
62
5
10
466.9760
20
152.2500
30
0.0
40
17.7500
0
TEXT
8
ENGRAVE
62
5
10
495.1900
20
96.0000
30
0.0
40
5.0000
1
B5
0
LINE
8
ENGRAVE
62
5
10
552.6900
20
202.0000
30
0.0
11
552.6900
21
402.0000
31
0.0
0
LINE
8
ENGRAVE
62
5
10
552.6900
20
402.0000
30
0.0
11
432.6900
21
402.0000
31
0.0
0
LINE
8
ENGRAVE
62
5
10
432.6900
20
402.0000
30
0.0
11
432.6900
21
202.0000
31
0.0
0
LINE
8
ENGRAVE
62
5
10
432.6900
20
202.0000
30
0.0
11
552.6900
21
202.0000
31
0.0
0
CIRCLE
8
ENGRAVE
62
5
10
518.4040
20
251.7500
30
0.0
40
17.7500
0
CIRCLE
8
ENGRAVE
62
5
10
466.9760
20
352.2500
30
0.0
40
17.7500
0
TEXT
8
ENGRAVE
62
5
10
495.1900
20
296.0000
30
0.0
40
5.0000
1
B6
0
LINE
8
ENGRAVE
62
5
10
430.0000
20
402.0000
30
0.0
11
230.0000
21
402.0000
31
0.0
0
LINE
8
ENGRAVE
62
5
10
230.0000
20
402.0000
30
0.0
11
230.0000
21
282.0000
31
0.0
0
LINE
8
ENGRAVE
62
5
10
230.0000
20
282.0000
30
0.0
11
430.0000
21
282.0000
31
0.0
0
LINE
8
ENGRAVE
62
5
10
430.0000
20
282.0000
30
0.0
11
430.0000
21
402.0000
31
0.0
0
CIRCLE
8
ENGRAVE
62
5
10
380.2500
20
367.7140
30
0.0
40
17.7500
0
CIRCLE
8
ENGRAVE
62
5
10
279.7500
20
316.2860
30
0.0
40
17.7500
0
TEXT
8
ENGRAVE
62
5
10
332.5000
20
336.0000
30
0.0
40
5.0000
1
C0
0
LINE
8
ENGRAVE
62
5
10
230.0000
20
402.0000
30
0.0
11
30.0000
21
402.0000
31
0.0
0
LINE
8
ENGRAVE
62
5
10
30.0000
20
402.0000
30
0.0
11
30.0000
21
282.0000
31
0.0
0
LINE
8
ENGRAVE
62
5
10
30.0000
20
282.0000
30
0.0
11
230.0000
21
282.0000
31
0.0
0
LINE
8
ENGRAVE
62
5
10
230.0000
20
282.0000
30
0.0
11
230.0000
21
402.0000
31
0.0
0
CIRCLE
8
ENGRAVE
62
5
10
180.2500
20
367.7140
30
0.0
40
17.7500
0
CIRCLE
8
ENGRAVE
62
5
10
79.7500
20
316.2860
30
0.0
40
17.7500
0
TEXT
8
ENGRAVE
62
5
10
132.5000
20
336.0000
30
0.0
40
5.0000
1
C1
0
TEXT
8
ENGRAVE
62
5
10
130.0000
20
291.0000
30
0.0
40
5.0000
1
plate W6 ->
0
TEXT
8
ENGRAVE
62
5
10
548.6900
20
16.0000
30
0.0
40
6.0000
1
B5-C1 (corner B/C)
0
LINE
8
CUT
62
1
10
22.0000
20
408.0000
30
0.0
11
622.0000
21
408.0000
31
0.0
0
LINE
8
CUT
62
1
10
622.0000
20
408.0000
30
0.0
11
622.0000
21
455.9000
31
0.0
0
LINE
8
CUT
62
1
10
622.0000
20
455.9000
30
0.0
11
609.9000
21
449.9000
31
0.0
0
LINE
8
CUT
62
1
10
609.9000
20
449.9000
30
0.0
11
609.9000
21
486.1000
31
0.0
0
LINE
8
CUT
62
1
10
609.9000
20
486.1000
30
0.0
11
622.0000
21
480.1000
31
0.0
0
LINE
8
CUT
62
1
10
622.0000
20
480.1000
30
0.0
11
622.0000
21
528.0000
31
0.0
0
LINE
8
CUT
62
1
10
622.0000
20
528.0000
30
0.0
11
604.8000
21
528.0000
31
0.0
0
LINE
8
CUT
62
1
10
604.8000
20
528.0000
30
0.0
11
602.0000
21
531.8000
31
0.0
0
LINE
8
CUT
62
1
10
602.0000
20
531.8000
30
0.0
11
599.2000
21
528.0000
31
0.0
0
LINE
8
CUT
62
1
10
599.2000
20
528.0000
30
0.0
11
404.8000
21
528.0000
31
0.0
0
LINE
8
CUT
62
1
10
404.8000
20
528.0000
30
0.0
11
402.0000
21
531.8000
31
0.0
0
LINE
8
CUT
62
1
10
402.0000
20
531.8000
30
0.0
11
399.2000
21
528.0000
31
0.0
0
LINE
8
CUT
62
1
10
399.2000
20
528.0000
30
0.0
11
204.8000
21
528.0000
31
0.0
0
LINE
8
CUT
62
1
10
204.8000
20
528.0000
30
0.0
11
202.0000
21
531.8000
31
0.0
0
LINE
8
CUT
62
1
10
202.0000
20
531.8000
30
0.0
11
199.2000
21
528.0000
31
0.0
0
LINE
8
CUT
62
1
10
199.2000
20
528.0000
30
0.0
11
22.0000
21
528.0000
31
0.0
0
LINE
8
CUT
62
1
10
22.0000
20
528.0000
30
0.0
11
22.0000
21
480.0000
31
0.0
0
LINE
8
CUT
62
1
10
22.0000
20
480.0000
30
0.0
11
10.0000
21
486.0000
31
0.0
0
LINE
8
CUT
62
1
10
10.0000
20
486.0000
30
0.0
11
10.0000
21
450.0000
31
0.0
0
LINE
8
CUT
62
1
10
10.0000
20
450.0000
30
0.0
11
22.0000
21
456.0000
31
0.0
0
LINE
8
CUT
62
1
10
22.0000
20
456.0000
30
0.0
11
22.0000
21
408.0000
31
0.0
0
CIRCLE
8
CUT
62
1
10
51.7500
20
442.2860
30
0.0
40
4.1500
0
CIRCLE
8
CUT
62
1
10
152.2500
20
493.7140
30
0.0
40
4.1500
0
CIRCLE
8
CUT
62
1
10
251.7500
20
442.2860
30
0.0
40
4.1500
0
CIRCLE
8
CUT
62
1
10
352.2500
20
493.7140
30
0.0
40
4.1500
0
CIRCLE
8
CUT
62
1
10
451.7500
20
442.2860
30
0.0
40
4.1500
0
CIRCLE
8
CUT
62
1
10
552.2500
20
493.7140
30
0.0
40
4.1500
0
LINE
8
ENGRAVE
62
5
10
2.0000
20
408.0000
30
0.0
11
202.0000
21
408.0000
31
0.0
0
LINE
8
ENGRAVE
62
5
10
202.0000
20
408.0000
30
0.0
11
202.0000
21
528.0000
31
0.0
0
LINE
8
ENGRAVE
62
5
10
202.0000
20
528.0000
30
0.0
11
2.0000
21
528.0000
31
0.0
0
LINE
8
ENGRAVE
62
5
10
2.0000
20
528.0000
30
0.0
11
2.0000
21
408.0000
31
0.0
0
CIRCLE
8
ENGRAVE
62
5
10
51.7500
20
442.2860
30
0.0
40
17.7500
0
CIRCLE
8
ENGRAVE
62
5
10
152.2500
20
493.7140
30
0.0
40
17.7500
0
TEXT
8
ENGRAVE
62
5
10
96.0000
20
465.5000
30
0.0
40
5.0000
1
A3
0
LINE
8
ENGRAVE
62
5
10
202.0000
20
408.0000
30
0.0
11
402.0000
21
408.0000
31
0.0
0
LINE
8
ENGRAVE
62
5
10
402.0000
20
408.0000
30
0.0
11
402.0000
21
528.0000
31
0.0
0
LINE
8
ENGRAVE
62
5
10
402.0000
20
528.0000
30
0.0
11
202.0000
21
528.0000
31
0.0
0
LINE
8
ENGRAVE
62
5
10
202.0000
20
528.0000
30
0.0
11
202.0000
21
408.0000
31
0.0
0
CIRCLE
8
ENGRAVE
62
5
10
251.7500
20
442.2860
30
0.0
40
17.7500
0
CIRCLE
8
ENGRAVE
62
5
10
352.2500
20
493.7140
30
0.0
40
17.7500
0
TEXT
8
ENGRAVE
62
5
10
296.0000
20
465.5000
30
0.0
40
5.0000
1
A4
0
LINE
8
ENGRAVE
62
5
10
402.0000
20
408.0000
30
0.0
11
602.0000
21
408.0000
31
0.0
0
LINE
8
ENGRAVE
62
5
10
602.0000
20
408.0000
30
0.0
11
602.0000
21
528.0000
31
0.0
0
LINE
8
ENGRAVE
62
5
10
602.0000
20
528.0000
30
0.0
11
402.0000
21
528.0000
31
0.0
0
LINE
8
ENGRAVE
62
5
10
402.0000
20
528.0000
30
0.0
11
402.0000
21
408.0000
31
0.0
0
CIRCLE
8
ENGRAVE
62
5
10
451.7500
20
442.2860
30
0.0
40
17.7500
0
CIRCLE
8
ENGRAVE
62
5
10
552.2500
20
493.7140
30
0.0
40
17.7500
0
TEXT
8
ENGRAVE
62
5
10
496.0000
20
465.5000
30
0.0
40
5.0000
1
A5
0
TEXT
8
ENGRAVE
62
5
10
102.0000
20
519.0000
30
0.0
40
5.0000
1
plate W1 ->
0
TEXT
8
ENGRAVE
62
5
10
502.0000
20
519.0000
30
0.0
40
5.0000
1
plate W2 ->
0
TEXT
8
ENGRAVE
62
5
10
16.0000
20
412.0000
30
0.0
40
6.0000
1
A3-A5
0
ENDSEC
0
EOF
