0
SECTION
2
HEADER
9
$ACADVER
1
AC1009
0
ENDSEC
0
SECTION
2
TABLES
0
TABLE
2
LAYER
70
2
0
LAYER
2
CUT
70
0
62
1
6
CONTINUOUS
0
LAYER
2
ENGRAVE
70
0
62
5
6
CONTINUOUS
0
LAYER
2
SHEET
70
0
62
3
6
CONTINUOUS
0
ENDTAB
0
ENDSEC
0
SECTION
2
ENTITIES
0
LINE
8
SHEET
62
3
10
0.0000
20
0.0000
30
0.0
11
800.0000
21
0.0000
31
0.0
0
LINE
8
SHEET
62
3
10
800.0000
20
0.0000
30
0.0
11
800.0000
21
600.0000
31
0.0
0
LINE
8
SHEET
62
3
10
800.0000
20
600.0000
30
0.0
11
0.0000
21
600.0000
31
0.0
0
LINE
8
SHEET
62
3
10
0.0000
20
600.0000
30
0.0
11
0.0000
21
0.0000
31
0.0
0
TEXT
8
SHEET
62
3
10
2.0000
20
594.0000
30
0.0
40
4.0000
1
ARES_Mauer guides TEST
0
LINE
8
CUT
62
1
10
22.0000
20
10.0000
30
0.0
11
192.6000
21
10.0000
31
0.0
0
LINE
8
CUT
62
1
10
192.6000
20
10.0000
30
0.0
11
192.6000
21
170.6000
31
0.0
0
LINE
8
CUT
62
1
10
192.6000
20
170.6000
30
0.0
11
22.0000
21
170.6000
31
0.0
0
LINE
8
CUT
62
1
10
22.0000
20
170.6000
30
0.0
11
22.0000
21
82.0000
31
0.0
0
LINE
8
CUT
62
1
10
22.0000
20
82.0000
30
0.0
11
10.0000
21
88.0000
31
0.0
0
LINE
8
CUT
62
1
10
10.0000
20
88.0000
30
0.0
11
10.0000
21
52.0000
31
0.0
0
LINE
8
CUT
62
1
10
10.0000
20
52.0000
30
0.0
11
22.0000
21
58.0000
31
0.0
0
LINE
8
CUT
62
1
10
22.0000
20
58.0000
30
0.0
11
22.0000
21
10.0000
31
0.0
0
LINE
8
CUT
62
1
10
37.0000
20
24.0000
30
0.0
11
177.6000
21
24.0000
31
0.0
0
LINE
8
CUT
62
1
10
177.6000
20
24.0000
30
0.0
11
177.6000
21
156.6000
31
0.0
0
LINE
8
CUT
62
1
10
177.6000
20
156.6000
30
0.0
11
37.0000
21
156.6000
31
0.0
0
LINE
8
CUT
62
1
10
37.0000
20
156.6000
30
0.0
11
37.0000
21
24.0000
31
0.0
0
TEXT
8
ENGRAVE
62
5
10
16.0000
20
14.0000
30
0.0
40
6.0000
1
test2
0
LINE
8
CUT
62
1
10
198.6000
20
10.0000
30
0.0
11
418.6000
21
10.0000
31
0.0
0
LINE
8
CUT
62
1
10
418.6000
20
10.0000
30
0.0
11
418.6000
21
57.9000
31
0.0
0
LINE
8
CUT
62
1
10
418.6000
20
57.9000
30
0.0
11
406.5000
21
51.9000
31
0.0
0
LINE
8
CUT
62
1
10
406.5000
20
51.9000
30
0.0
11
406.5000
21
88.1000
31
0.0
0
LINE
8
CUT
62
1
10
406.5000
20
88.1000
30
0.0
11
418.6000
21
82.1000
31
0.0
0
LINE
8
CUT
62
1
10
418.6000
20
82.1000
30
0.0
11
418.6000
21
130.0000
31
0.0
0
LINE
8
CUT
62
1
10
418.6000
20
130.0000
30
0.0
11
401.4000
21
130.0000
31
0.0
0
LINE
8
CUT
62
1
10
401.4000
20
130.0000
30
0.0
11
398.6000
21
133.8000
31
0.0
0
LINE
8
CUT
62
1
10
398.6000
20
133.8000
30
0.0
11
395.8000
21
130.0000
31
0.0
0
LINE
8
CUT
62
1
10
395.8000
20
130.0000
30
0.0
11
198.6000
21
130.0000
31
0.0
0
LINE
8
CUT
62
1
10
198.6000
20
130.0000
30
0.0
11
198.6000
21
10.0000
31
0.0
0
CIRCLE
8
CUT
62
1
10
248.3500
20
44.2860
30
0.0
40
4.1500
0
CIRCLE
8
CUT
62
1
10
348.8500
20
95.7140
30
0.0
40
4.1500
0
LINE
8
ENGRAVE
62
5
10
198.6000
20
10.0000
30
0.0
11
398.6000
21
10.0000
31
0.0
0
LINE
8
ENGRAVE
62
5
10
398.6000
20
10.0000
30
0.0
11
398.6000
21
130.0000
31
0.0
0
LINE
8
ENGRAVE
62
5
10
398.6000
20
130.0000
30
0.0
11
198.6000
21
130.0000
31
0.0
0
LINE
8
ENGRAVE
62
5
10
198.6000
20
130.0000
30
0.0
11
198.6000
21
10.0000
31
0.0
0
CIRCLE
8
ENGRAVE
62
5
10
248.3500
20
44.2860
30
0.0
40
17.7500
0
CIRCLE
8
ENGRAVE
62
5
10
348.8500
20
95.7140
30
0.0
40
17.7500
0
TEXT
8
ENGRAVE
62
5
10
292.6000
20
67.5000
30
0.0
40
5.0000
1
test
0
TEXT
8
ENGRAVE
62
5
10
204.6000
20
14.0000
30
0.0
40
6.0000
1
test1
0
ENDSEC
0
EOF
