0
SECTION
2
HEADER
9
$ACADVER
1
AC1009
0
ENDSEC
0
SECTION
2
TABLES
0
TABLE
2
LAYER
70
2
0
LAYER
2
CUT
70
0
62
1
6
CONTINUOUS
0
LAYER
2
ENGRAVE
70
0
62
5
6
CONTINUOUS
0
LAYER
2
SHEET
70
0
62
3
6
CONTINUOUS
0
ENDTAB
0
ENDSEC
0
SECTION
2
ENTITIES
0
LINE
8
SHEET
62
3
10
0.0000
20
0.0000
30
0.0
11
800.0000
21
0.0000
31
0.0
0
LINE
8
SHEET
62
3
10
800.0000
20
0.0000
30
0.0
11
800.0000
21
600.0000
31
0.0
0
LINE
8
SHEET
62
3
10
800.0000
20
600.0000
30
0.0
11
0.0000
21
600.0000
31
0.0
0
LINE
8
SHEET
62
3
10
0.0000
20
600.0000
30
0.0
11
0.0000
21
0.0000
31
0.0
0
TEXT
8
SHEET
62
3
10
2.0000
20
594.0000
30
0.0
40
4.0000
1
ARES_Mauer guides c_acb A5/B7/C5 sheet 4/4 - CUT lines kerf-compensated for 0.3 mm
0
LINE
8
CUT
62
1
10
21.8500
20
9.8500
30
0.0
11
602.1500
21
9.8500
31
0.0
0
LINE
8
CUT
62
1
10
602.1500
20
9.8500
30
0.0
11
602.1500
21
130.1500
31
0.0
0
LINE
8
CUT
62
1
10
602.1500
20
130.1500
30
0.0
11
404.8758
21
130.1500
31
0.0
0
LINE
8
CUT
62
1
10
404.8758
20
130.1500
30
0.0
11
402.0000
21
134.0529
31
0.0
0
LINE
8
CUT
62
1
10
402.0000
20
134.0529
30
0.0
11
399.1242
21
130.1500
31
0.0
0
LINE
8
CUT
62
1
10
399.1242
20
130.1500
30
0.0
11
204.8758
21
130.1500
31
0.0
0
LINE
8
CUT
62
1
10
204.8758
20
130.1500
30
0.0
11
202.0000
21
134.0529
31
0.0
0
LINE
8
CUT
62
1
10
202.0000
20
134.0529
30
0.0
11
199.1242
21
130.1500
31
0.0
0
LINE
8
CUT
62
1
10
199.1242
20
130.1500
30
0.0
11
21.8500
21
130.1500
31
0.0
0
LINE
8
CUT
62
1
10
21.8500
20
130.1500
30
0.0
11
21.8500
21
82.2427
31
0.0
0
LINE
8
CUT
62
1
10
21.8500
20
82.2427
30
0.0
11
9.8500
21
88.2427
31
0.0
0
LINE
8
CUT
62
1
10
9.8500
20
88.2427
30
0.0
11
9.8500
21
51.7573
31
0.0
0
LINE
8
CUT
62
1
10
9.8500
20
51.7573
30
0.0
11
21.8500
21
57.7573
31
0.0
0
LINE
8
CUT
62
1
10
21.8500
20
57.7573
30
0.0
11
21.8500
21
9.8500
31
0.0
0
CIRCLE
8
CUT
62
1
10
51.7500
20
44.2860
30
0.0
40
4.0000
0
CIRCLE
8
CUT
62
1
10
152.2500
20
95.7140
30
0.0
40
4.0000
0
CIRCLE
8
CUT
62
1
10
251.7500
20
44.2860
30
0.0
40
4.0000
0
CIRCLE
8
CUT
62
1
10
352.2500
20
95.7140
30
0.0
40
4.0000
0
CIRCLE
8
CUT
62
1
10
451.7500
20
44.2860
30
0.0
40
4.0000
0
CIRCLE
8
CUT
62
1
10
552.2500
20
95.7140
30
0.0
40
4.0000
0
LINE
8
ENGRAVE
62
5
10
2.0000
20
10.0000
30
0.0
11
202.0000
21
10.0000
31
0.0
0
LINE
8
ENGRAVE
62
5
10
202.0000
20
10.0000
30
0.0
11
202.0000
21
130.0000
31
0.0
0
LINE
8
ENGRAVE
62
5
10
202.0000
20
130.0000
30
0.0
11
2.0000
21
130.0000
31
0.0
0
LINE
8
ENGRAVE
62
5
10
2.0000
20
130.0000
30
0.0
11
2.0000
21
10.0000
31
0.0
0
CIRCLE
8
ENGRAVE
62
5
10
51.7500
20
44.2860
30
0.0
40
17.7500
0
CIRCLE
8
ENGRAVE
62
5
10
152.2500
20
95.7140
30
0.0
40
17.7500
0
TEXT
8
ENGRAVE
62
5
10
96.0000
20
67.5000
30
0.0
40
5.0000
1
C2
0
LINE
8
ENGRAVE
62
5
10
202.0000
20
10.0000
30
0.0
11
402.0000
21
10.0000
31
0.0
0
LINE
8
ENGRAVE
62
5
10
402.0000
20
10.0000
30
0.0
11
402.0000
21
130.0000
31
0.0
0
LINE
8
ENGRAVE
62
5
10
402.0000
20
130.0000
30
0.0
11
202.0000
21
130.0000
31
0.0
0
LINE
8
ENGRAVE
62
5
10
202.0000
20
130.0000
30
0.0
11
202.0000
21
10.0000
31
0.0
0
CIRCLE
8
ENGRAVE
62
5
10
251.7500
20
44.2860
30
0.0
40
17.7500
0
CIRCLE
8
ENGRAVE
62
5
10
352.2500
20
95.7140
30
0.0
40
17.7500
0
TEXT
8
ENGRAVE
62
5
10
296.0000
20
67.5000
30
0.0
40
5.0000
1
C3
0
LINE
8
ENGRAVE
62
5
10
402.0000
20
10.0000
30
0.0
11
602.0000
21
10.0000
31
0.0
0
LINE
8
ENGRAVE
62
5
10
602.0000
20
10.0000
30
0.0
11
602.0000
21
130.0000
31
0.0
0
LINE
8
ENGRAVE
62
5
10
602.0000
20
130.0000
30
0.0
11
402.0000
21
130.0000
31
0.0
0
LINE
8
ENGRAVE
62
5
10
402.0000
20
130.0000
30
0.0
11
402.0000
21
10.0000
31
0.0
0
CIRCLE
8
ENGRAVE
62
5
10
451.7500
20
44.2860
30
0.0
40
17.7500
0
CIRCLE
8
ENGRAVE
62
5
10
552.2500
20
95.7140
30
0.0
40
17.7500
0
TEXT
8
ENGRAVE
62
5
10
496.0000
20
67.5000
30
0.0
40
5.0000
1
C4
0
TEXT
8
ENGRAVE
62
5
10
502.0000
20
121.0000
30
0.0
40
5.0000
1
plate W6 ->
0
TEXT
8
ENGRAVE
62
5
10
28.0000
20
14.0000
30
0.0
40
6.0000
1
C2-C4
0
ENDSEC
0
EOF
