0
SECTION
2
HEADER
9
$ACADVER
1
AC1009
0
ENDSEC
0
SECTION
2
TABLES
0
TABLE
2
LAYER
70
2
0
LAYER
2
CUT
70
0
62
1
6
CONTINUOUS
0
LAYER
2
ENGRAVE
70
0
62
5
6
CONTINUOUS
0
ENDTAB
0
ENDSEC
0
SECTION
2
ENTITIES
0
LINE
8
CUT
10
-105.2000
20
-86.7000
30
0.0
11
105.2000
21
-86.7000
31
0.0
0
LINE
8
CUT
10
105.2000
20
-86.7000
30
0.0
11
105.2000
21
86.7000
31
0.0
0
LINE
8
CUT
10
105.2000
20
86.7000
30
0.0
11
-105.2000
21
86.7000
31
0.0
0
LINE
8
CUT
10
-105.2000
20
86.7000
30
0.0
11
-105.2000
21
-86.7000
31
0.0
0
LINE
8
ENGRAVE
10
-82.5000
20
64.0000
30
0.0
11
82.5000
21
64.0000
31
0.0
0
LINE
8
ENGRAVE
10
82.5000
20
64.0000
30
0.0
11
82.5000
21
-56.0000
31
0.0
0
LINE
8
ENGRAVE
10
82.5000
20
-56.0000
30
0.0
11
-82.5000
21
-56.0000
31
0.0
0
LINE
8
ENGRAVE
10
-82.5000
20
-56.0000
30
0.0
11
-82.5000
21
64.0000
31
0.0
0
LINE
8
ENGRAVE
10
-91.2000
20
72.7000
30
0.0
11
91.2000
21
72.7000
31
0.0
0
LINE
8
ENGRAVE
10
91.2000
20
72.7000
30
0.0
11
91.2000
21
-64.7000
31
0.0
0
LINE
8
ENGRAVE
10
91.2000
20
-64.7000
30
0.0
11
-91.2000
21
-64.7000
31
0.0
0
LINE
8
ENGRAVE
10
-91.2000
20
-64.7000
30
0.0
11
-91.2000
21
72.7000
31
0.0
0
LINE
8
ENGRAVE
10
-90.2000
20
64.0000
30
0.0
11
-84.0000
21
64.0000
31
0.0
0
LINE
8
ENGRAVE
10
-82.5000
20
71.7000
30
0.0
11
-82.5000
21
65.5000
31
0.0
0
LINE
8
ENGRAVE
10
-82.5000
20
64.0000
30
0.0
11
-54.5000
21
64.0000
31
0.0
0
LINE
8
ENGRAVE
10
-54.5000
20
64.0000
30
0.0
11
-57.5000
21
65.5000
31
0.0
0
LINE
8
ENGRAVE
10
-54.5000
20
64.0000
30
0.0
11
-57.5000
21
62.5000
31
0.0
0
LINE
8
ENGRAVE
10
-82.5000
20
64.0000
30
0.0
11
-82.5000
21
36.0000
31
0.0
0
LINE
8
ENGRAVE
10
-82.5000
20
36.0000
30
0.0
11
-81.0000
21
39.0000
31
0.0
0
LINE
8
ENGRAVE
10
-82.5000
20
36.0000
30
0.0
11
-84.0000
21
39.0000
31
0.0
0
TEXT
8
ENGRAVE
10
-50.5000
20
62.5000
30
0.0
40
3.0000
1
x
0
TEXT
8
ENGRAVE
10
-83.5000
20
29.5000
30
0.0
40
3.0000
1
y
0
TEXT
8
ENGRAVE
10
-101.2000
20
-82.7000
30
0.0
40
4.0000
1
calib ids 0-43
0
ENDSEC
0
EOF
