0
SECTION
2
HEADER
9
$ACADVER
1
AC1009
0
ENDSEC
0
SECTION
2
TABLES
0
TABLE
2
LAYER
70
2
0
LAYER
2
CUT
70
0
62
1
6
CONTINUOUS
0
LAYER
2
ENGRAVE
70
0
62
5
6
CONTINUOUS
0
ENDTAB
0
ENDSEC
0
SECTION
2
ENTITIES
0
LINE
8
CUT
62
1
10
220.0000
20
0.0000
30
0.0
11
213.0000
21
0.0000
31
0.0
0
LINE
8
CUT
62
1
10
213.0000
20
0.0000
30
0.0
11
210.0000
21
-4.0000
31
0.0
0
LINE
8
CUT
62
1
10
210.0000
20
-4.0000
30
0.0
11
207.0000
21
0.0000
31
0.0
0
LINE
8
CUT
62
1
10
207.0000
20
0.0000
30
0.0
11
13.0000
21
0.0000
31
0.0
0
LINE
8
CUT
62
1
10
13.0000
20
0.0000
30
0.0
11
10.0000
21
-4.0000
31
0.0
0
LINE
8
CUT
62
1
10
10.0000
20
-4.0000
30
0.0
11
7.0000
21
0.0000
31
0.0
0
LINE
8
CUT
62
1
10
7.0000
20
0.0000
30
0.0
11
0.0000
21
0.0000
31
0.0
0
LINE
8
CUT
62
1
10
0.0000
20
0.0000
30
0.0
11
0.0000
21
-110.0000
31
0.0
0
LINE
8
CUT
62
1
10
0.0000
20
-110.0000
30
0.0
11
220.0000
21
-110.0000
31
0.0
0
LINE
8
CUT
62
1
10
220.0000
20
-110.0000
30
0.0
11
220.0000
21
0.0000
31
0.0
0
CIRCLE
8
CUT
62
1
10
27.0000
20
-63.0000
30
0.0
40
10.0000
0
CIRCLE
8
CUT
62
1
10
193.0000
20
-63.0000
30
0.0
40
10.0000
0
LINE
8
ENGRAVE
62
5
10
150.0000
20
-87.0000
30
0.0
11
70.0000
21
-87.0000
31
0.0
0
LINE
8
ENGRAVE
62
5
10
70.0000
20
-87.0000
30
0.0
11
70.0000
21
-23.0000
31
0.0
0
LINE
8
ENGRAVE
62
5
10
70.0000
20
-23.0000
30
0.0
11
150.0000
21
-23.0000
31
0.0
0
LINE
8
ENGRAVE
62
5
10
150.0000
20
-23.0000
30
0.0
11
150.0000
21
-87.0000
31
0.0
0
LINE
8
ENGRAVE
62
5
10
166.0000
20
-103.0000
30
0.0
11
54.0000
21
-103.0000
31
0.0
0
LINE
8
ENGRAVE
62
5
10
54.0000
20
-103.0000
30
0.0
11
54.0000
21
-7.0000
31
0.0
0
LINE
8
ENGRAVE
62
5
10
54.0000
20
-7.0000
30
0.0
11
166.0000
21
-7.0000
31
0.0
0
LINE
8
ENGRAVE
62
5
10
166.0000
20
-7.0000
30
0.0
11
166.0000
21
-103.0000
31
0.0
0
LINE
8
ENGRAVE
62
5
10
162.0000
20
-87.0000
30
0.0
11
151.5000
21
-87.0000
31
0.0
0
LINE
8
ENGRAVE
62
5
10
150.0000
20
-99.0000
30
0.0
11
150.0000
21
-88.5000
31
0.0
0
LINE
8
ENGRAVE
62
5
10
150.0000
20
-87.0000
30
0.0
11
122.0000
21
-87.0000
31
0.0
0
LINE
8
ENGRAVE
62
5
10
122.0000
20
-87.0000
30
0.0
11
125.0000
21
-88.5000
31
0.0
0
LINE
8
ENGRAVE
62
5
10
122.0000
20
-87.0000
30
0.0
11
125.0000
21
-85.5000
31
0.0
0
LINE
8
ENGRAVE
62
5
10
150.0000
20
-87.0000
30
0.0
11
150.0000
21
-59.0000
31
0.0
0
LINE
8
ENGRAVE
62
5
10
150.0000
20
-59.0000
30
0.0
11
148.5000
21
-62.0000
31
0.0
0
LINE
8
ENGRAVE
62
5
10
150.0000
20
-59.0000
30
0.0
11
151.5000
21
-62.0000
31
0.0
0
TEXT
8
ENGRAVE
62
5
10
116.0000
20
-88.5000
30
0.0
40
3.0000
1
x
0
TEXT
8
ENGRAVE
62
5
10
149.0000
20
-55.5000
30
0.0
40
3.0000
1
y
0
TEXT
8
ENGRAVE
62
5
10
5.5000
20
-9.0000
30
0.0
40
3.0000
1
joint
0
TEXT
8
ENGRAVE
62
5
10
199.5000
20
-9.0000
30
0.0
40
3.0000
1
joint
0
TEXT
8
ENGRAVE
62
5
10
4.0000
20
-18.0000
30
0.0
40
3.5000
1
WALL ^
0
TEXT
8
ENGRAVE
62
5
10
4.0000
20
-84.0000
30
0.0
40
3.5000
1
W0
0
TEXT
8
ENGRAVE
62
5
10
4.0000
20
-90.0000
30
0.0
40
3.0000
1
ids 30-39
0
TEXT
8
ENGRAVE
62
5
10
4.0000
20
-96.0000
30
0.0
40
3.0000
1
u = 100 mm
0
TEXT
8
ENGRAVE
62
5
10
4.0000
20
-105.0000
30
0.0
40
3.5000
1
ARES v
0
LINE
8
CUT
62
1
10
450.0000
20
0.0000
30
0.0
11
443.0000
21
0.0000
31
0.0
0
LINE
8
CUT
62
1
10
443.0000
20
0.0000
30
0.0
11
440.0000
21
-4.0000
31
0.0
0
LINE
8
CUT
62
1
10
440.0000
20
-4.0000
30
0.0
11
437.0000
21
0.0000
31
0.0
0
LINE
8
CUT
62
1
10
437.0000
20
0.0000
30
0.0
11
243.0000
21
0.0000
31
0.0
0
LINE
8
CUT
62
1
10
243.0000
20
0.0000
30
0.0
11
240.0000
21
-4.0000
31
0.0
0
LINE
8
CUT
62
1
10
240.0000
20
-4.0000
30
0.0
11
237.0000
21
0.0000
31
0.0
0
LINE
8
CUT
62
1
10
237.0000
20
0.0000
30
0.0
11
230.0000
21
0.0000
31
0.0
0
LINE
8
CUT
62
1
10
230.0000
20
0.0000
30
0.0
11
230.0000
21
-110.0000
31
0.0
0
LINE
8
CUT
62
1
10
230.0000
20
-110.0000
30
0.0
11
450.0000
21
-110.0000
31
0.0
0
LINE
8
CUT
62
1
10
450.0000
20
-110.0000
30
0.0
11
450.0000
21
0.0000
31
0.0
0
CIRCLE
8
CUT
62
1
10
257.0000
20
-63.0000
30
0.0
40
10.0000
0
CIRCLE
8
CUT
62
1
10
423.0000
20
-63.0000
30
0.0
40
10.0000
0
LINE
8
ENGRAVE
62
5
10
380.0000
20
-87.0000
30
0.0
11
300.0000
21
-87.0000
31
0.0
0
LINE
8
ENGRAVE
62
5
10
300.0000
20
-87.0000
30
0.0
11
300.0000
21
-23.0000
31
0.0
0
LINE
8
ENGRAVE
62
5
10
300.0000
20
-23.0000
30
0.0
11
380.0000
21
-23.0000
31
0.0
0
LINE
8
ENGRAVE
62
5
10
380.0000
20
-23.0000
30
0.0
11
380.0000
21
-87.0000
31
0.0
0
LINE
8
ENGRAVE
62
5
10
396.0000
20
-103.0000
30
0.0
11
284.0000
21
-103.0000
31
0.0
0
LINE
8
ENGRAVE
62
5
10
284.0000
20
-103.0000
30
0.0
11
284.0000
21
-7.0000
31
0.0
0
LINE
8
ENGRAVE
62
5
10
284.0000
20
-7.0000
30
0.0
11
396.0000
21
-7.0000
31
0.0
0
LINE
8
ENGRAVE
62
5
10
396.0000
20
-7.0000
30
0.0
11
396.0000
21
-103.0000
31
0.0
0
LINE
8
ENGRAVE
62
5
10
392.0000
20
-87.0000
30
0.0
11
381.5000
21
-87.0000
31
0.0
0
LINE
8
ENGRAVE
62
5
10
380.0000
20
-99.0000
30
0.0
11
380.0000
21
-88.5000
31
0.0
0
LINE
8
ENGRAVE
62
5
10
380.0000
20
-87.0000
30
0.0
11
352.0000
21
-87.0000
31
0.0
0
LINE
8
ENGRAVE
62
5
10
352.0000
20
-87.0000
30
0.0
11
355.0000
21
-88.5000
31
0.0
0
LINE
8
ENGRAVE
62
5
10
352.0000
20
-87.0000
30
0.0
11
355.0000
21
-85.5000
31
0.0
0
LINE
8
ENGRAVE
62
5
10
380.0000
20
-87.0000
30
0.0
11
380.0000
21
-59.0000
31
0.0
0
LINE
8
ENGRAVE
62
5
10
380.0000
20
-59.0000
30
0.0
11
378.5000
21
-62.0000
31
0.0
0
LINE
8
ENGRAVE
62
5
10
380.0000
20
-59.0000
30
0.0
11
381.5000
21
-62.0000
31
0.0
0
TEXT
8
ENGRAVE
62
5
10
346.0000
20
-88.5000
30
0.0
40
3.0000
1
x
0
TEXT
8
ENGRAVE
62
5
10
379.0000
20
-55.5000
30
0.0
40
3.0000
1
y
0
TEXT
8
ENGRAVE
62
5
10
235.5000
20
-9.0000
30
0.0
40
3.0000
1
joint
0
TEXT
8
ENGRAVE
62
5
10
429.5000
20
-9.0000
30
0.0
40
3.0000
1
joint
0
TEXT
8
ENGRAVE
62
5
10
234.0000
20
-18.0000
30
0.0
40
3.5000
1
WALL ^
0
TEXT
8
ENGRAVE
62
5
10
234.0000
20
-84.0000
30
0.0
40
3.5000
1
W1
0
TEXT
8
ENGRAVE
62
5
10
234.0000
20
-90.0000
30
0.0
40
3.0000
1
ids 40-49
0
TEXT
8
ENGRAVE
62
5
10
234.0000
20
-96.0000
30
0.0
40
3.0000
1
u = 900 mm
0
TEXT
8
ENGRAVE
62
5
10
234.0000
20
-105.0000
30
0.0
40
3.5000
1
ARES v
0
LINE
8
CUT
62
1
10
220.0000
20
-120.0000
30
0.0
11
213.0000
21
-120.0000
31
0.0
0
LINE
8
CUT
62
1
10
213.0000
20
-120.0000
30
0.0
11
210.0000
21
-124.0000
31
0.0
0
LINE
8
CUT
62
1
10
210.0000
20
-124.0000
30
0.0
11
207.0000
21
-120.0000
31
0.0
0
LINE
8
CUT
62
1
10
207.0000
20
-120.0000
30
0.0
11
13.0000
21
-120.0000
31
0.0
0
LINE
8
CUT
62
1
10
13.0000
20
-120.0000
30
0.0
11
10.0000
21
-124.0000
31
0.0
0
LINE
8
CUT
62
1
10
10.0000
20
-124.0000
30
0.0
11
7.0000
21
-120.0000
31
0.0
0
LINE
8
CUT
62
1
10
7.0000
20
-120.0000
30
0.0
11
0.0000
21
-120.0000
31
0.0
0
LINE
8
CUT
62
1
10
0.0000
20
-120.0000
30
0.0
11
0.0000
21
-230.0000
31
0.0
0
LINE
8
CUT
62
1
10
0.0000
20
-230.0000
30
0.0
11
220.0000
21
-230.0000
31
0.0
0
LINE
8
CUT
62
1
10
220.0000
20
-230.0000
30
0.0
11
220.0000
21
-120.0000
31
0.0
0
CIRCLE
8
CUT
62
1
10
27.0000
20
-183.0000
30
0.0
40
10.0000
0
CIRCLE
8
CUT
62
1
10
193.0000
20
-183.0000
30
0.0
40
10.0000
0
LINE
8
ENGRAVE
62
5
10
150.0000
20
-207.0000
30
0.0
11
70.0000
21
-207.0000
31
0.0
0
LINE
8
ENGRAVE
62
5
10
70.0000
20
-207.0000
30
0.0
11
70.0000
21
-143.0000
31
0.0
0
LINE
8
ENGRAVE
62
5
10
70.0000
20
-143.0000
30
0.0
11
150.0000
21
-143.0000
31
0.0
0
LINE
8
ENGRAVE
62
5
10
150.0000
20
-143.0000
30
0.0
11
150.0000
21
-207.0000
31
0.0
0
LINE
8
ENGRAVE
62
5
10
166.0000
20
-223.0000
30
0.0
11
54.0000
21
-223.0000
31
0.0
0
LINE
8
ENGRAVE
62
5
10
54.0000
20
-223.0000
30
0.0
11
54.0000
21
-127.0000
31
0.0
0
LINE
8
ENGRAVE
62
5
10
54.0000
20
-127.0000
30
0.0
11
166.0000
21
-127.0000
31
0.0
0
LINE
8
ENGRAVE
62
5
10
166.0000
20
-127.0000
30
0.0
11
166.0000
21
-223.0000
31
0.0
0
LINE
8
ENGRAVE
62
5
10
162.0000
20
-207.0000
30
0.0
11
151.5000
21
-207.0000
31
0.0
0
LINE
8
ENGRAVE
62
5
10
150.0000
20
-219.0000
30
0.0
11
150.0000
21
-208.5000
31
0.0
0
LINE
8
ENGRAVE
62
5
10
150.0000
20
-207.0000
30
0.0
11
122.0000
21
-207.0000
31
0.0
0
LINE
8
ENGRAVE
62
5
10
122.0000
20
-207.0000
30
0.0
11
125.0000
21
-208.5000
31
0.0
0
LINE
8
ENGRAVE
62
5
10
122.0000
20
-207.0000
30
0.0
11
125.0000
21
-205.5000
31
0.0
0
LINE
8
ENGRAVE
62
5
10
150.0000
20
-207.0000
30
0.0
11
150.0000
21
-179.0000
31
0.0
0
LINE
8
ENGRAVE
62
5
10
150.0000
20
-179.0000
30
0.0
11
148.5000
21
-182.0000
31
0.0
0
LINE
8
ENGRAVE
62
5
10
150.0000
20
-179.0000
30
0.0
11
151.5000
21
-182.0000
31
0.0
0
TEXT
8
ENGRAVE
62
5
10
116.0000
20
-208.5000
30
0.0
40
3.0000
1
x
0
TEXT
8
ENGRAVE
62
5
10
149.0000
20
-175.5000
30
0.0
40
3.0000
1
y
0
TEXT
8
ENGRAVE
62
5
10
5.5000
20
-129.0000
30
0.0
40
3.0000
1
joint
0
TEXT
8
ENGRAVE
62
5
10
199.5000
20
-129.0000
30
0.0
40
3.0000
1
joint
0
TEXT
8
ENGRAVE
62
5
10
4.0000
20
-138.0000
30
0.0
40
3.5000
1
WALL ^
0
TEXT
8
ENGRAVE
62
5
10
4.0000
20
-204.0000
30
0.0
40
3.5000
1
W2
0
TEXT
8
ENGRAVE
62
5
10
4.0000
20
-210.0000
30
0.0
40
3.0000
1
ids 50-59
0
TEXT
8
ENGRAVE
62
5
10
4.0000
20
-216.0000
30
0.0
40
3.0000
1
u = 1700 mm
0
TEXT
8
ENGRAVE
62
5
10
4.0000
20
-225.0000
30
0.0
40
3.5000
1
ARES v
0
LINE
8
CUT
62
1
10
450.0000
20
-120.0000
30
0.0
11
443.0000
21
-120.0000
31
0.0
0
LINE
8
CUT
62
1
10
443.0000
20
-120.0000
30
0.0
11
440.0000
21
-124.0000
31
0.0
0
LINE
8
CUT
62
1
10
440.0000
20
-124.0000
30
0.0
11
437.0000
21
-120.0000
31
0.0
0
LINE
8
CUT
62
1
10
437.0000
20
-120.0000
30
0.0
11
243.0000
21
-120.0000
31
0.0
0
LINE
8
CUT
62
1
10
243.0000
20
-120.0000
30
0.0
11
240.0000
21
-124.0000
31
0.0
0
LINE
8
CUT
62
1
10
240.0000
20
-124.0000
30
0.0
11
237.0000
21
-120.0000
31
0.0
0
LINE
8
CUT
62
1
10
237.0000
20
-120.0000
30
0.0
11
230.0000
21
-120.0000
31
0.0
0
LINE
8
CUT
62
1
10
230.0000
20
-120.0000
30
0.0
11
230.0000
21
-230.0000
31
0.0
0
LINE
8
CUT
62
1
10
230.0000
20
-230.0000
30
0.0
11
450.0000
21
-230.0000
31
0.0
0
LINE
8
CUT
62
1
10
450.0000
20
-230.0000
30
0.0
11
450.0000
21
-120.0000
31
0.0
0
CIRCLE
8
CUT
62
1
10
257.0000
20
-183.0000
30
0.0
40
10.0000
0
CIRCLE
8
CUT
62
1
10
423.0000
20
-183.0000
30
0.0
40
10.0000
0
LINE
8
ENGRAVE
62
5
10
380.0000
20
-207.0000
30
0.0
11
300.0000
21
-207.0000
31
0.0
0
LINE
8
ENGRAVE
62
5
10
300.0000
20
-207.0000
30
0.0
11
300.0000
21
-143.0000
31
0.0
0
LINE
8
ENGRAVE
62
5
10
300.0000
20
-143.0000
30
0.0
11
380.0000
21
-143.0000
31
0.0
0
LINE
8
ENGRAVE
62
5
10
380.0000
20
-143.0000
30
0.0
11
380.0000
21
-207.0000
31
0.0
0
LINE
8
ENGRAVE
62
5
10
396.0000
20
-223.0000
30
0.0
11
284.0000
21
-223.0000
31
0.0
0
LINE
8
ENGRAVE
62
5
10
284.0000
20
-223.0000
30
0.0
11
284.0000
21
-127.0000
31
0.0
0
LINE
8
ENGRAVE
62
5
10
284.0000
20
-127.0000
30
0.0
11
396.0000
21
-127.0000
31
0.0
0
LINE
8
ENGRAVE
62
5
10
396.0000
20
-127.0000
30
0.0
11
396.0000
21
-223.0000
31
0.0
0
LINE
8
ENGRAVE
62
5
10
392.0000
20
-207.0000
30
0.0
11
381.5000
21
-207.0000
31
0.0
0
LINE
8
ENGRAVE
62
5
10
380.0000
20
-219.0000
30
0.0
11
380.0000
21
-208.5000
31
0.0
0
LINE
8
ENGRAVE
62
5
10
380.0000
20
-207.0000
30
0.0
11
352.0000
21
-207.0000
31
0.0
0
LINE
8
ENGRAVE
62
5
10
352.0000
20
-207.0000
30
0.0
11
355.0000
21
-208.5000
31
0.0
0
LINE
8
ENGRAVE
62
5
10
352.0000
20
-207.0000
30
0.0
11
355.0000
21
-205.5000
31
0.0
0
LINE
8
ENGRAVE
62
5
10
380.0000
20
-207.0000
30
0.0
11
380.0000
21
-179.0000
31
0.0
0
LINE
8
ENGRAVE
62
5
10
380.0000
20
-179.0000
30
0.0
11
378.5000
21
-182.0000
31
0.0
0
LINE
8
ENGRAVE
62
5
10
380.0000
20
-179.0000
30
0.0
11
381.5000
21
-182.0000
31
0.0
0
TEXT
8
ENGRAVE
62
5
10
346.0000
20
-208.5000
30
0.0
40
3.0000
1
x
0
TEXT
8
ENGRAVE
62
5
10
379.0000
20
-175.5000
30
0.0
40
3.0000
1
y
0
TEXT
8
ENGRAVE
62
5
10
235.5000
20
-129.0000
30
0.0
40
3.0000
1
joint
0
TEXT
8
ENGRAVE
62
5
10
429.5000
20
-129.0000
30
0.0
40
3.0000
1
joint
0
TEXT
8
ENGRAVE
62
5
10
234.0000
20
-138.0000
30
0.0
40
3.5000
1
WALL ^
0
TEXT
8
ENGRAVE
62
5
10
234.0000
20
-204.0000
30
0.0
40
3.5000
1
W3
0
TEXT
8
ENGRAVE
62
5
10
234.0000
20
-210.0000
30
0.0
40
3.0000
1
ids 60-69
0
TEXT
8
ENGRAVE
62
5
10
234.0000
20
-216.0000
30
0.0
40
3.0000
1
u = 2500 mm
0
TEXT
8
ENGRAVE
62
5
10
234.0000
20
-225.0000
30
0.0
40
3.5000
1
ARES v
0
LINE
8
CUT
62
1
10
220.0000
20
-240.0000
30
0.0
11
213.0000
21
-240.0000
31
0.0
0
LINE
8
CUT
62
1
10
213.0000
20
-240.0000
30
0.0
11
210.0000
21
-244.0000
31
0.0
0
LINE
8
CUT
62
1
10
210.0000
20
-244.0000
30
0.0
11
207.0000
21
-240.0000
31
0.0
0
LINE
8
CUT
62
1
10
207.0000
20
-240.0000
30
0.0
11
13.0000
21
-240.0000
31
0.0
0
LINE
8
CUT
62
1
10
13.0000
20
-240.0000
30
0.0
11
10.0000
21
-244.0000
31
0.0
0
LINE
8
CUT
62
1
10
10.0000
20
-244.0000
30
0.0
11
7.0000
21
-240.0000
31
0.0
0
LINE
8
CUT
62
1
10
7.0000
20
-240.0000
30
0.0
11
0.0000
21
-240.0000
31
0.0
0
LINE
8
CUT
62
1
10
0.0000
20
-240.0000
30
0.0
11
0.0000
21
-350.0000
31
0.0
0
LINE
8
CUT
62
1
10
0.0000
20
-350.0000
30
0.0
11
220.0000
21
-350.0000
31
0.0
0
LINE
8
CUT
62
1
10
220.0000
20
-350.0000
30
0.0
11
220.0000
21
-240.0000
31
0.0
0
CIRCLE
8
CUT
62
1
10
27.0000
20
-303.0000
30
0.0
40
10.0000
0
CIRCLE
8
CUT
62
1
10
193.0000
20
-303.0000
30
0.0
40
10.0000
0
LINE
8
ENGRAVE
62
5
10
150.0000
20
-327.0000
30
0.0
11
70.0000
21
-327.0000
31
0.0
0
LINE
8
ENGRAVE
62
5
10
70.0000
20
-327.0000
30
0.0
11
70.0000
21
-263.0000
31
0.0
0
LINE
8
ENGRAVE
62
5
10
70.0000
20
-263.0000
30
0.0
11
150.0000
21
-263.0000
31
0.0
0
LINE
8
ENGRAVE
62
5
10
150.0000
20
-263.0000
30
0.0
11
150.0000
21
-327.0000
31
0.0
0
LINE
8
ENGRAVE
62
5
10
166.0000
20
-343.0000
30
0.0
11
54.0000
21
-343.0000
31
0.0
0
LINE
8
ENGRAVE
62
5
10
54.0000
20
-343.0000
30
0.0
11
54.0000
21
-247.0000
31
0.0
0
LINE
8
ENGRAVE
62
5
10
54.0000
20
-247.0000
30
0.0
11
166.0000
21
-247.0000
31
0.0
0
LINE
8
ENGRAVE
62
5
10
166.0000
20
-247.0000
30
0.0
11
166.0000
21
-343.0000
31
0.0
0
LINE
8
ENGRAVE
62
5
10
162.0000
20
-327.0000
30
0.0
11
151.5000
21
-327.0000
31
0.0
0
LINE
8
ENGRAVE
62
5
10
150.0000
20
-339.0000
30
0.0
11
150.0000
21
-328.5000
31
0.0
0
LINE
8
ENGRAVE
62
5
10
150.0000
20
-327.0000
30
0.0
11
122.0000
21
-327.0000
31
0.0
0
LINE
8
ENGRAVE
62
5
10
122.0000
20
-327.0000
30
0.0
11
125.0000
21
-328.5000
31
0.0
0
LINE
8
ENGRAVE
62
5
10
122.0000
20
-327.0000
30
0.0
11
125.0000
21
-325.5000
31
0.0
0
LINE
8
ENGRAVE
62
5
10
150.0000
20
-327.0000
30
0.0
11
150.0000
21
-299.0000
31
0.0
0
LINE
8
ENGRAVE
62
5
10
150.0000
20
-299.0000
30
0.0
11
148.5000
21
-302.0000
31
0.0
0
LINE
8
ENGRAVE
62
5
10
150.0000
20
-299.0000
30
0.0
11
151.5000
21
-302.0000
31
0.0
0
TEXT
8
ENGRAVE
62
5
10
116.0000
20
-328.5000
30
0.0
40
3.0000
1
x
0
TEXT
8
ENGRAVE
62
5
10
149.0000
20
-295.5000
30
0.0
40
3.0000
1
y
0
TEXT
8
ENGRAVE
62
5
10
5.5000
20
-249.0000
30
0.0
40
3.0000
1
joint
0
TEXT
8
ENGRAVE
62
5
10
199.5000
20
-249.0000
30
0.0
40
3.0000
1
joint
0
TEXT
8
ENGRAVE
62
5
10
4.0000
20
-258.0000
30
0.0
40
3.5000
1
WALL ^
0
TEXT
8
ENGRAVE
62
5
10
4.0000
20
-324.0000
30
0.0
40
3.5000
1
W4
0
TEXT
8
ENGRAVE
62
5
10
4.0000
20
-330.0000
30
0.0
40
3.0000
1
ids 70-79
0
TEXT
8
ENGRAVE
62
5
10
4.0000
20
-336.0000
30
0.0
40
3.0000
1
u = 3300 mm
0
TEXT
8
ENGRAVE
62
5
10
4.0000
20
-345.0000
30
0.0
40
3.5000
1
ARES v
0
LINE
8
CUT
62
1
10
450.0000
20
-240.0000
30
0.0
11
443.0000
21
-240.0000
31
0.0
0
LINE
8
CUT
62
1
10
443.0000
20
-240.0000
30
0.0
11
440.0000
21
-244.0000
31
0.0
0
LINE
8
CUT
62
1
10
440.0000
20
-244.0000
30
0.0
11
437.0000
21
-240.0000
31
0.0
0
LINE
8
CUT
62
1
10
437.0000
20
-240.0000
30
0.0
11
243.0000
21
-240.0000
31
0.0
0
LINE
8
CUT
62
1
10
243.0000
20
-240.0000
30
0.0
11
240.0000
21
-244.0000
31
0.0
0
LINE
8
CUT
62
1
10
240.0000
20
-244.0000
30
0.0
11
237.0000
21
-240.0000
31
0.0
0
LINE
8
CUT
62
1
10
237.0000
20
-240.0000
30
0.0
11
230.0000
21
-240.0000
31
0.0
0
LINE
8
CUT
62
1
10
230.0000
20
-240.0000
30
0.0
11
230.0000
21
-350.0000
31
0.0
0
LINE
8
CUT
62
1
10
230.0000
20
-350.0000
30
0.0
11
450.0000
21
-350.0000
31
0.0
0
LINE
8
CUT
62
1
10
450.0000
20
-350.0000
30
0.0
11
450.0000
21
-240.0000
31
0.0
0
CIRCLE
8
CUT
62
1
10
257.0000
20
-303.0000
30
0.0
40
10.0000
0
CIRCLE
8
CUT
62
1
10
423.0000
20
-303.0000
30
0.0
40
10.0000
0
LINE
8
ENGRAVE
62
5
10
380.0000
20
-327.0000
30
0.0
11
300.0000
21
-327.0000
31
0.0
0
LINE
8
ENGRAVE
62
5
10
300.0000
20
-327.0000
30
0.0
11
300.0000
21
-263.0000
31
0.0
0
LINE
8
ENGRAVE
62
5
10
300.0000
20
-263.0000
30
0.0
11
380.0000
21
-263.0000
31
0.0
0
LINE
8
ENGRAVE
62
5
10
380.0000
20
-263.0000
30
0.0
11
380.0000
21
-327.0000
31
0.0
0
LINE
8
ENGRAVE
62
5
10
396.0000
20
-343.0000
30
0.0
11
284.0000
21
-343.0000
31
0.0
0
LINE
8
ENGRAVE
62
5
10
284.0000
20
-343.0000
30
0.0
11
284.0000
21
-247.0000
31
0.0
0
LINE
8
ENGRAVE
62
5
10
284.0000
20
-247.0000
30
0.0
11
396.0000
21
-247.0000
31
0.0
0
LINE
8
ENGRAVE
62
5
10
396.0000
20
-247.0000
30
0.0
11
396.0000
21
-343.0000
31
0.0
0
LINE
8
ENGRAVE
62
5
10
392.0000
20
-327.0000
30
0.0
11
381.5000
21
-327.0000
31
0.0
0
LINE
8
ENGRAVE
62
5
10
380.0000
20
-339.0000
30
0.0
11
380.0000
21
-328.5000
31
0.0
0
LINE
8
ENGRAVE
62
5
10
380.0000
20
-327.0000
30
0.0
11
352.0000
21
-327.0000
31
0.0
0
LINE
8
ENGRAVE
62
5
10
352.0000
20
-327.0000
30
0.0
11
355.0000
21
-328.5000
31
0.0
0
LINE
8
ENGRAVE
62
5
10
352.0000
20
-327.0000
30
0.0
11
355.0000
21
-325.5000
31
0.0
0
LINE
8
ENGRAVE
62
5
10
380.0000
20
-327.0000
30
0.0
11
380.0000
21
-299.0000
31
0.0
0
LINE
8
ENGRAVE
62
5
10
380.0000
20
-299.0000
30
0.0
11
378.5000
21
-302.0000
31
0.0
0
LINE
8
ENGRAVE
62
5
10
380.0000
20
-299.0000
30
0.0
11
381.5000
21
-302.0000
31
0.0
0
TEXT
8
ENGRAVE
62
5
10
346.0000
20
-328.5000
30
0.0
40
3.0000
1
x
0
TEXT
8
ENGRAVE
62
5
10
379.0000
20
-295.5000
30
0.0
40
3.0000
1
y
0
TEXT
8
ENGRAVE
62
5
10
235.5000
20
-249.0000
30
0.0
40
3.0000
1
joint
0
TEXT
8
ENGRAVE
62
5
10
429.5000
20
-249.0000
30
0.0
40
3.0000
1
joint
0
TEXT
8
ENGRAVE
62
5
10
234.0000
20
-258.0000
30
0.0
40
3.5000
1
WALL ^
0
TEXT
8
ENGRAVE
62
5
10
234.0000
20
-324.0000
30
0.0
40
3.5000
1
W5
0
TEXT
8
ENGRAVE
62
5
10
234.0000
20
-330.0000
30
0.0
40
3.0000
1
ids 80-89
0
TEXT
8
ENGRAVE
62
5
10
234.0000
20
-336.0000
30
0.0
40
3.0000
1
u = 4100 mm
0
TEXT
8
ENGRAVE
62
5
10
234.0000
20
-345.0000
30
0.0
40
3.5000
1
ARES v
0
LINE
8
CUT
62
1
10
220.0000
20
-360.0000
30
0.0
11
213.0000
21
-360.0000
31
0.0
0
LINE
8
CUT
62
1
10
213.0000
20
-360.0000
30
0.0
11
210.0000
21
-364.0000
31
0.0
0
LINE
8
CUT
62
1
10
210.0000
20
-364.0000
30
0.0
11
207.0000
21
-360.0000
31
0.0
0
LINE
8
CUT
62
1
10
207.0000
20
-360.0000
30
0.0
11
13.0000
21
-360.0000
31
0.0
0
LINE
8
CUT
62
1
10
13.0000
20
-360.0000
30
0.0
11
10.0000
21
-364.0000
31
0.0
0
LINE
8
CUT
62
1
10
10.0000
20
-364.0000
30
0.0
11
7.0000
21
-360.0000
31
0.0
0
LINE
8
CUT
62
1
10
7.0000
20
-360.0000
30
0.0
11
0.0000
21
-360.0000
31
0.0
0
LINE
8
CUT
62
1
10
0.0000
20
-360.0000
30
0.0
11
0.0000
21
-470.0000
31
0.0
0
LINE
8
CUT
62
1
10
0.0000
20
-470.0000
30
0.0
11
220.0000
21
-470.0000
31
0.0
0
LINE
8
CUT
62
1
10
220.0000
20
-470.0000
30
0.0
11
220.0000
21
-360.0000
31
0.0
0
CIRCLE
8
CUT
62
1
10
27.0000
20
-423.0000
30
0.0
40
10.0000
0
CIRCLE
8
CUT
62
1
10
193.0000
20
-423.0000
30
0.0
40
10.0000
0
LINE
8
ENGRAVE
62
5
10
150.0000
20
-447.0000
30
0.0
11
70.0000
21
-447.0000
31
0.0
0
LINE
8
ENGRAVE
62
5
10
70.0000
20
-447.0000
30
0.0
11
70.0000
21
-383.0000
31
0.0
0
LINE
8
ENGRAVE
62
5
10
70.0000
20
-383.0000
30
0.0
11
150.0000
21
-383.0000
31
0.0
0
LINE
8
ENGRAVE
62
5
10
150.0000
20
-383.0000
30
0.0
11
150.0000
21
-447.0000
31
0.0
0
LINE
8
ENGRAVE
62
5
10
166.0000
20
-463.0000
30
0.0
11
54.0000
21
-463.0000
31
0.0
0
LINE
8
ENGRAVE
62
5
10
54.0000
20
-463.0000
30
0.0
11
54.0000
21
-367.0000
31
0.0
0
LINE
8
ENGRAVE
62
5
10
54.0000
20
-367.0000
30
0.0
11
166.0000
21
-367.0000
31
0.0
0
LINE
8
ENGRAVE
62
5
10
166.0000
20
-367.0000
30
0.0
11
166.0000
21
-463.0000
31
0.0
0
LINE
8
ENGRAVE
62
5
10
162.0000
20
-447.0000
30
0.0
11
151.5000
21
-447.0000
31
0.0
0
LINE
8
ENGRAVE
62
5
10
150.0000
20
-459.0000
30
0.0
11
150.0000
21
-448.5000
31
0.0
0
LINE
8
ENGRAVE
62
5
10
150.0000
20
-447.0000
30
0.0
11
122.0000
21
-447.0000
31
0.0
0
LINE
8
ENGRAVE
62
5
10
122.0000
20
-447.0000
30
0.0
11
125.0000
21
-448.5000
31
0.0
0
LINE
8
ENGRAVE
62
5
10
122.0000
20
-447.0000
30
0.0
11
125.0000
21
-445.5000
31
0.0
0
LINE
8
ENGRAVE
62
5
10
150.0000
20
-447.0000
30
0.0
11
150.0000
21
-419.0000
31
0.0
0
LINE
8
ENGRAVE
62
5
10
150.0000
20
-419.0000
30
0.0
11
148.5000
21
-422.0000
31
0.0
0
LINE
8
ENGRAVE
62
5
10
150.0000
20
-419.0000
30
0.0
11
151.5000
21
-422.0000
31
0.0
0
TEXT
8
ENGRAVE
62
5
10
116.0000
20
-448.5000
30
0.0
40
3.0000
1
x
0
TEXT
8
ENGRAVE
62
5
10
149.0000
20
-415.5000
30
0.0
40
3.0000
1
y
0
TEXT
8
ENGRAVE
62
5
10
5.5000
20
-369.0000
30
0.0
40
3.0000
1
joint
0
TEXT
8
ENGRAVE
62
5
10
199.5000
20
-369.0000
30
0.0
40
3.0000
1
joint
0
TEXT
8
ENGRAVE
62
5
10
4.0000
20
-378.0000
30
0.0
40
3.5000
1
WALL ^
0
TEXT
8
ENGRAVE
62
5
10
4.0000
20
-444.0000
30
0.0
40
3.5000
1
W6
0
TEXT
8
ENGRAVE
62
5
10
4.0000
20
-450.0000
30
0.0
40
3.0000
1
ids 90-99
0
TEXT
8
ENGRAVE
62
5
10
4.0000
20
-456.0000
30
0.0
40
3.0000
1
u = 4900 mm
0
TEXT
8
ENGRAVE
62
5
10
4.0000
20
-465.0000
30
0.0
40
3.5000
1
ARES v
0
LINE
8
CUT
62
1
10
450.0000
20
-360.0000
30
0.0
11
443.0000
21
-360.0000
31
0.0
0
LINE
8
CUT
62
1
10
443.0000
20
-360.0000
30
0.0
11
440.0000
21
-364.0000
31
0.0
0
LINE
8
CUT
62
1
10
440.0000
20
-364.0000
30
0.0
11
437.0000
21
-360.0000
31
0.0
0
LINE
8
CUT
62
1
10
437.0000
20
-360.0000
30
0.0
11
243.0000
21
-360.0000
31
0.0
0
LINE
8
CUT
62
1
10
243.0000
20
-360.0000
30
0.0
11
240.0000
21
-364.0000
31
0.0
0
LINE
8
CUT
62
1
10
240.0000
20
-364.0000
30
0.0
11
237.0000
21
-360.0000
31
0.0
0
LINE
8
CUT
62
1
10
237.0000
20
-360.0000
30
0.0
11
230.0000
21
-360.0000
31
0.0
0
LINE
8
CUT
62
1
10
230.0000
20
-360.0000
30
0.0
11
230.0000
21
-470.0000
31
0.0
0
LINE
8
CUT
62
1
10
230.0000
20
-470.0000
30
0.0
11
450.0000
21
-470.0000
31
0.0
0
LINE
8
CUT
62
1
10
450.0000
20
-470.0000
30
0.0
11
450.0000
21
-360.0000
31
0.0
0
CIRCLE
8
CUT
62
1
10
257.0000
20
-423.0000
30
0.0
40
10.0000
0
CIRCLE
8
CUT
62
1
10
423.0000
20
-423.0000
30
0.0
40
10.0000
0
LINE
8
ENGRAVE
62
5
10
380.0000
20
-447.0000
30
0.0
11
300.0000
21
-447.0000
31
0.0
0
LINE
8
ENGRAVE
62
5
10
300.0000
20
-447.0000
30
0.0
11
300.0000
21
-383.0000
31
0.0
0
LINE
8
ENGRAVE
62
5
10
300.0000
20
-383.0000
30
0.0
11
380.0000
21
-383.0000
31
0.0
0
LINE
8
ENGRAVE
62
5
10
380.0000
20
-383.0000
30
0.0
11
380.0000
21
-447.0000
31
0.0
0
LINE
8
ENGRAVE
62
5
10
396.0000
20
-463.0000
30
0.0
11
284.0000
21
-463.0000
31
0.0
0
LINE
8
ENGRAVE
62
5
10
284.0000
20
-463.0000
30
0.0
11
284.0000
21
-367.0000
31
0.0
0
LINE
8
ENGRAVE
62
5
10
284.0000
20
-367.0000
30
0.0
11
396.0000
21
-367.0000
31
0.0
0
LINE
8
ENGRAVE
62
5
10
396.0000
20
-367.0000
30
0.0
11
396.0000
21
-463.0000
31
0.0
0
LINE
8
ENGRAVE
62
5
10
392.0000
20
-447.0000
30
0.0
11
381.5000
21
-447.0000
31
0.0
0
LINE
8
ENGRAVE
62
5
10
380.0000
20
-459.0000
30
0.0
11
380.0000
21
-448.5000
31
0.0
0
LINE
8
ENGRAVE
62
5
10
380.0000
20
-447.0000
30
0.0
11
352.0000
21
-447.0000
31
0.0
0
LINE
8
ENGRAVE
62
5
10
352.0000
20
-447.0000
30
0.0
11
355.0000
21
-448.5000
31
0.0
0
LINE
8
ENGRAVE
62
5
10
352.0000
20
-447.0000
30
0.0
11
355.0000
21
-445.5000
31
0.0
0
LINE
8
ENGRAVE
62
5
10
380.0000
20
-447.0000
30
0.0
11
380.0000
21
-419.0000
31
0.0
0
LINE
8
ENGRAVE
62
5
10
380.0000
20
-419.0000
30
0.0
11
378.5000
21
-422.0000
31
0.0
0
LINE
8
ENGRAVE
62
5
10
380.0000
20
-419.0000
30
0.0
11
381.5000
21
-422.0000
31
0.0
0
TEXT
8
ENGRAVE
62
5
10
346.0000
20
-448.5000
30
0.0
40
3.0000
1
x
0
TEXT
8
ENGRAVE
62
5
10
379.0000
20
-415.5000
30
0.0
40
3.0000
1
y
0
TEXT
8
ENGRAVE
62
5
10
235.5000
20
-369.0000
30
0.0
40
3.0000
1
joint
0
TEXT
8
ENGRAVE
62
5
10
429.5000
20
-369.0000
30
0.0
40
3.0000
1
joint
0
TEXT
8
ENGRAVE
62
5
10
234.0000
20
-378.0000
30
0.0
40
3.5000
1
WALL ^
0
TEXT
8
ENGRAVE
62
5
10
234.0000
20
-444.0000
30
0.0
40
3.5000
1
W7
0
TEXT
8
ENGRAVE
62
5
10
234.0000
20
-450.0000
30
0.0
40
3.0000
1
ids 100-109
0
TEXT
8
ENGRAVE
62
5
10
234.0000
20
-456.0000
30
0.0
40
3.0000
1
u = 5700 mm
0
TEXT
8
ENGRAVE
62
5
10
234.0000
20
-465.0000
30
0.0
40
3.5000
1
ARES v
0
LINE
8
CUT
62
1
10
460.0000
20
-492.0000
30
0.0
11
600.0000
21
-492.0000
31
0.0
0
LINE
8
CUT
62
1
10
600.0000
20
-492.0000
30
0.0
11
600.0000
21
-360.0000
31
0.0
0
LINE
8
CUT
62
1
10
600.0000
20
-360.0000
30
0.0
11
460.0000
21
-360.0000
31
0.0
0
LINE
8
CUT
62
1
10
460.0000
20
-360.0000
30
0.0
11
460.0000
21
-492.0000
31
0.0
0
LINE
8
ENGRAVE
62
5
10
490.0000
20
-390.0000
30
0.0
11
570.0000
21
-390.0000
31
0.0
0
LINE
8
ENGRAVE
62
5
10
570.0000
20
-390.0000
30
0.0
11
570.0000
21
-454.0000
31
0.0
0
LINE
8
ENGRAVE
62
5
10
570.0000
20
-454.0000
30
0.0
11
490.0000
21
-454.0000
31
0.0
0
LINE
8
ENGRAVE
62
5
10
490.0000
20
-454.0000
30
0.0
11
490.0000
21
-390.0000
31
0.0
0
LINE
8
ENGRAVE
62
5
10
474.0000
20
-374.0000
30
0.0
11
586.0000
21
-374.0000
31
0.0
0
LINE
8
ENGRAVE
62
5
10
586.0000
20
-374.0000
30
0.0
11
586.0000
21
-470.0000
31
0.0
0
LINE
8
ENGRAVE
62
5
10
586.0000
20
-470.0000
30
0.0
11
474.0000
21
-470.0000
31
0.0
0
LINE
8
ENGRAVE
62
5
10
474.0000
20
-470.0000
30
0.0
11
474.0000
21
-374.0000
31
0.0
0
LINE
8
ENGRAVE
62
5
10
478.0000
20
-390.0000
30
0.0
11
488.5000
21
-390.0000
31
0.0
0
LINE
8
ENGRAVE
62
5
10
490.0000
20
-378.0000
30
0.0
11
490.0000
21
-388.5000
31
0.0
0
LINE
8
ENGRAVE
62
5
10
490.0000
20
-390.0000
30
0.0
11
518.0000
21
-390.0000
31
0.0
0
LINE
8
ENGRAVE
62
5
10
518.0000
20
-390.0000
30
0.0
11
515.0000
21
-388.5000
31
0.0
0
LINE
8
ENGRAVE
62
5
10
518.0000
20
-390.0000
30
0.0
11
515.0000
21
-391.5000
31
0.0
0
LINE
8
ENGRAVE
62
5
10
490.0000
20
-390.0000
30
0.0
11
490.0000
21
-418.0000
31
0.0
0
LINE
8
ENGRAVE
62
5
10
490.0000
20
-418.0000
30
0.0
11
491.5000
21
-415.0000
31
0.0
0
LINE
8
ENGRAVE
62
5
10
490.0000
20
-418.0000
30
0.0
11
488.5000
21
-415.0000
31
0.0
0
TEXT
8
ENGRAVE
62
5
10
522.0000
20
-391.5000
30
0.0
40
3.0000
1
x
0
TEXT
8
ENGRAVE
62
5
10
489.0000
20
-424.5000
30
0.0
40
3.0000
1
y
0
TEXT
8
ENGRAVE
62
5
10
464.0000
20
-488.0000
30
0.0
40
4.0000
1
S0 ids 200-209
0
LINE
8
CUT
62
1
10
0.0000
20
-634.0000
30
0.0
11
140.0000
21
-634.0000
31
0.0
0
LINE
8
CUT
62
1
10
140.0000
20
-634.0000
30
0.0
11
140.0000
21
-502.0000
31
0.0
0
LINE
8
CUT
62
1
10
140.0000
20
-502.0000
30
0.0
11
0.0000
21
-502.0000
31
0.0
0
LINE
8
CUT
62
1
10
0.0000
20
-502.0000
30
0.0
11
0.0000
21
-634.0000
31
0.0
0
LINE
8
ENGRAVE
62
5
10
30.0000
20
-532.0000
30
0.0
11
110.0000
21
-532.0000
31
0.0
0
LINE
8
ENGRAVE
62
5
10
110.0000
20
-532.0000
30
0.0
11
110.0000
21
-596.0000
31
0.0
0
LINE
8
ENGRAVE
62
5
10
110.0000
20
-596.0000
30
0.0
11
30.0000
21
-596.0000
31
0.0
0
LINE
8
ENGRAVE
62
5
10
30.0000
20
-596.0000
30
0.0
11
30.0000
21
-532.0000
31
0.0
0
LINE
8
ENGRAVE
62
5
10
14.0000
20
-516.0000
30
0.0
11
126.0000
21
-516.0000
31
0.0
0
LINE
8
ENGRAVE
62
5
10
126.0000
20
-516.0000
30
0.0
11
126.0000
21
-612.0000
31
0.0
0
LINE
8
ENGRAVE
62
5
10
126.0000
20
-612.0000
30
0.0
11
14.0000
21
-612.0000
31
0.0
0
LINE
8
ENGRAVE
62
5
10
14.0000
20
-612.0000
30
0.0
11
14.0000
21
-516.0000
31
0.0
0
LINE
8
ENGRAVE
62
5
10
18.0000
20
-532.0000
30
0.0
11
28.5000
21
-532.0000
31
0.0
0
LINE
8
ENGRAVE
62
5
10
30.0000
20
-520.0000
30
0.0
11
30.0000
21
-530.5000
31
0.0
0
LINE
8
ENGRAVE
62
5
10
30.0000
20
-532.0000
30
0.0
11
58.0000
21
-532.0000
31
0.0
0
LINE
8
ENGRAVE
62
5
10
58.0000
20
-532.0000
30
0.0
11
55.0000
21
-530.5000
31
0.0
0
LINE
8
ENGRAVE
62
5
10
58.0000
20
-532.0000
30
0.0
11
55.0000
21
-533.5000
31
0.0
0
LINE
8
ENGRAVE
62
5
10
30.0000
20
-532.0000
30
0.0
11
30.0000
21
-560.0000
31
0.0
0
LINE
8
ENGRAVE
62
5
10
30.0000
20
-560.0000
30
0.0
11
31.5000
21
-557.0000
31
0.0
0
LINE
8
ENGRAVE
62
5
10
30.0000
20
-560.0000
30
0.0
11
28.5000
21
-557.0000
31
0.0
0
TEXT
8
ENGRAVE
62
5
10
62.0000
20
-533.5000
30
0.0
40
3.0000
1
x
0
TEXT
8
ENGRAVE
62
5
10
29.0000
20
-566.5000
30
0.0
40
3.0000
1
y
0
TEXT
8
ENGRAVE
62
5
10
4.0000
20
-630.0000
30
0.0
40
4.0000
1
S1 ids 210-219
0
LINE
8
CUT
62
1
10
150.0000
20
-675.4000
30
0.0
11
360.4000
21
-675.4000
31
0.0
0
LINE
8
CUT
62
1
10
360.4000
20
-675.4000
30
0.0
11
360.4000
21
-502.0000
31
0.0
0
LINE
8
CUT
62
1
10
360.4000
20
-502.0000
30
0.0
11
150.0000
21
-502.0000
31
0.0
0
LINE
8
CUT
62
1
10
150.0000
20
-502.0000
30
0.0
11
150.0000
21
-675.4000
31
0.0
0
LINE
8
ENGRAVE
62
5
10
172.7000
20
-524.7000
30
0.0
11
337.7000
21
-524.7000
31
0.0
0
LINE
8
ENGRAVE
62
5
10
337.7000
20
-524.7000
30
0.0
11
337.7000
21
-644.7000
31
0.0
0
LINE
8
ENGRAVE
62
5
10
337.7000
20
-644.7000
30
0.0
11
172.7000
21
-644.7000
31
0.0
0
LINE
8
ENGRAVE
62
5
10
172.7000
20
-644.7000
30
0.0
11
172.7000
21
-524.7000
31
0.0
0
LINE
8
ENGRAVE
62
5
10
164.0000
20
-516.0000
30
0.0
11
346.4000
21
-516.0000
31
0.0
0
LINE
8
ENGRAVE
62
5
10
346.4000
20
-516.0000
30
0.0
11
346.4000
21
-653.4000
31
0.0
0
LINE
8
ENGRAVE
62
5
10
346.4000
20
-653.4000
30
0.0
11
164.0000
21
-653.4000
31
0.0
0
LINE
8
ENGRAVE
62
5
10
164.0000
20
-653.4000
30
0.0
11
164.0000
21
-516.0000
31
0.0
0
LINE
8
ENGRAVE
62
5
10
165.0000
20
-524.7000
30
0.0
11
171.2000
21
-524.7000
31
0.0
0
LINE
8
ENGRAVE
62
5
10
172.7000
20
-517.0000
30
0.0
11
172.7000
21
-523.2000
31
0.0
0
LINE
8
ENGRAVE
62
5
10
172.7000
20
-524.7000
30
0.0
11
200.7000
21
-524.7000
31
0.0
0
LINE
8
ENGRAVE
62
5
10
200.7000
20
-524.7000
30
0.0
11
197.7000
21
-523.2000
31
0.0
0
LINE
8
ENGRAVE
62
5
10
200.7000
20
-524.7000
30
0.0
11
197.7000
21
-526.2000
31
0.0
0
LINE
8
ENGRAVE
62
5
10
172.7000
20
-524.7000
30
0.0
11
172.7000
21
-552.7000
31
0.0
0
LINE
8
ENGRAVE
62
5
10
172.7000
20
-552.7000
30
0.0
11
174.2000
21
-549.7000
31
0.0
0
LINE
8
ENGRAVE
62
5
10
172.7000
20
-552.7000
30
0.0
11
171.2000
21
-549.7000
31
0.0
0
TEXT
8
ENGRAVE
62
5
10
204.7000
20
-526.2000
30
0.0
40
3.0000
1
x
0
TEXT
8
ENGRAVE
62
5
10
171.7000
20
-559.2000
30
0.0
40
3.0000
1
y
0
TEXT
8
ENGRAVE
62
5
10
154.0000
20
-671.4000
30
0.0
40
4.0000
1
calib ids 0-43
0
ENDSEC
0
EOF
