0
SECTION
2
HEADER
9
$ACADVER
1
AC1009
0
ENDSEC
0
SECTION
2
TABLES
0
TABLE
2
LAYER
70
2
0
LAYER
2
CUT
70
0
62
1
6
CONTINUOUS
0
LAYER
2
ENGRAVE
70
0
62
5
6
CONTINUOUS
0
ENDTAB
0
ENDSEC
0
SECTION
2
ENTITIES
0
LINE
8
CUT
10
-70.0000
20
-66.0000
30
0.0
11
70.0000
21
-66.0000
31
0.0
0
LINE
8
CUT
10
70.0000
20
-66.0000
30
0.0
11
70.0000
21
66.0000
31
0.0
0
LINE
8
CUT
10
70.0000
20
66.0000
30
0.0
11
-70.0000
21
66.0000
31
0.0
0
LINE
8
CUT
10
-70.0000
20
66.0000
30
0.0
11
-70.0000
21
-66.0000
31
0.0
0
LINE
8
ENGRAVE
10
-40.0000
20
36.0000
30
0.0
11
40.0000
21
36.0000
31
0.0
0
LINE
8
ENGRAVE
10
40.0000
20
36.0000
30
0.0
11
40.0000
21
-28.0000
31
0.0
0
LINE
8
ENGRAVE
10
40.0000
20
-28.0000
30
0.0
11
-40.0000
21
-28.0000
31
0.0
0
LINE
8
ENGRAVE
10
-40.0000
20
-28.0000
30
0.0
11
-40.0000
21
36.0000
31
0.0
0
LINE
8
ENGRAVE
10
-56.0000
20
52.0000
30
0.0
11
56.0000
21
52.0000
31
0.0
0
LINE
8
ENGRAVE
10
56.0000
20
52.0000
30
0.0
11
56.0000
21
-44.0000
31
0.0
0
LINE
8
ENGRAVE
10
56.0000
20
-44.0000
30
0.0
11
-56.0000
21
-44.0000
31
0.0
0
LINE
8
ENGRAVE
10
-56.0000
20
-44.0000
30
0.0
11
-56.0000
21
52.0000
31
0.0
0
LINE
8
ENGRAVE
10
-52.0000
20
36.0000
30
0.0
11
-41.5000
21
36.0000
31
0.0
0
LINE
8
ENGRAVE
10
-40.0000
20
48.0000
30
0.0
11
-40.0000
21
37.5000
31
0.0
0
LINE
8
ENGRAVE
10
-40.0000
20
36.0000
30
0.0
11
-12.0000
21
36.0000
31
0.0
0
LINE
8
ENGRAVE
10
-12.0000
20
36.0000
30
0.0
11
-15.0000
21
37.5000
31
0.0
0
LINE
8
ENGRAVE
10
-12.0000
20
36.0000
30
0.0
11
-15.0000
21
34.5000
31
0.0
0
LINE
8
ENGRAVE
10
-40.0000
20
36.0000
30
0.0
11
-40.0000
21
8.0000
31
0.0
0
LINE
8
ENGRAVE
10
-40.0000
20
8.0000
30
0.0
11
-38.5000
21
11.0000
31
0.0
0
LINE
8
ENGRAVE
10
-40.0000
20
8.0000
30
0.0
11
-41.5000
21
11.0000
31
0.0
0
TEXT
8
ENGRAVE
10
-8.0000
20
34.5000
30
0.0
40
3.0000
1
x
0
TEXT
8
ENGRAVE
10
-41.0000
20
1.5000
30
0.0
40
3.0000
1
y
0
TEXT
8
ENGRAVE
10
-66.0000
20
-62.0000
30
0.0
40
4.0000
1
S0 ids 200-209
0
ENDSEC
0
EOF
