0
SECTION
2
HEADER
9
$ACADVER
1
AC1009
0
ENDSEC
0
SECTION
2
TABLES
0
TABLE
2
LAYER
70
2
0
LAYER
2
CUT
70
0
62
1
6
CONTINUOUS
0
LAYER
2
ENGRAVE
70
0
62
5
6
CONTINUOUS
0
ENDTAB
0
ENDSEC
0
SECTION
2
ENTITIES
0
LINE
8
CUT
10
110.0000
20
55.0000
30
0.0
11
103.0000
21
55.0000
31
0.0
0
LINE
8
CUT
10
103.0000
20
55.0000
30
0.0
11
100.0000
21
51.0000
31
0.0
0
LINE
8
CUT
10
100.0000
20
51.0000
30
0.0
11
97.0000
21
55.0000
31
0.0
0
LINE
8
CUT
10
97.0000
20
55.0000
30
0.0
11
-97.0000
21
55.0000
31
0.0
0
LINE
8
CUT
10
-97.0000
20
55.0000
30
0.0
11
-100.0000
21
51.0000
31
0.0
0
LINE
8
CUT
10
-100.0000
20
51.0000
30
0.0
11
-103.0000
21
55.0000
31
0.0
0
LINE
8
CUT
10
-103.0000
20
55.0000
30
0.0
11
-110.0000
21
55.0000
31
0.0
0
LINE
8
CUT
10
-110.0000
20
55.0000
30
0.0
11
-110.0000
21
-55.0000
31
0.0
0
LINE
8
CUT
10
-110.0000
20
-55.0000
30
0.0
11
110.0000
21
-55.0000
31
0.0
0
LINE
8
CUT
10
110.0000
20
-55.0000
30
0.0
11
110.0000
21
55.0000
31
0.0
0
CIRCLE
8
CUT
10
-83.0000
20
-8.0000
30
0.0
40
10.0000
0
CIRCLE
8
CUT
10
83.0000
20
-8.0000
30
0.0
40
10.0000
0
LINE
8
ENGRAVE
10
40.0000
20
-32.0000
30
0.0
11
-40.0000
21
-32.0000
31
0.0
0
LINE
8
ENGRAVE
10
-40.0000
20
-32.0000
30
0.0
11
-40.0000
21
32.0000
31
0.0
0
LINE
8
ENGRAVE
10
-40.0000
20
32.0000
30
0.0
11
40.0000
21
32.0000
31
0.0
0
LINE
8
ENGRAVE
10
40.0000
20
32.0000
30
0.0
11
40.0000
21
-32.0000
31
0.0
0
LINE
8
ENGRAVE
10
56.0000
20
-48.0000
30
0.0
11
-56.0000
21
-48.0000
31
0.0
0
LINE
8
ENGRAVE
10
-56.0000
20
-48.0000
30
0.0
11
-56.0000
21
48.0000
31
0.0
0
LINE
8
ENGRAVE
10
-56.0000
20
48.0000
30
0.0
11
56.0000
21
48.0000
31
0.0
0
LINE
8
ENGRAVE
10
56.0000
20
48.0000
30
0.0
11
56.0000
21
-48.0000
31
0.0
0
LINE
8
ENGRAVE
10
52.0000
20
-32.0000
30
0.0
11
41.5000
21
-32.0000
31
0.0
0
LINE
8
ENGRAVE
10
40.0000
20
-44.0000
30
0.0
11
40.0000
21
-33.5000
31
0.0
0
LINE
8
ENGRAVE
10
40.0000
20
-32.0000
30
0.0
11
12.0000
21
-32.0000
31
0.0
0
LINE
8
ENGRAVE
10
12.0000
20
-32.0000
30
0.0
11
15.0000
21
-33.5000
31
0.0
0
LINE
8
ENGRAVE
10
12.0000
20
-32.0000
30
0.0
11
15.0000
21
-30.5000
31
0.0
0
LINE
8
ENGRAVE
10
40.0000
20
-32.0000
30
0.0
11
40.0000
21
-4.0000
31
0.0
0
LINE
8
ENGRAVE
10
40.0000
20
-4.0000
30
0.0
11
38.5000
21
-7.0000
31
0.0
0
LINE
8
ENGRAVE
10
40.0000
20
-4.0000
30
0.0
11
41.5000
21
-7.0000
31
0.0
0
TEXT
8
ENGRAVE
10
6.0000
20
-33.5000
30
0.0
40
3.0000
1
x
0
TEXT
8
ENGRAVE
10
39.0000
20
-0.5000
30
0.0
40
3.0000
1
y
0
TEXT
8
ENGRAVE
10
-104.5000
20
46.0000
30
0.0
40
3.0000
1
joint
0
TEXT
8
ENGRAVE
10
89.5000
20
46.0000
30
0.0
40
3.0000
1
joint
0
TEXT
8
ENGRAVE
10
-106.0000
20
37.0000
30
0.0
40
3.5000
1
WALL ^
0
TEXT
8
ENGRAVE
10
-106.0000
20
-29.0000
30
0.0
40
3.5000
1
W6
0
TEXT
8
ENGRAVE
10
-106.0000
20
-35.0000
30
0.0
40
3.0000
1
ids 90-99
0
TEXT
8
ENGRAVE
10
-106.0000
20
-41.0000
30
0.0
40
3.0000
1
u = 4900 mm
0
TEXT
8
ENGRAVE
10
-106.0000
20
-50.0000
30
0.0
40
3.5000
1
ARES v
0
ENDSEC
0
EOF
